G04 #@! TF.GenerationSoftware,KiCad,Pcbnew,5.1.9*
G04 #@! TF.CreationDate,2021-01-23T21:46:40+01:00*
G04 #@! TF.ProjectId,qc_attiny,71635f61-7474-4696-9e79-2e6b69636164,rev?*
G04 #@! TF.SameCoordinates,Original*
G04 #@! TF.FileFunction,Legend,Top*
G04 #@! TF.FilePolarity,Positive*
%FSLAX46Y46*%
G04 Gerber Fmt 4.6, Leading zero omitted, Abs format (unit mm)*
G04 Created by KiCad (PCBNEW 5.1.9) date 2021-01-23 21:46:40*
%MOMM*%
%LPD*%
G01*
G04 APERTURE LIST*
%ADD10C,0.150000*%
%ADD11C,0.300000*%
%ADD12C,0.200000*%
%ADD13C,0.120000*%
G04 APERTURE END LIST*
D10*
X140523809Y-96352380D02*
X140523809Y-95352380D01*
X141571428Y-96257142D02*
X141523809Y-96304761D01*
X141380952Y-96352380D01*
X141285714Y-96352380D01*
X141142857Y-96304761D01*
X141047619Y-96209523D01*
X141000000Y-96114285D01*
X140952380Y-95923809D01*
X140952380Y-95780952D01*
X141000000Y-95590476D01*
X141047619Y-95495238D01*
X141142857Y-95400000D01*
X141285714Y-95352380D01*
X141380952Y-95352380D01*
X141523809Y-95400000D01*
X141571428Y-95447619D01*
X141952380Y-96304761D02*
X142095238Y-96352380D01*
X142333333Y-96352380D01*
X142428571Y-96304761D01*
X142476190Y-96257142D01*
X142523809Y-96161904D01*
X142523809Y-96066666D01*
X142476190Y-95971428D01*
X142428571Y-95923809D01*
X142333333Y-95876190D01*
X142142857Y-95828571D01*
X142047619Y-95780952D01*
X142000000Y-95733333D01*
X141952380Y-95638095D01*
X141952380Y-95542857D01*
X142000000Y-95447619D01*
X142047619Y-95400000D01*
X142142857Y-95352380D01*
X142380952Y-95352380D01*
X142523809Y-95400000D01*
X142952380Y-96352380D02*
X142952380Y-95352380D01*
X143333333Y-95352380D01*
X143428571Y-95400000D01*
X143476190Y-95447619D01*
X143523809Y-95542857D01*
X143523809Y-95685714D01*
X143476190Y-95780952D01*
X143428571Y-95828571D01*
X143333333Y-95876190D01*
X142952380Y-95876190D01*
X150647619Y-114152380D02*
X150314285Y-113676190D01*
X150076190Y-114152380D02*
X150076190Y-113152380D01*
X150457142Y-113152380D01*
X150552380Y-113200000D01*
X150600000Y-113247619D01*
X150647619Y-113342857D01*
X150647619Y-113485714D01*
X150600000Y-113580952D01*
X150552380Y-113628571D01*
X150457142Y-113676190D01*
X150076190Y-113676190D01*
X151076190Y-113628571D02*
X151409523Y-113628571D01*
X151552380Y-114152380D02*
X151076190Y-114152380D01*
X151076190Y-113152380D01*
X151552380Y-113152380D01*
X151933333Y-114104761D02*
X152076190Y-114152380D01*
X152314285Y-114152380D01*
X152409523Y-114104761D01*
X152457142Y-114057142D01*
X152504761Y-113961904D01*
X152504761Y-113866666D01*
X152457142Y-113771428D01*
X152409523Y-113723809D01*
X152314285Y-113676190D01*
X152123809Y-113628571D01*
X152028571Y-113580952D01*
X151980952Y-113533333D01*
X151933333Y-113438095D01*
X151933333Y-113342857D01*
X151980952Y-113247619D01*
X152028571Y-113200000D01*
X152123809Y-113152380D01*
X152361904Y-113152380D01*
X152504761Y-113200000D01*
X152933333Y-113628571D02*
X153266666Y-113628571D01*
X153409523Y-114152380D02*
X152933333Y-114152380D01*
X152933333Y-113152380D01*
X153409523Y-113152380D01*
X153695238Y-113152380D02*
X154266666Y-113152380D01*
X153980952Y-114152380D02*
X153980952Y-113152380D01*
X154528571Y-123352380D02*
X154861904Y-124352380D01*
X155195238Y-123352380D01*
X155528571Y-123971428D02*
X156290476Y-123971428D01*
X156766666Y-123971428D02*
X157528571Y-123971428D01*
X144828571Y-123352380D02*
X145161904Y-124352380D01*
X145495238Y-123352380D01*
X145828571Y-123971428D02*
X146590476Y-123971428D01*
X146209523Y-124352380D02*
X146209523Y-123590476D01*
X147066666Y-123971428D02*
X147828571Y-123971428D01*
X147447619Y-124352380D02*
X147447619Y-123590476D01*
D11*
X158628571Y-113807142D02*
X159771428Y-113807142D01*
X158528571Y-101407142D02*
X159671428Y-101407142D01*
X159100000Y-101978571D02*
X159100000Y-100835714D01*
D12*
X113615714Y-92425000D02*
X114330000Y-92425000D01*
X113472857Y-92853571D02*
X113972857Y-91353571D01*
X114472857Y-92853571D01*
X114758571Y-91353571D02*
X115615714Y-91353571D01*
X115187142Y-92853571D02*
X115187142Y-91353571D01*
X115901428Y-91853571D02*
X116472857Y-91853571D01*
X116115714Y-91353571D02*
X116115714Y-92639285D01*
X116187142Y-92782142D01*
X116330000Y-92853571D01*
X116472857Y-92853571D01*
X116972857Y-92853571D02*
X116972857Y-91853571D01*
X116972857Y-91353571D02*
X116901428Y-91425000D01*
X116972857Y-91496428D01*
X117044285Y-91425000D01*
X116972857Y-91353571D01*
X116972857Y-91496428D01*
X117687142Y-91853571D02*
X117687142Y-92853571D01*
X117687142Y-91996428D02*
X117758571Y-91925000D01*
X117901428Y-91853571D01*
X118115714Y-91853571D01*
X118258571Y-91925000D01*
X118330000Y-92067857D01*
X118330000Y-92853571D01*
X118901428Y-91853571D02*
X119258571Y-92853571D01*
X119615714Y-91853571D02*
X119258571Y-92853571D01*
X119115714Y-93210714D01*
X119044285Y-93282142D01*
X118901428Y-93353571D01*
X122330000Y-92996428D02*
X122187142Y-92925000D01*
X122044285Y-92782142D01*
X121830000Y-92567857D01*
X121687142Y-92496428D01*
X121544285Y-92496428D01*
X121615714Y-92853571D02*
X121472857Y-92782142D01*
X121330000Y-92639285D01*
X121258571Y-92353571D01*
X121258571Y-91853571D01*
X121330000Y-91567857D01*
X121472857Y-91425000D01*
X121615714Y-91353571D01*
X121901428Y-91353571D01*
X122044285Y-91425000D01*
X122187142Y-91567857D01*
X122258571Y-91853571D01*
X122258571Y-92353571D01*
X122187142Y-92639285D01*
X122044285Y-92782142D01*
X121901428Y-92853571D01*
X121615714Y-92853571D01*
X123758571Y-92710714D02*
X123687142Y-92782142D01*
X123472857Y-92853571D01*
X123330000Y-92853571D01*
X123115714Y-92782142D01*
X122972857Y-92639285D01*
X122901428Y-92496428D01*
X122830000Y-92210714D01*
X122830000Y-91996428D01*
X122901428Y-91710714D01*
X122972857Y-91567857D01*
X123115714Y-91425000D01*
X123330000Y-91353571D01*
X123472857Y-91353571D01*
X123687142Y-91425000D01*
X123758571Y-91496428D01*
X126187142Y-92782142D02*
X126044285Y-92853571D01*
X125758571Y-92853571D01*
X125615714Y-92782142D01*
X125544285Y-92710714D01*
X125472857Y-92567857D01*
X125472857Y-92139285D01*
X125544285Y-91996428D01*
X125615714Y-91925000D01*
X125758571Y-91853571D01*
X126044285Y-91853571D01*
X126187142Y-91925000D01*
X127044285Y-92853571D02*
X126901428Y-92782142D01*
X126830000Y-92710714D01*
X126758571Y-92567857D01*
X126758571Y-92139285D01*
X126830000Y-91996428D01*
X126901428Y-91925000D01*
X127044285Y-91853571D01*
X127258571Y-91853571D01*
X127401428Y-91925000D01*
X127472857Y-91996428D01*
X127544285Y-92139285D01*
X127544285Y-92567857D01*
X127472857Y-92710714D01*
X127401428Y-92782142D01*
X127258571Y-92853571D01*
X127044285Y-92853571D01*
X128187142Y-91853571D02*
X128187142Y-92853571D01*
X128187142Y-91996428D02*
X128258571Y-91925000D01*
X128401428Y-91853571D01*
X128615714Y-91853571D01*
X128758571Y-91925000D01*
X128830000Y-92067857D01*
X128830000Y-92853571D01*
X129330000Y-91853571D02*
X129901428Y-91853571D01*
X129544285Y-91353571D02*
X129544285Y-92639285D01*
X129615714Y-92782142D01*
X129758571Y-92853571D01*
X129901428Y-92853571D01*
X130401428Y-92853571D02*
X130401428Y-91853571D01*
X130401428Y-92139285D02*
X130472857Y-91996428D01*
X130544285Y-91925000D01*
X130687142Y-91853571D01*
X130830000Y-91853571D01*
X131544285Y-92853571D02*
X131401428Y-92782142D01*
X131330000Y-92710714D01*
X131258571Y-92567857D01*
X131258571Y-92139285D01*
X131330000Y-91996428D01*
X131401428Y-91925000D01*
X131544285Y-91853571D01*
X131758571Y-91853571D01*
X131901428Y-91925000D01*
X131972857Y-91996428D01*
X132044285Y-92139285D01*
X132044285Y-92567857D01*
X131972857Y-92710714D01*
X131901428Y-92782142D01*
X131758571Y-92853571D01*
X131544285Y-92853571D01*
X132901428Y-92853571D02*
X132758571Y-92782142D01*
X132687142Y-92639285D01*
X132687142Y-91353571D01*
X133687142Y-92853571D02*
X133544285Y-92782142D01*
X133472857Y-92639285D01*
X133472857Y-91353571D01*
X134830000Y-92782142D02*
X134687142Y-92853571D01*
X134401428Y-92853571D01*
X134258571Y-92782142D01*
X134187142Y-92639285D01*
X134187142Y-92067857D01*
X134258571Y-91925000D01*
X134401428Y-91853571D01*
X134687142Y-91853571D01*
X134830000Y-91925000D01*
X134901428Y-92067857D01*
X134901428Y-92210714D01*
X134187142Y-92353571D01*
X135544285Y-92853571D02*
X135544285Y-91853571D01*
X135544285Y-92139285D02*
X135615714Y-91996428D01*
X135687142Y-91925000D01*
X135830000Y-91853571D01*
X135972857Y-91853571D01*
X114115714Y-93803571D02*
X114115714Y-94875000D01*
X114044285Y-95089285D01*
X113901428Y-95232142D01*
X113687142Y-95303571D01*
X113544285Y-95303571D01*
X115472857Y-95303571D02*
X115472857Y-94517857D01*
X115401428Y-94375000D01*
X115258571Y-94303571D01*
X114972857Y-94303571D01*
X114830000Y-94375000D01*
X115472857Y-95232142D02*
X115330000Y-95303571D01*
X114972857Y-95303571D01*
X114830000Y-95232142D01*
X114758571Y-95089285D01*
X114758571Y-94946428D01*
X114830000Y-94803571D01*
X114972857Y-94732142D01*
X115330000Y-94732142D01*
X115472857Y-94660714D01*
X116187142Y-94303571D02*
X116187142Y-95303571D01*
X116187142Y-94446428D02*
X116258571Y-94375000D01*
X116401428Y-94303571D01*
X116615714Y-94303571D01*
X116758571Y-94375000D01*
X116830000Y-94517857D01*
X116830000Y-95303571D01*
X118472857Y-93803571D02*
X118972857Y-95303571D01*
X119472857Y-93803571D01*
X119972857Y-95303571D02*
X119972857Y-94303571D01*
X119972857Y-94589285D02*
X120044285Y-94446428D01*
X120115714Y-94375000D01*
X120258571Y-94303571D01*
X120401428Y-94303571D01*
X120901428Y-95303571D02*
X120901428Y-93803571D01*
X121544285Y-95303571D02*
X121544285Y-94517857D01*
X121472857Y-94375000D01*
X121330000Y-94303571D01*
X121115714Y-94303571D01*
X120972857Y-94375000D01*
X120901428Y-94446428D01*
X122472857Y-95303571D02*
X122330000Y-95232142D01*
X122258571Y-95160714D01*
X122187142Y-95017857D01*
X122187142Y-94589285D01*
X122258571Y-94446428D01*
X122330000Y-94375000D01*
X122472857Y-94303571D01*
X122687142Y-94303571D01*
X122830000Y-94375000D01*
X122901428Y-94446428D01*
X122972857Y-94589285D01*
X122972857Y-95017857D01*
X122901428Y-95160714D01*
X122830000Y-95232142D01*
X122687142Y-95303571D01*
X122472857Y-95303571D01*
X123472857Y-94303571D02*
X123830000Y-95303571D01*
X124187142Y-94303571D01*
X125330000Y-95232142D02*
X125187142Y-95303571D01*
X124901428Y-95303571D01*
X124758571Y-95232142D01*
X124687142Y-95089285D01*
X124687142Y-94517857D01*
X124758571Y-94375000D01*
X124901428Y-94303571D01*
X125187142Y-94303571D01*
X125330000Y-94375000D01*
X125401428Y-94517857D01*
X125401428Y-94660714D01*
X124687142Y-94803571D01*
X126687142Y-95232142D02*
X126544285Y-95303571D01*
X126258571Y-95303571D01*
X126115714Y-95232142D01*
X126044285Y-95160714D01*
X125972857Y-95017857D01*
X125972857Y-94589285D01*
X126044285Y-94446428D01*
X126115714Y-94375000D01*
X126258571Y-94303571D01*
X126544285Y-94303571D01*
X126687142Y-94375000D01*
X127401428Y-95232142D02*
X127401428Y-95303571D01*
X127330000Y-95446428D01*
X127258571Y-95517857D01*
X129115714Y-93946428D02*
X129187142Y-93875000D01*
X129330000Y-93803571D01*
X129687142Y-93803571D01*
X129830000Y-93875000D01*
X129901428Y-93946428D01*
X129972857Y-94089285D01*
X129972857Y-94232142D01*
X129901428Y-94446428D01*
X129044285Y-95303571D01*
X129972857Y-95303571D01*
X130901428Y-93803571D02*
X131044285Y-93803571D01*
X131187142Y-93875000D01*
X131258571Y-93946428D01*
X131330000Y-94089285D01*
X131401428Y-94375000D01*
X131401428Y-94732142D01*
X131330000Y-95017857D01*
X131258571Y-95160714D01*
X131187142Y-95232142D01*
X131044285Y-95303571D01*
X130901428Y-95303571D01*
X130758571Y-95232142D01*
X130687142Y-95160714D01*
X130615714Y-95017857D01*
X130544285Y-94732142D01*
X130544285Y-94375000D01*
X130615714Y-94089285D01*
X130687142Y-93946428D01*
X130758571Y-93875000D01*
X130901428Y-93803571D01*
X131972857Y-93946428D02*
X132044285Y-93875000D01*
X132187142Y-93803571D01*
X132544285Y-93803571D01*
X132687142Y-93875000D01*
X132758571Y-93946428D01*
X132830000Y-94089285D01*
X132830000Y-94232142D01*
X132758571Y-94446428D01*
X131901428Y-95303571D01*
X132830000Y-95303571D01*
X134258571Y-95303571D02*
X133401428Y-95303571D01*
X133830000Y-95303571D02*
X133830000Y-93803571D01*
X133687142Y-94017857D01*
X133544285Y-94160714D01*
X133401428Y-94232142D01*
D10*
X113326071Y-116652380D02*
X113421309Y-116652380D01*
X113516547Y-116700000D01*
X113564166Y-116747619D01*
X113611785Y-116842857D01*
X113659404Y-117033333D01*
X113659404Y-117271428D01*
X113611785Y-117461904D01*
X113564166Y-117557142D01*
X113516547Y-117604761D01*
X113421309Y-117652380D01*
X113326071Y-117652380D01*
X113230833Y-117604761D01*
X113183214Y-117557142D01*
X113135595Y-117461904D01*
X113087976Y-117271428D01*
X113087976Y-117033333D01*
X113135595Y-116842857D01*
X113183214Y-116747619D01*
X113230833Y-116700000D01*
X113326071Y-116652380D01*
X114278452Y-116652380D02*
X114373690Y-116652380D01*
X114468928Y-116700000D01*
X114516547Y-116747619D01*
X114564166Y-116842857D01*
X114611785Y-117033333D01*
X114611785Y-117271428D01*
X114564166Y-117461904D01*
X114516547Y-117557142D01*
X114468928Y-117604761D01*
X114373690Y-117652380D01*
X114278452Y-117652380D01*
X114183214Y-117604761D01*
X114135595Y-117557142D01*
X114087976Y-117461904D01*
X114040357Y-117271428D01*
X114040357Y-117033333D01*
X114087976Y-116842857D01*
X114135595Y-116747619D01*
X114183214Y-116700000D01*
X114278452Y-116652380D01*
X115230833Y-116652380D02*
X115326071Y-116652380D01*
X115421309Y-116700000D01*
X115468928Y-116747619D01*
X115516547Y-116842857D01*
X115564166Y-117033333D01*
X115564166Y-117271428D01*
X115516547Y-117461904D01*
X115468928Y-117557142D01*
X115421309Y-117604761D01*
X115326071Y-117652380D01*
X115230833Y-117652380D01*
X115135595Y-117604761D01*
X115087976Y-117557142D01*
X115040357Y-117461904D01*
X114992738Y-117271428D01*
X114992738Y-117033333D01*
X115040357Y-116842857D01*
X115087976Y-116747619D01*
X115135595Y-116700000D01*
X115230833Y-116652380D01*
X115992738Y-117557142D02*
X116040357Y-117604761D01*
X115992738Y-117652380D01*
X115945119Y-117604761D01*
X115992738Y-117557142D01*
X115992738Y-117652380D01*
X115992738Y-117033333D02*
X116040357Y-117080952D01*
X115992738Y-117128571D01*
X115945119Y-117080952D01*
X115992738Y-117033333D01*
X115992738Y-117128571D01*
X117707023Y-116652380D02*
X117230833Y-116652380D01*
X117183214Y-117128571D01*
X117230833Y-117080952D01*
X117326071Y-117033333D01*
X117564166Y-117033333D01*
X117659404Y-117080952D01*
X117707023Y-117128571D01*
X117754642Y-117223809D01*
X117754642Y-117461904D01*
X117707023Y-117557142D01*
X117659404Y-117604761D01*
X117564166Y-117652380D01*
X117326071Y-117652380D01*
X117230833Y-117604761D01*
X117183214Y-117557142D01*
X118040357Y-116652380D02*
X118373690Y-117652380D01*
X118707023Y-116652380D01*
X113326071Y-118302380D02*
X113421309Y-118302380D01*
X113516547Y-118350000D01*
X113564166Y-118397619D01*
X113611785Y-118492857D01*
X113659404Y-118683333D01*
X113659404Y-118921428D01*
X113611785Y-119111904D01*
X113564166Y-119207142D01*
X113516547Y-119254761D01*
X113421309Y-119302380D01*
X113326071Y-119302380D01*
X113230833Y-119254761D01*
X113183214Y-119207142D01*
X113135595Y-119111904D01*
X113087976Y-118921428D01*
X113087976Y-118683333D01*
X113135595Y-118492857D01*
X113183214Y-118397619D01*
X113230833Y-118350000D01*
X113326071Y-118302380D01*
X114278452Y-118302380D02*
X114373690Y-118302380D01*
X114468928Y-118350000D01*
X114516547Y-118397619D01*
X114564166Y-118492857D01*
X114611785Y-118683333D01*
X114611785Y-118921428D01*
X114564166Y-119111904D01*
X114516547Y-119207142D01*
X114468928Y-119254761D01*
X114373690Y-119302380D01*
X114278452Y-119302380D01*
X114183214Y-119254761D01*
X114135595Y-119207142D01*
X114087976Y-119111904D01*
X114040357Y-118921428D01*
X114040357Y-118683333D01*
X114087976Y-118492857D01*
X114135595Y-118397619D01*
X114183214Y-118350000D01*
X114278452Y-118302380D01*
X115564166Y-119302380D02*
X114992738Y-119302380D01*
X115278452Y-119302380D02*
X115278452Y-118302380D01*
X115183214Y-118445238D01*
X115087976Y-118540476D01*
X114992738Y-118588095D01*
X115992738Y-119207142D02*
X116040357Y-119254761D01*
X115992738Y-119302380D01*
X115945119Y-119254761D01*
X115992738Y-119207142D01*
X115992738Y-119302380D01*
X115992738Y-118683333D02*
X116040357Y-118730952D01*
X115992738Y-118778571D01*
X115945119Y-118730952D01*
X115992738Y-118683333D01*
X115992738Y-118778571D01*
X117278452Y-119302380D02*
X117468928Y-119302380D01*
X117564166Y-119254761D01*
X117611785Y-119207142D01*
X117707023Y-119064285D01*
X117754642Y-118873809D01*
X117754642Y-118492857D01*
X117707023Y-118397619D01*
X117659404Y-118350000D01*
X117564166Y-118302380D01*
X117373690Y-118302380D01*
X117278452Y-118350000D01*
X117230833Y-118397619D01*
X117183214Y-118492857D01*
X117183214Y-118730952D01*
X117230833Y-118826190D01*
X117278452Y-118873809D01*
X117373690Y-118921428D01*
X117564166Y-118921428D01*
X117659404Y-118873809D01*
X117707023Y-118826190D01*
X117754642Y-118730952D01*
X118040357Y-118302380D02*
X118373690Y-119302380D01*
X118707023Y-118302380D01*
X113326071Y-119952380D02*
X113421309Y-119952380D01*
X113516547Y-120000000D01*
X113564166Y-120047619D01*
X113611785Y-120142857D01*
X113659404Y-120333333D01*
X113659404Y-120571428D01*
X113611785Y-120761904D01*
X113564166Y-120857142D01*
X113516547Y-120904761D01*
X113421309Y-120952380D01*
X113326071Y-120952380D01*
X113230833Y-120904761D01*
X113183214Y-120857142D01*
X113135595Y-120761904D01*
X113087976Y-120571428D01*
X113087976Y-120333333D01*
X113135595Y-120142857D01*
X113183214Y-120047619D01*
X113230833Y-120000000D01*
X113326071Y-119952380D01*
X114611785Y-120952380D02*
X114040357Y-120952380D01*
X114326071Y-120952380D02*
X114326071Y-119952380D01*
X114230833Y-120095238D01*
X114135595Y-120190476D01*
X114040357Y-120238095D01*
X115230833Y-119952380D02*
X115326071Y-119952380D01*
X115421309Y-120000000D01*
X115468928Y-120047619D01*
X115516547Y-120142857D01*
X115564166Y-120333333D01*
X115564166Y-120571428D01*
X115516547Y-120761904D01*
X115468928Y-120857142D01*
X115421309Y-120904761D01*
X115326071Y-120952380D01*
X115230833Y-120952380D01*
X115135595Y-120904761D01*
X115087976Y-120857142D01*
X115040357Y-120761904D01*
X114992738Y-120571428D01*
X114992738Y-120333333D01*
X115040357Y-120142857D01*
X115087976Y-120047619D01*
X115135595Y-120000000D01*
X115230833Y-119952380D01*
X115992738Y-120857142D02*
X116040357Y-120904761D01*
X115992738Y-120952380D01*
X115945119Y-120904761D01*
X115992738Y-120857142D01*
X115992738Y-120952380D01*
X115992738Y-120333333D02*
X116040357Y-120380952D01*
X115992738Y-120428571D01*
X115945119Y-120380952D01*
X115992738Y-120333333D01*
X115992738Y-120428571D01*
X117754642Y-120952380D02*
X117183214Y-120952380D01*
X117468928Y-120952380D02*
X117468928Y-119952380D01*
X117373690Y-120095238D01*
X117278452Y-120190476D01*
X117183214Y-120238095D01*
X118135595Y-120047619D02*
X118183214Y-120000000D01*
X118278452Y-119952380D01*
X118516547Y-119952380D01*
X118611785Y-120000000D01*
X118659404Y-120047619D01*
X118707023Y-120142857D01*
X118707023Y-120238095D01*
X118659404Y-120380952D01*
X118087976Y-120952380D01*
X118707023Y-120952380D01*
X118992738Y-119952380D02*
X119326071Y-120952380D01*
X119659404Y-119952380D01*
X113326071Y-121602380D02*
X113421309Y-121602380D01*
X113516547Y-121650000D01*
X113564166Y-121697619D01*
X113611785Y-121792857D01*
X113659404Y-121983333D01*
X113659404Y-122221428D01*
X113611785Y-122411904D01*
X113564166Y-122507142D01*
X113516547Y-122554761D01*
X113421309Y-122602380D01*
X113326071Y-122602380D01*
X113230833Y-122554761D01*
X113183214Y-122507142D01*
X113135595Y-122411904D01*
X113087976Y-122221428D01*
X113087976Y-121983333D01*
X113135595Y-121792857D01*
X113183214Y-121697619D01*
X113230833Y-121650000D01*
X113326071Y-121602380D01*
X114611785Y-122602380D02*
X114040357Y-122602380D01*
X114326071Y-122602380D02*
X114326071Y-121602380D01*
X114230833Y-121745238D01*
X114135595Y-121840476D01*
X114040357Y-121888095D01*
X115564166Y-122602380D02*
X114992738Y-122602380D01*
X115278452Y-122602380D02*
X115278452Y-121602380D01*
X115183214Y-121745238D01*
X115087976Y-121840476D01*
X114992738Y-121888095D01*
X115992738Y-122507142D02*
X116040357Y-122554761D01*
X115992738Y-122602380D01*
X115945119Y-122554761D01*
X115992738Y-122507142D01*
X115992738Y-122602380D01*
X115992738Y-121983333D02*
X116040357Y-122030952D01*
X115992738Y-122078571D01*
X115945119Y-122030952D01*
X115992738Y-121983333D01*
X115992738Y-122078571D01*
X117183214Y-121697619D02*
X117230833Y-121650000D01*
X117326071Y-121602380D01*
X117564166Y-121602380D01*
X117659404Y-121650000D01*
X117707023Y-121697619D01*
X117754642Y-121792857D01*
X117754642Y-121888095D01*
X117707023Y-122030952D01*
X117135595Y-122602380D01*
X117754642Y-122602380D01*
X118373690Y-121602380D02*
X118468928Y-121602380D01*
X118564166Y-121650000D01*
X118611785Y-121697619D01*
X118659404Y-121792857D01*
X118707023Y-121983333D01*
X118707023Y-122221428D01*
X118659404Y-122411904D01*
X118611785Y-122507142D01*
X118564166Y-122554761D01*
X118468928Y-122602380D01*
X118373690Y-122602380D01*
X118278452Y-122554761D01*
X118230833Y-122507142D01*
X118183214Y-122411904D01*
X118135595Y-122221428D01*
X118135595Y-121983333D01*
X118183214Y-121792857D01*
X118230833Y-121697619D01*
X118278452Y-121650000D01*
X118373690Y-121602380D01*
X118992738Y-121602380D02*
X119326071Y-122602380D01*
X119659404Y-121602380D01*
X113659404Y-124252380D02*
X113087976Y-124252380D01*
X113373690Y-124252380D02*
X113373690Y-123252380D01*
X113278452Y-123395238D01*
X113183214Y-123490476D01*
X113087976Y-123538095D01*
X114278452Y-123252380D02*
X114373690Y-123252380D01*
X114468928Y-123300000D01*
X114516547Y-123347619D01*
X114564166Y-123442857D01*
X114611785Y-123633333D01*
X114611785Y-123871428D01*
X114564166Y-124061904D01*
X114516547Y-124157142D01*
X114468928Y-124204761D01*
X114373690Y-124252380D01*
X114278452Y-124252380D01*
X114183214Y-124204761D01*
X114135595Y-124157142D01*
X114087976Y-124061904D01*
X114040357Y-123871428D01*
X114040357Y-123633333D01*
X114087976Y-123442857D01*
X114135595Y-123347619D01*
X114183214Y-123300000D01*
X114278452Y-123252380D01*
X115230833Y-123252380D02*
X115326071Y-123252380D01*
X115421309Y-123300000D01*
X115468928Y-123347619D01*
X115516547Y-123442857D01*
X115564166Y-123633333D01*
X115564166Y-123871428D01*
X115516547Y-124061904D01*
X115468928Y-124157142D01*
X115421309Y-124204761D01*
X115326071Y-124252380D01*
X115230833Y-124252380D01*
X115135595Y-124204761D01*
X115087976Y-124157142D01*
X115040357Y-124061904D01*
X114992738Y-123871428D01*
X114992738Y-123633333D01*
X115040357Y-123442857D01*
X115087976Y-123347619D01*
X115135595Y-123300000D01*
X115230833Y-123252380D01*
X115992738Y-124157142D02*
X116040357Y-124204761D01*
X115992738Y-124252380D01*
X115945119Y-124204761D01*
X115992738Y-124157142D01*
X115992738Y-124252380D01*
X115992738Y-123633333D02*
X116040357Y-123680952D01*
X115992738Y-123728571D01*
X115945119Y-123680952D01*
X115992738Y-123633333D01*
X115992738Y-123728571D01*
X117802261Y-124157142D02*
X117754642Y-124204761D01*
X117611785Y-124252380D01*
X117516547Y-124252380D01*
X117373690Y-124204761D01*
X117278452Y-124109523D01*
X117230833Y-124014285D01*
X117183214Y-123823809D01*
X117183214Y-123680952D01*
X117230833Y-123490476D01*
X117278452Y-123395238D01*
X117373690Y-123300000D01*
X117516547Y-123252380D01*
X117611785Y-123252380D01*
X117754642Y-123300000D01*
X117802261Y-123347619D01*
X118421309Y-123252380D02*
X118611785Y-123252380D01*
X118707023Y-123300000D01*
X118802261Y-123395238D01*
X118849880Y-123585714D01*
X118849880Y-123919047D01*
X118802261Y-124109523D01*
X118707023Y-124204761D01*
X118611785Y-124252380D01*
X118421309Y-124252380D01*
X118326071Y-124204761D01*
X118230833Y-124109523D01*
X118183214Y-123919047D01*
X118183214Y-123585714D01*
X118230833Y-123395238D01*
X118326071Y-123300000D01*
X118421309Y-123252380D01*
X119278452Y-124252380D02*
X119278452Y-123252380D01*
X119849880Y-124252380D01*
X119849880Y-123252380D01*
X120183214Y-123252380D02*
X120754642Y-123252380D01*
X120468928Y-124252380D02*
X120468928Y-123252380D01*
D13*
X136665000Y-98177500D02*
X136665000Y-102262500D01*
X138535000Y-98177500D02*
X136665000Y-98177500D01*
X138535000Y-102262500D02*
X138535000Y-98177500D01*
X115470000Y-111700000D02*
X116225000Y-111700000D01*
X112300000Y-101155000D02*
X111250000Y-101155000D01*
X112300000Y-113445000D02*
X111250000Y-113445000D01*
X115470000Y-111700000D02*
X115470000Y-102900000D01*
X126727064Y-100290000D02*
X125272936Y-100290000D01*
X126727064Y-102110000D02*
X125272936Y-102110000D01*
X137065000Y-108600000D02*
X137065000Y-112050000D01*
X137065000Y-108600000D02*
X137065000Y-106650000D01*
X145935000Y-108600000D02*
X145935000Y-110550000D01*
X145935000Y-108600000D02*
X145935000Y-106650000D01*
X157400000Y-112700000D02*
X157400000Y-109300000D01*
X160800000Y-112700000D02*
X157400000Y-112700000D01*
X160800000Y-109300000D02*
X160800000Y-112700000D01*
X157400000Y-109300000D02*
X160800000Y-109300000D01*
X157400000Y-106000000D02*
X157400000Y-102600000D01*
X160800000Y-106000000D02*
X157400000Y-106000000D01*
X160800000Y-102600000D02*
X160800000Y-106000000D01*
X157400000Y-102600000D02*
X160800000Y-102600000D01*
X136290000Y-117272936D02*
X136290000Y-118727064D01*
X138110000Y-117272936D02*
X138110000Y-118727064D01*
X148430000Y-97670000D02*
X148430000Y-99000000D01*
X147100000Y-97670000D02*
X148430000Y-97670000D01*
X148430000Y-100270000D02*
X148430000Y-102870000D01*
X145830000Y-100270000D02*
X148430000Y-100270000D01*
X145830000Y-97670000D02*
X145830000Y-100270000D01*
X148430000Y-102870000D02*
X140690000Y-102870000D01*
X145830000Y-97670000D02*
X140690000Y-97670000D01*
X140690000Y-97670000D02*
X140690000Y-102870000D01*
X133300000Y-98090000D02*
X130850000Y-98090000D01*
X131500000Y-101310000D02*
X133300000Y-101310000D01*
X124655000Y-117633333D02*
X123385000Y-117633333D01*
X123455000Y-116280000D02*
X123455000Y-117633333D01*
X123575000Y-116280000D02*
X123575000Y-117633333D01*
X123695000Y-116280000D02*
X123695000Y-117633333D01*
X123815000Y-116280000D02*
X123815000Y-117633333D01*
X123935000Y-116280000D02*
X123935000Y-117633333D01*
X124055000Y-116280000D02*
X124055000Y-117633333D01*
X124175000Y-116280000D02*
X124175000Y-117633333D01*
X124295000Y-116280000D02*
X124295000Y-117633333D01*
X124415000Y-116280000D02*
X124415000Y-117633333D01*
X124535000Y-116280000D02*
X124535000Y-117633333D01*
X124655000Y-120340000D02*
X124655000Y-116280000D01*
X123385000Y-120340000D02*
X124655000Y-120340000D01*
X123385000Y-116280000D02*
X123385000Y-120340000D01*
X124655000Y-116280000D02*
X123385000Y-116280000D01*
X127195000Y-117633333D02*
X125925000Y-117633333D01*
X125995000Y-116280000D02*
X125995000Y-117633333D01*
X126115000Y-116280000D02*
X126115000Y-117633333D01*
X126235000Y-116280000D02*
X126235000Y-117633333D01*
X126355000Y-116280000D02*
X126355000Y-117633333D01*
X126475000Y-116280000D02*
X126475000Y-117633333D01*
X126595000Y-116280000D02*
X126595000Y-117633333D01*
X126715000Y-116280000D02*
X126715000Y-117633333D01*
X126835000Y-116280000D02*
X126835000Y-117633333D01*
X126955000Y-116280000D02*
X126955000Y-117633333D01*
X127075000Y-116280000D02*
X127075000Y-117633333D01*
X127195000Y-120340000D02*
X127195000Y-116280000D01*
X125925000Y-120340000D02*
X127195000Y-120340000D01*
X125925000Y-116280000D02*
X125925000Y-120340000D01*
X127195000Y-116280000D02*
X125925000Y-116280000D01*
X129735000Y-117633333D02*
X128465000Y-117633333D01*
X128535000Y-116280000D02*
X128535000Y-117633333D01*
X128655000Y-116280000D02*
X128655000Y-117633333D01*
X128775000Y-116280000D02*
X128775000Y-117633333D01*
X128895000Y-116280000D02*
X128895000Y-117633333D01*
X129015000Y-116280000D02*
X129015000Y-117633333D01*
X129135000Y-116280000D02*
X129135000Y-117633333D01*
X129255000Y-116280000D02*
X129255000Y-117633333D01*
X129375000Y-116280000D02*
X129375000Y-117633333D01*
X129495000Y-116280000D02*
X129495000Y-117633333D01*
X129615000Y-116280000D02*
X129615000Y-117633333D01*
X129735000Y-120340000D02*
X129735000Y-116280000D01*
X128465000Y-120340000D02*
X129735000Y-120340000D01*
X128465000Y-116280000D02*
X128465000Y-120340000D01*
X129735000Y-116280000D02*
X128465000Y-116280000D01*
X131760000Y-113120000D02*
X130377000Y-113120000D01*
X131760000Y-113120000D02*
X131760000Y-114504000D01*
X131520000Y-123260000D02*
X121600000Y-123260000D01*
X131520000Y-113360000D02*
X121600000Y-113360000D01*
X121600000Y-113360000D02*
X121600000Y-123260000D01*
X131520000Y-113360000D02*
X131520000Y-123260000D01*
X138990000Y-117172936D02*
X138990000Y-118627064D01*
X140810000Y-117172936D02*
X140810000Y-118627064D01*
X151872936Y-102810000D02*
X153327064Y-102810000D01*
X151872936Y-100990000D02*
X153327064Y-100990000D01*
X135210000Y-118727064D02*
X135210000Y-117272936D01*
X133390000Y-118727064D02*
X133390000Y-117272936D01*
X129827064Y-108490000D02*
X128372936Y-108490000D01*
X129827064Y-110310000D02*
X128372936Y-110310000D01*
X122472936Y-110310000D02*
X123927064Y-110310000D01*
X122472936Y-108490000D02*
X123927064Y-108490000D01*
X129827064Y-105790000D02*
X128372936Y-105790000D01*
X129827064Y-107610000D02*
X128372936Y-107610000D01*
X122472936Y-107610000D02*
X123927064Y-107610000D01*
X122472936Y-105790000D02*
X123927064Y-105790000D01*
X131688748Y-104210000D02*
X133111252Y-104210000D01*
X131688748Y-102390000D02*
X133111252Y-102390000D01*
D10*
X139707142Y-100829166D02*
X139754761Y-100876785D01*
X139802380Y-101019642D01*
X139802380Y-101114880D01*
X139754761Y-101257738D01*
X139659523Y-101352976D01*
X139564285Y-101400595D01*
X139373809Y-101448214D01*
X139230952Y-101448214D01*
X139040476Y-101400595D01*
X138945238Y-101352976D01*
X138850000Y-101257738D01*
X138802380Y-101114880D01*
X138802380Y-101019642D01*
X138850000Y-100876785D01*
X138897619Y-100829166D01*
X138897619Y-100448214D02*
X138850000Y-100400595D01*
X138802380Y-100305357D01*
X138802380Y-100067261D01*
X138850000Y-99972023D01*
X138897619Y-99924404D01*
X138992857Y-99876785D01*
X139088095Y-99876785D01*
X139230952Y-99924404D01*
X139802380Y-100495833D01*
X139802380Y-99876785D01*
X114016666Y-114752380D02*
X114016666Y-115466666D01*
X113969047Y-115609523D01*
X113873809Y-115704761D01*
X113730952Y-115752380D01*
X113635714Y-115752380D01*
X115016666Y-115752380D02*
X114445238Y-115752380D01*
X114730952Y-115752380D02*
X114730952Y-114752380D01*
X114635714Y-114895238D01*
X114540476Y-114990476D01*
X114445238Y-115038095D01*
X125833333Y-103472380D02*
X125500000Y-102996190D01*
X125261904Y-103472380D02*
X125261904Y-102472380D01*
X125642857Y-102472380D01*
X125738095Y-102520000D01*
X125785714Y-102567619D01*
X125833333Y-102662857D01*
X125833333Y-102805714D01*
X125785714Y-102900952D01*
X125738095Y-102948571D01*
X125642857Y-102996190D01*
X125261904Y-102996190D01*
X126785714Y-103472380D02*
X126214285Y-103472380D01*
X126500000Y-103472380D02*
X126500000Y-102472380D01*
X126404761Y-102615238D01*
X126309523Y-102710476D01*
X126214285Y-102758095D01*
X135672380Y-109361904D02*
X136481904Y-109361904D01*
X136577142Y-109314285D01*
X136624761Y-109266666D01*
X136672380Y-109171428D01*
X136672380Y-108980952D01*
X136624761Y-108885714D01*
X136577142Y-108838095D01*
X136481904Y-108790476D01*
X135672380Y-108790476D01*
X135767619Y-108361904D02*
X135720000Y-108314285D01*
X135672380Y-108219047D01*
X135672380Y-107980952D01*
X135720000Y-107885714D01*
X135767619Y-107838095D01*
X135862857Y-107790476D01*
X135958095Y-107790476D01*
X136100952Y-107838095D01*
X136672380Y-108409523D01*
X136672380Y-107790476D01*
X136357142Y-115252380D02*
X136023809Y-114776190D01*
X135785714Y-115252380D02*
X135785714Y-114252380D01*
X136166666Y-114252380D01*
X136261904Y-114300000D01*
X136309523Y-114347619D01*
X136357142Y-114442857D01*
X136357142Y-114585714D01*
X136309523Y-114680952D01*
X136261904Y-114728571D01*
X136166666Y-114776190D01*
X135785714Y-114776190D01*
X137309523Y-115252380D02*
X136738095Y-115252380D01*
X137023809Y-115252380D02*
X137023809Y-114252380D01*
X136928571Y-114395238D01*
X136833333Y-114490476D01*
X136738095Y-114538095D01*
X137928571Y-114252380D02*
X138023809Y-114252380D01*
X138119047Y-114300000D01*
X138166666Y-114347619D01*
X138214285Y-114442857D01*
X138261904Y-114633333D01*
X138261904Y-114871428D01*
X138214285Y-115061904D01*
X138166666Y-115157142D01*
X138119047Y-115204761D01*
X138023809Y-115252380D01*
X137928571Y-115252380D01*
X137833333Y-115204761D01*
X137785714Y-115157142D01*
X137738095Y-115061904D01*
X137690476Y-114871428D01*
X137690476Y-114633333D01*
X137738095Y-114442857D01*
X137785714Y-114347619D01*
X137833333Y-114300000D01*
X137928571Y-114252380D01*
X148882380Y-100603333D02*
X149596666Y-100603333D01*
X149739523Y-100650952D01*
X149834761Y-100746190D01*
X149882380Y-100889047D01*
X149882380Y-100984285D01*
X148977619Y-100174761D02*
X148930000Y-100127142D01*
X148882380Y-100031904D01*
X148882380Y-99793809D01*
X148930000Y-99698571D01*
X148977619Y-99650952D01*
X149072857Y-99603333D01*
X149168095Y-99603333D01*
X149310952Y-99650952D01*
X149882380Y-100222380D01*
X149882380Y-99603333D01*
X131638095Y-96252380D02*
X131638095Y-97061904D01*
X131685714Y-97157142D01*
X131733333Y-97204761D01*
X131828571Y-97252380D01*
X132019047Y-97252380D01*
X132114285Y-97204761D01*
X132161904Y-97157142D01*
X132209523Y-97061904D01*
X132209523Y-96252380D01*
X133209523Y-97252380D02*
X132638095Y-97252380D01*
X132923809Y-97252380D02*
X132923809Y-96252380D01*
X132828571Y-96395238D01*
X132733333Y-96490476D01*
X132638095Y-96538095D01*
X121466666Y-112804761D02*
X121609523Y-112852380D01*
X121847619Y-112852380D01*
X121942857Y-112804761D01*
X121990476Y-112757142D01*
X122038095Y-112661904D01*
X122038095Y-112566666D01*
X121990476Y-112471428D01*
X121942857Y-112423809D01*
X121847619Y-112376190D01*
X121657142Y-112328571D01*
X121561904Y-112280952D01*
X121514285Y-112233333D01*
X121466666Y-112138095D01*
X121466666Y-112042857D01*
X121514285Y-111947619D01*
X121561904Y-111900000D01*
X121657142Y-111852380D01*
X121895238Y-111852380D01*
X122038095Y-111900000D01*
X122371428Y-111852380D02*
X122609523Y-112852380D01*
X122800000Y-112138095D01*
X122990476Y-112852380D01*
X123228571Y-111852380D01*
X124038095Y-112185714D02*
X124038095Y-112852380D01*
X123800000Y-111804761D02*
X123561904Y-112519047D01*
X124180952Y-112519047D01*
X139833333Y-115252380D02*
X139500000Y-114776190D01*
X139261904Y-115252380D02*
X139261904Y-114252380D01*
X139642857Y-114252380D01*
X139738095Y-114300000D01*
X139785714Y-114347619D01*
X139833333Y-114442857D01*
X139833333Y-114585714D01*
X139785714Y-114680952D01*
X139738095Y-114728571D01*
X139642857Y-114776190D01*
X139261904Y-114776190D01*
X140309523Y-115252380D02*
X140500000Y-115252380D01*
X140595238Y-115204761D01*
X140642857Y-115157142D01*
X140738095Y-115014285D01*
X140785714Y-114823809D01*
X140785714Y-114442857D01*
X140738095Y-114347619D01*
X140690476Y-114300000D01*
X140595238Y-114252380D01*
X140404761Y-114252380D01*
X140309523Y-114300000D01*
X140261904Y-114347619D01*
X140214285Y-114442857D01*
X140214285Y-114680952D01*
X140261904Y-114776190D01*
X140309523Y-114823809D01*
X140404761Y-114871428D01*
X140595238Y-114871428D01*
X140690476Y-114823809D01*
X140738095Y-114776190D01*
X140785714Y-114680952D01*
X152433333Y-100532380D02*
X152100000Y-100056190D01*
X151861904Y-100532380D02*
X151861904Y-99532380D01*
X152242857Y-99532380D01*
X152338095Y-99580000D01*
X152385714Y-99627619D01*
X152433333Y-99722857D01*
X152433333Y-99865714D01*
X152385714Y-99960952D01*
X152338095Y-100008571D01*
X152242857Y-100056190D01*
X151861904Y-100056190D01*
X152814285Y-99627619D02*
X152861904Y-99580000D01*
X152957142Y-99532380D01*
X153195238Y-99532380D01*
X153290476Y-99580000D01*
X153338095Y-99627619D01*
X153385714Y-99722857D01*
X153385714Y-99818095D01*
X153338095Y-99960952D01*
X152766666Y-100532380D01*
X153385714Y-100532380D01*
X133657142Y-115252380D02*
X133323809Y-114776190D01*
X133085714Y-115252380D02*
X133085714Y-114252380D01*
X133466666Y-114252380D01*
X133561904Y-114300000D01*
X133609523Y-114347619D01*
X133657142Y-114442857D01*
X133657142Y-114585714D01*
X133609523Y-114680952D01*
X133561904Y-114728571D01*
X133466666Y-114776190D01*
X133085714Y-114776190D01*
X134609523Y-115252380D02*
X134038095Y-115252380D01*
X134323809Y-115252380D02*
X134323809Y-114252380D01*
X134228571Y-114395238D01*
X134133333Y-114490476D01*
X134038095Y-114538095D01*
X135561904Y-115252380D02*
X134990476Y-115252380D01*
X135276190Y-115252380D02*
X135276190Y-114252380D01*
X135180952Y-114395238D01*
X135085714Y-114490476D01*
X134990476Y-114538095D01*
X128933333Y-111672380D02*
X128600000Y-111196190D01*
X128361904Y-111672380D02*
X128361904Y-110672380D01*
X128742857Y-110672380D01*
X128838095Y-110720000D01*
X128885714Y-110767619D01*
X128933333Y-110862857D01*
X128933333Y-111005714D01*
X128885714Y-111100952D01*
X128838095Y-111148571D01*
X128742857Y-111196190D01*
X128361904Y-111196190D01*
X129266666Y-110672380D02*
X129933333Y-110672380D01*
X129504761Y-111672380D01*
X123033333Y-111552380D02*
X122700000Y-111076190D01*
X122461904Y-111552380D02*
X122461904Y-110552380D01*
X122842857Y-110552380D01*
X122938095Y-110600000D01*
X122985714Y-110647619D01*
X123033333Y-110742857D01*
X123033333Y-110885714D01*
X122985714Y-110980952D01*
X122938095Y-111028571D01*
X122842857Y-111076190D01*
X122461904Y-111076190D01*
X123890476Y-110552380D02*
X123700000Y-110552380D01*
X123604761Y-110600000D01*
X123557142Y-110647619D01*
X123461904Y-110790476D01*
X123414285Y-110980952D01*
X123414285Y-111361904D01*
X123461904Y-111457142D01*
X123509523Y-111504761D01*
X123604761Y-111552380D01*
X123795238Y-111552380D01*
X123890476Y-111504761D01*
X123938095Y-111457142D01*
X123985714Y-111361904D01*
X123985714Y-111123809D01*
X123938095Y-111028571D01*
X123890476Y-110980952D01*
X123795238Y-110933333D01*
X123604761Y-110933333D01*
X123509523Y-110980952D01*
X123461904Y-111028571D01*
X123414285Y-111123809D01*
X128933333Y-105452380D02*
X128600000Y-104976190D01*
X128361904Y-105452380D02*
X128361904Y-104452380D01*
X128742857Y-104452380D01*
X128838095Y-104500000D01*
X128885714Y-104547619D01*
X128933333Y-104642857D01*
X128933333Y-104785714D01*
X128885714Y-104880952D01*
X128838095Y-104928571D01*
X128742857Y-104976190D01*
X128361904Y-104976190D01*
X129790476Y-104785714D02*
X129790476Y-105452380D01*
X129552380Y-104404761D02*
X129314285Y-105119047D01*
X129933333Y-105119047D01*
X123033333Y-105352380D02*
X122700000Y-104876190D01*
X122461904Y-105352380D02*
X122461904Y-104352380D01*
X122842857Y-104352380D01*
X122938095Y-104400000D01*
X122985714Y-104447619D01*
X123033333Y-104542857D01*
X123033333Y-104685714D01*
X122985714Y-104780952D01*
X122938095Y-104828571D01*
X122842857Y-104876190D01*
X122461904Y-104876190D01*
X123366666Y-104352380D02*
X123985714Y-104352380D01*
X123652380Y-104733333D01*
X123795238Y-104733333D01*
X123890476Y-104780952D01*
X123938095Y-104828571D01*
X123985714Y-104923809D01*
X123985714Y-105161904D01*
X123938095Y-105257142D01*
X123890476Y-105304761D01*
X123795238Y-105352380D01*
X123509523Y-105352380D01*
X123414285Y-105304761D01*
X123366666Y-105257142D01*
X133433333Y-105557142D02*
X133385714Y-105604761D01*
X133242857Y-105652380D01*
X133147619Y-105652380D01*
X133004761Y-105604761D01*
X132909523Y-105509523D01*
X132861904Y-105414285D01*
X132814285Y-105223809D01*
X132814285Y-105080952D01*
X132861904Y-104890476D01*
X132909523Y-104795238D01*
X133004761Y-104700000D01*
X133147619Y-104652380D01*
X133242857Y-104652380D01*
X133385714Y-104700000D01*
X133433333Y-104747619D01*
X134385714Y-105652380D02*
X133814285Y-105652380D01*
X134100000Y-105652380D02*
X134100000Y-104652380D01*
X134004761Y-104795238D01*
X133909523Y-104890476D01*
X133814285Y-104938095D01*
M02*
