G04 #@! TF.GenerationSoftware,KiCad,Pcbnew,5.1.9*
G04 #@! TF.CreationDate,2021-01-23T21:46:40+01:00*
G04 #@! TF.ProjectId,qc_attiny,71635f61-7474-4696-9e79-2e6b69636164,rev?*
G04 #@! TF.SameCoordinates,Original*
G04 #@! TF.FileFunction,Soldermask,Top*
G04 #@! TF.FilePolarity,Negative*
%FSLAX46Y46*%
G04 Gerber Fmt 4.6, Leading zero omitted, Abs format (unit mm)*
G04 Created by KiCad (PCBNEW 5.1.9) date 2021-01-23 21:46:40*
%MOMM*%
%LPD*%
G01*
G04 APERTURE LIST*
%ADD10C,1.600000*%
%ADD11O,3.500000X1.900000*%
%ADD12C,1.100000*%
%ADD13R,3.000000X3.000000*%
%ADD14O,1.700000X1.700000*%
%ADD15R,1.700000X1.700000*%
%ADD16R,1.060000X0.650000*%
%ADD17O,1.600000X1.600000*%
%ADD18R,1.600000X1.600000*%
G04 APERTURE END LIST*
G36*
G01*
X137174999Y-101312500D02*
X138025001Y-101312500D01*
G75*
G02*
X138275000Y-101562499I0J-249999D01*
G01*
X138275000Y-102637501D01*
G75*
G02*
X138025001Y-102887500I-249999J0D01*
G01*
X137174999Y-102887500D01*
G75*
G02*
X136925000Y-102637501I0J249999D01*
G01*
X136925000Y-101562499D01*
G75*
G02*
X137174999Y-101312500I249999J0D01*
G01*
G37*
G36*
G01*
X137174999Y-98437500D02*
X138025001Y-98437500D01*
G75*
G02*
X138275000Y-98687499I0J-249999D01*
G01*
X138275000Y-99762501D01*
G75*
G02*
X138025001Y-100012500I-249999J0D01*
G01*
X137174999Y-100012500D01*
G75*
G02*
X136925000Y-99762501I0J249999D01*
G01*
X136925000Y-98687499D01*
G75*
G02*
X137174999Y-98437500I249999J0D01*
G01*
G37*
D10*
X117100000Y-108300000D03*
X117100000Y-106300000D03*
X117100000Y-110800000D03*
X117100000Y-103800000D03*
D11*
X114350000Y-113000000D03*
X114350000Y-101600000D03*
D12*
X114350000Y-109600000D03*
X114350000Y-105000000D03*
G36*
G01*
X125100000Y-100574999D02*
X125100000Y-101825001D01*
G75*
G02*
X124850001Y-102075000I-249999J0D01*
G01*
X124049999Y-102075000D01*
G75*
G02*
X123800000Y-101825001I0J249999D01*
G01*
X123800000Y-100574999D01*
G75*
G02*
X124049999Y-100325000I249999J0D01*
G01*
X124850001Y-100325000D01*
G75*
G02*
X125100000Y-100574999I0J-249999D01*
G01*
G37*
G36*
G01*
X128200000Y-100574999D02*
X128200000Y-101825001D01*
G75*
G02*
X127950001Y-102075000I-249999J0D01*
G01*
X127149999Y-102075000D01*
G75*
G02*
X126900000Y-101825001I0J249999D01*
G01*
X126900000Y-100574999D01*
G75*
G02*
X127149999Y-100325000I249999J0D01*
G01*
X127950001Y-100325000D01*
G75*
G02*
X128200000Y-100574999I0J-249999D01*
G01*
G37*
G36*
G01*
X137840000Y-107100000D02*
X137540000Y-107100000D01*
G75*
G02*
X137390000Y-106950000I0J150000D01*
G01*
X137390000Y-105300000D01*
G75*
G02*
X137540000Y-105150000I150000J0D01*
G01*
X137840000Y-105150000D01*
G75*
G02*
X137990000Y-105300000I0J-150000D01*
G01*
X137990000Y-106950000D01*
G75*
G02*
X137840000Y-107100000I-150000J0D01*
G01*
G37*
G36*
G01*
X139110000Y-107100000D02*
X138810000Y-107100000D01*
G75*
G02*
X138660000Y-106950000I0J150000D01*
G01*
X138660000Y-105300000D01*
G75*
G02*
X138810000Y-105150000I150000J0D01*
G01*
X139110000Y-105150000D01*
G75*
G02*
X139260000Y-105300000I0J-150000D01*
G01*
X139260000Y-106950000D01*
G75*
G02*
X139110000Y-107100000I-150000J0D01*
G01*
G37*
G36*
G01*
X140380000Y-107100000D02*
X140080000Y-107100000D01*
G75*
G02*
X139930000Y-106950000I0J150000D01*
G01*
X139930000Y-105300000D01*
G75*
G02*
X140080000Y-105150000I150000J0D01*
G01*
X140380000Y-105150000D01*
G75*
G02*
X140530000Y-105300000I0J-150000D01*
G01*
X140530000Y-106950000D01*
G75*
G02*
X140380000Y-107100000I-150000J0D01*
G01*
G37*
G36*
G01*
X141650000Y-107100000D02*
X141350000Y-107100000D01*
G75*
G02*
X141200000Y-106950000I0J150000D01*
G01*
X141200000Y-105300000D01*
G75*
G02*
X141350000Y-105150000I150000J0D01*
G01*
X141650000Y-105150000D01*
G75*
G02*
X141800000Y-105300000I0J-150000D01*
G01*
X141800000Y-106950000D01*
G75*
G02*
X141650000Y-107100000I-150000J0D01*
G01*
G37*
G36*
G01*
X142920000Y-107100000D02*
X142620000Y-107100000D01*
G75*
G02*
X142470000Y-106950000I0J150000D01*
G01*
X142470000Y-105300000D01*
G75*
G02*
X142620000Y-105150000I150000J0D01*
G01*
X142920000Y-105150000D01*
G75*
G02*
X143070000Y-105300000I0J-150000D01*
G01*
X143070000Y-106950000D01*
G75*
G02*
X142920000Y-107100000I-150000J0D01*
G01*
G37*
G36*
G01*
X144190000Y-107100000D02*
X143890000Y-107100000D01*
G75*
G02*
X143740000Y-106950000I0J150000D01*
G01*
X143740000Y-105300000D01*
G75*
G02*
X143890000Y-105150000I150000J0D01*
G01*
X144190000Y-105150000D01*
G75*
G02*
X144340000Y-105300000I0J-150000D01*
G01*
X144340000Y-106950000D01*
G75*
G02*
X144190000Y-107100000I-150000J0D01*
G01*
G37*
G36*
G01*
X145460000Y-107100000D02*
X145160000Y-107100000D01*
G75*
G02*
X145010000Y-106950000I0J150000D01*
G01*
X145010000Y-105300000D01*
G75*
G02*
X145160000Y-105150000I150000J0D01*
G01*
X145460000Y-105150000D01*
G75*
G02*
X145610000Y-105300000I0J-150000D01*
G01*
X145610000Y-106950000D01*
G75*
G02*
X145460000Y-107100000I-150000J0D01*
G01*
G37*
G36*
G01*
X145460000Y-112050000D02*
X145160000Y-112050000D01*
G75*
G02*
X145010000Y-111900000I0J150000D01*
G01*
X145010000Y-110250000D01*
G75*
G02*
X145160000Y-110100000I150000J0D01*
G01*
X145460000Y-110100000D01*
G75*
G02*
X145610000Y-110250000I0J-150000D01*
G01*
X145610000Y-111900000D01*
G75*
G02*
X145460000Y-112050000I-150000J0D01*
G01*
G37*
G36*
G01*
X144190000Y-112050000D02*
X143890000Y-112050000D01*
G75*
G02*
X143740000Y-111900000I0J150000D01*
G01*
X143740000Y-110250000D01*
G75*
G02*
X143890000Y-110100000I150000J0D01*
G01*
X144190000Y-110100000D01*
G75*
G02*
X144340000Y-110250000I0J-150000D01*
G01*
X144340000Y-111900000D01*
G75*
G02*
X144190000Y-112050000I-150000J0D01*
G01*
G37*
G36*
G01*
X142920000Y-112050000D02*
X142620000Y-112050000D01*
G75*
G02*
X142470000Y-111900000I0J150000D01*
G01*
X142470000Y-110250000D01*
G75*
G02*
X142620000Y-110100000I150000J0D01*
G01*
X142920000Y-110100000D01*
G75*
G02*
X143070000Y-110250000I0J-150000D01*
G01*
X143070000Y-111900000D01*
G75*
G02*
X142920000Y-112050000I-150000J0D01*
G01*
G37*
G36*
G01*
X141650000Y-112050000D02*
X141350000Y-112050000D01*
G75*
G02*
X141200000Y-111900000I0J150000D01*
G01*
X141200000Y-110250000D01*
G75*
G02*
X141350000Y-110100000I150000J0D01*
G01*
X141650000Y-110100000D01*
G75*
G02*
X141800000Y-110250000I0J-150000D01*
G01*
X141800000Y-111900000D01*
G75*
G02*
X141650000Y-112050000I-150000J0D01*
G01*
G37*
G36*
G01*
X140380000Y-112050000D02*
X140080000Y-112050000D01*
G75*
G02*
X139930000Y-111900000I0J150000D01*
G01*
X139930000Y-110250000D01*
G75*
G02*
X140080000Y-110100000I150000J0D01*
G01*
X140380000Y-110100000D01*
G75*
G02*
X140530000Y-110250000I0J-150000D01*
G01*
X140530000Y-111900000D01*
G75*
G02*
X140380000Y-112050000I-150000J0D01*
G01*
G37*
G36*
G01*
X139110000Y-112050000D02*
X138810000Y-112050000D01*
G75*
G02*
X138660000Y-111900000I0J150000D01*
G01*
X138660000Y-110250000D01*
G75*
G02*
X138810000Y-110100000I150000J0D01*
G01*
X139110000Y-110100000D01*
G75*
G02*
X139260000Y-110250000I0J-150000D01*
G01*
X139260000Y-111900000D01*
G75*
G02*
X139110000Y-112050000I-150000J0D01*
G01*
G37*
G36*
G01*
X137840000Y-112050000D02*
X137540000Y-112050000D01*
G75*
G02*
X137390000Y-111900000I0J150000D01*
G01*
X137390000Y-110250000D01*
G75*
G02*
X137540000Y-110100000I150000J0D01*
G01*
X137840000Y-110100000D01*
G75*
G02*
X137990000Y-110250000I0J-150000D01*
G01*
X137990000Y-111900000D01*
G75*
G02*
X137840000Y-112050000I-150000J0D01*
G01*
G37*
D13*
X159100000Y-111000000D03*
X159100000Y-104300000D03*
G36*
G01*
X136574999Y-118900000D02*
X137825001Y-118900000D01*
G75*
G02*
X138075000Y-119149999I0J-249999D01*
G01*
X138075000Y-119950001D01*
G75*
G02*
X137825001Y-120200000I-249999J0D01*
G01*
X136574999Y-120200000D01*
G75*
G02*
X136325000Y-119950001I0J249999D01*
G01*
X136325000Y-119149999D01*
G75*
G02*
X136574999Y-118900000I249999J0D01*
G01*
G37*
G36*
G01*
X136574999Y-115800000D02*
X137825001Y-115800000D01*
G75*
G02*
X138075000Y-116049999I0J-249999D01*
G01*
X138075000Y-116850001D01*
G75*
G02*
X137825001Y-117100000I-249999J0D01*
G01*
X136574999Y-117100000D01*
G75*
G02*
X136325000Y-116850001I0J249999D01*
G01*
X136325000Y-116049999D01*
G75*
G02*
X136574999Y-115800000I249999J0D01*
G01*
G37*
D14*
X142020000Y-101540000D03*
X142020000Y-99000000D03*
X144560000Y-101540000D03*
X144560000Y-99000000D03*
X147100000Y-101540000D03*
D15*
X147100000Y-99000000D03*
D14*
X146400000Y-116520000D03*
D15*
X146400000Y-121600000D03*
D14*
X156100000Y-116420000D03*
D15*
X156100000Y-121500000D03*
D14*
X152100000Y-106120000D03*
D15*
X152100000Y-111200000D03*
D16*
X133500000Y-98750000D03*
X133500000Y-100650000D03*
X131300000Y-100650000D03*
X131300000Y-99700000D03*
X131300000Y-98750000D03*
D17*
X129100000Y-122120000D03*
X124020000Y-114500000D03*
X126560000Y-122120000D03*
X126560000Y-114500000D03*
X124020000Y-122120000D03*
D18*
X129100000Y-114500000D03*
G36*
G01*
X139274999Y-118800000D02*
X140525001Y-118800000D01*
G75*
G02*
X140775000Y-119049999I0J-249999D01*
G01*
X140775000Y-119850001D01*
G75*
G02*
X140525001Y-120100000I-249999J0D01*
G01*
X139274999Y-120100000D01*
G75*
G02*
X139025000Y-119850001I0J249999D01*
G01*
X139025000Y-119049999D01*
G75*
G02*
X139274999Y-118800000I249999J0D01*
G01*
G37*
G36*
G01*
X139274999Y-115700000D02*
X140525001Y-115700000D01*
G75*
G02*
X140775000Y-115949999I0J-249999D01*
G01*
X140775000Y-116750001D01*
G75*
G02*
X140525001Y-117000000I-249999J0D01*
G01*
X139274999Y-117000000D01*
G75*
G02*
X139025000Y-116750001I0J249999D01*
G01*
X139025000Y-115949999D01*
G75*
G02*
X139274999Y-115700000I249999J0D01*
G01*
G37*
G36*
G01*
X153500000Y-102525001D02*
X153500000Y-101274999D01*
G75*
G02*
X153749999Y-101025000I249999J0D01*
G01*
X154550001Y-101025000D01*
G75*
G02*
X154800000Y-101274999I0J-249999D01*
G01*
X154800000Y-102525001D01*
G75*
G02*
X154550001Y-102775000I-249999J0D01*
G01*
X153749999Y-102775000D01*
G75*
G02*
X153500000Y-102525001I0J249999D01*
G01*
G37*
G36*
G01*
X150400000Y-102525001D02*
X150400000Y-101274999D01*
G75*
G02*
X150649999Y-101025000I249999J0D01*
G01*
X151450001Y-101025000D01*
G75*
G02*
X151700000Y-101274999I0J-249999D01*
G01*
X151700000Y-102525001D01*
G75*
G02*
X151450001Y-102775000I-249999J0D01*
G01*
X150649999Y-102775000D01*
G75*
G02*
X150400000Y-102525001I0J249999D01*
G01*
G37*
G36*
G01*
X134925001Y-117100000D02*
X133674999Y-117100000D01*
G75*
G02*
X133425000Y-116850001I0J249999D01*
G01*
X133425000Y-116049999D01*
G75*
G02*
X133674999Y-115800000I249999J0D01*
G01*
X134925001Y-115800000D01*
G75*
G02*
X135175000Y-116049999I0J-249999D01*
G01*
X135175000Y-116850001D01*
G75*
G02*
X134925001Y-117100000I-249999J0D01*
G01*
G37*
G36*
G01*
X134925001Y-120200000D02*
X133674999Y-120200000D01*
G75*
G02*
X133425000Y-119950001I0J249999D01*
G01*
X133425000Y-119149999D01*
G75*
G02*
X133674999Y-118900000I249999J0D01*
G01*
X134925001Y-118900000D01*
G75*
G02*
X135175000Y-119149999I0J-249999D01*
G01*
X135175000Y-119950001D01*
G75*
G02*
X134925001Y-120200000I-249999J0D01*
G01*
G37*
G36*
G01*
X128200000Y-108774999D02*
X128200000Y-110025001D01*
G75*
G02*
X127950001Y-110275000I-249999J0D01*
G01*
X127149999Y-110275000D01*
G75*
G02*
X126900000Y-110025001I0J249999D01*
G01*
X126900000Y-108774999D01*
G75*
G02*
X127149999Y-108525000I249999J0D01*
G01*
X127950001Y-108525000D01*
G75*
G02*
X128200000Y-108774999I0J-249999D01*
G01*
G37*
G36*
G01*
X131300000Y-108774999D02*
X131300000Y-110025001D01*
G75*
G02*
X131050001Y-110275000I-249999J0D01*
G01*
X130249999Y-110275000D01*
G75*
G02*
X130000000Y-110025001I0J249999D01*
G01*
X130000000Y-108774999D01*
G75*
G02*
X130249999Y-108525000I249999J0D01*
G01*
X131050001Y-108525000D01*
G75*
G02*
X131300000Y-108774999I0J-249999D01*
G01*
G37*
G36*
G01*
X124100000Y-110025001D02*
X124100000Y-108774999D01*
G75*
G02*
X124349999Y-108525000I249999J0D01*
G01*
X125150001Y-108525000D01*
G75*
G02*
X125400000Y-108774999I0J-249999D01*
G01*
X125400000Y-110025001D01*
G75*
G02*
X125150001Y-110275000I-249999J0D01*
G01*
X124349999Y-110275000D01*
G75*
G02*
X124100000Y-110025001I0J249999D01*
G01*
G37*
G36*
G01*
X121000000Y-110025001D02*
X121000000Y-108774999D01*
G75*
G02*
X121249999Y-108525000I249999J0D01*
G01*
X122050001Y-108525000D01*
G75*
G02*
X122300000Y-108774999I0J-249999D01*
G01*
X122300000Y-110025001D01*
G75*
G02*
X122050001Y-110275000I-249999J0D01*
G01*
X121249999Y-110275000D01*
G75*
G02*
X121000000Y-110025001I0J249999D01*
G01*
G37*
G36*
G01*
X128200000Y-106074999D02*
X128200000Y-107325001D01*
G75*
G02*
X127950001Y-107575000I-249999J0D01*
G01*
X127149999Y-107575000D01*
G75*
G02*
X126900000Y-107325001I0J249999D01*
G01*
X126900000Y-106074999D01*
G75*
G02*
X127149999Y-105825000I249999J0D01*
G01*
X127950001Y-105825000D01*
G75*
G02*
X128200000Y-106074999I0J-249999D01*
G01*
G37*
G36*
G01*
X131300000Y-106074999D02*
X131300000Y-107325001D01*
G75*
G02*
X131050001Y-107575000I-249999J0D01*
G01*
X130249999Y-107575000D01*
G75*
G02*
X130000000Y-107325001I0J249999D01*
G01*
X130000000Y-106074999D01*
G75*
G02*
X130249999Y-105825000I249999J0D01*
G01*
X131050001Y-105825000D01*
G75*
G02*
X131300000Y-106074999I0J-249999D01*
G01*
G37*
G36*
G01*
X124100000Y-107325001D02*
X124100000Y-106074999D01*
G75*
G02*
X124349999Y-105825000I249999J0D01*
G01*
X125150001Y-105825000D01*
G75*
G02*
X125400000Y-106074999I0J-249999D01*
G01*
X125400000Y-107325001D01*
G75*
G02*
X125150001Y-107575000I-249999J0D01*
G01*
X124349999Y-107575000D01*
G75*
G02*
X124100000Y-107325001I0J249999D01*
G01*
G37*
G36*
G01*
X121000000Y-107325001D02*
X121000000Y-106074999D01*
G75*
G02*
X121249999Y-105825000I249999J0D01*
G01*
X122050001Y-105825000D01*
G75*
G02*
X122300000Y-106074999I0J-249999D01*
G01*
X122300000Y-107325001D01*
G75*
G02*
X122050001Y-107575000I-249999J0D01*
G01*
X121249999Y-107575000D01*
G75*
G02*
X121000000Y-107325001I0J249999D01*
G01*
G37*
G36*
G01*
X133300000Y-103950002D02*
X133300000Y-102649998D01*
G75*
G02*
X133549998Y-102400000I249998J0D01*
G01*
X134375002Y-102400000D01*
G75*
G02*
X134625000Y-102649998I0J-249998D01*
G01*
X134625000Y-103950002D01*
G75*
G02*
X134375002Y-104200000I-249998J0D01*
G01*
X133549998Y-104200000D01*
G75*
G02*
X133300000Y-103950002I0J249998D01*
G01*
G37*
G36*
G01*
X130175000Y-103950002D02*
X130175000Y-102649998D01*
G75*
G02*
X130424998Y-102400000I249998J0D01*
G01*
X131250002Y-102400000D01*
G75*
G02*
X131500000Y-102649998I0J-249998D01*
G01*
X131500000Y-103950002D01*
G75*
G02*
X131250002Y-104200000I-249998J0D01*
G01*
X130424998Y-104200000D01*
G75*
G02*
X130175000Y-103950002I0J249998D01*
G01*
G37*
M02*
