G04 #@! TF.GenerationSoftware,KiCad,Pcbnew,5.1.9*
G04 #@! TF.CreationDate,2021-01-23T21:46:40+01:00*
G04 #@! TF.ProjectId,qc_attiny,71635f61-7474-4696-9e79-2e6b69636164,rev?*
G04 #@! TF.SameCoordinates,Original*
G04 #@! TF.FileFunction,Soldermask,Bot*
G04 #@! TF.FilePolarity,Negative*
%FSLAX46Y46*%
G04 Gerber Fmt 4.6, Leading zero omitted, Abs format (unit mm)*
G04 Created by KiCad (PCBNEW 5.1.9) date 2021-01-23 21:46:40*
%MOMM*%
%LPD*%
G01*
G04 APERTURE LIST*
%ADD10C,1.600000*%
%ADD11O,3.500000X1.900000*%
%ADD12C,1.100000*%
%ADD13O,1.700000X1.700000*%
%ADD14R,1.700000X1.700000*%
%ADD15O,1.600000X1.600000*%
%ADD16R,1.600000X1.600000*%
G04 APERTURE END LIST*
D10*
X117100000Y-108300000D03*
X117100000Y-106300000D03*
X117100000Y-110800000D03*
X117100000Y-103800000D03*
D11*
X114350000Y-113000000D03*
X114350000Y-101600000D03*
D12*
X114350000Y-109600000D03*
X114350000Y-105000000D03*
D13*
X142020000Y-101540000D03*
X142020000Y-99000000D03*
X144560000Y-101540000D03*
X144560000Y-99000000D03*
X147100000Y-101540000D03*
D14*
X147100000Y-99000000D03*
D13*
X146400000Y-116520000D03*
D14*
X146400000Y-121600000D03*
D13*
X156100000Y-116420000D03*
D14*
X156100000Y-121500000D03*
D13*
X152100000Y-106120000D03*
D14*
X152100000Y-111200000D03*
D15*
X129100000Y-122120000D03*
X124020000Y-114500000D03*
X126560000Y-122120000D03*
X126560000Y-114500000D03*
X124020000Y-122120000D03*
D16*
X129100000Y-114500000D03*
G36*
G01*
X143625001Y-117000000D02*
X142374999Y-117000000D01*
G75*
G02*
X142125000Y-116750001I0J249999D01*
G01*
X142125000Y-115949999D01*
G75*
G02*
X142374999Y-115700000I249999J0D01*
G01*
X143625001Y-115700000D01*
G75*
G02*
X143875000Y-115949999I0J-249999D01*
G01*
X143875000Y-116750001D01*
G75*
G02*
X143625001Y-117000000I-249999J0D01*
G01*
G37*
G36*
G01*
X143625001Y-120100000D02*
X142374999Y-120100000D01*
G75*
G02*
X142125000Y-119850001I0J249999D01*
G01*
X142125000Y-119049999D01*
G75*
G02*
X142374999Y-118800000I249999J0D01*
G01*
X143625001Y-118800000D01*
G75*
G02*
X143875000Y-119049999I0J-249999D01*
G01*
X143875000Y-119850001D01*
G75*
G02*
X143625001Y-120100000I-249999J0D01*
G01*
G37*
G36*
G01*
X153000000Y-117025001D02*
X153000000Y-115774999D01*
G75*
G02*
X153249999Y-115525000I249999J0D01*
G01*
X154050001Y-115525000D01*
G75*
G02*
X154300000Y-115774999I0J-249999D01*
G01*
X154300000Y-117025001D01*
G75*
G02*
X154050001Y-117275000I-249999J0D01*
G01*
X153249999Y-117275000D01*
G75*
G02*
X153000000Y-117025001I0J249999D01*
G01*
G37*
G36*
G01*
X149900000Y-117025001D02*
X149900000Y-115774999D01*
G75*
G02*
X150149999Y-115525000I249999J0D01*
G01*
X150950001Y-115525000D01*
G75*
G02*
X151200000Y-115774999I0J-249999D01*
G01*
X151200000Y-117025001D01*
G75*
G02*
X150950001Y-117275000I-249999J0D01*
G01*
X150149999Y-117275000D01*
G75*
G02*
X149900000Y-117025001I0J249999D01*
G01*
G37*
G36*
G01*
X137049998Y-109400000D02*
X138350002Y-109400000D01*
G75*
G02*
X138600000Y-109649998I0J-249998D01*
G01*
X138600000Y-110475002D01*
G75*
G02*
X138350002Y-110725000I-249998J0D01*
G01*
X137049998Y-110725000D01*
G75*
G02*
X136800000Y-110475002I0J249998D01*
G01*
X136800000Y-109649998D01*
G75*
G02*
X137049998Y-109400000I249998J0D01*
G01*
G37*
G36*
G01*
X137049998Y-106275000D02*
X138350002Y-106275000D01*
G75*
G02*
X138600000Y-106524998I0J-249998D01*
G01*
X138600000Y-107350002D01*
G75*
G02*
X138350002Y-107600000I-249998J0D01*
G01*
X137049998Y-107600000D01*
G75*
G02*
X136800000Y-107350002I0J249998D01*
G01*
X136800000Y-106524998D01*
G75*
G02*
X137049998Y-106275000I249998J0D01*
G01*
G37*
M02*
