G04 #@! TF.GenerationSoftware,KiCad,Pcbnew,5.1.9*
G04 #@! TF.CreationDate,2020-12-27T16:23:41+01:00*
G04 #@! TF.ProjectId,qc_attiny,71635f61-7474-4696-9e79-2e6b69636164,rev?*
G04 #@! TF.SameCoordinates,Original*
G04 #@! TF.FileFunction,Copper,L1,Top*
G04 #@! TF.FilePolarity,Positive*
%FSLAX46Y46*%
G04 Gerber Fmt 4.6, Leading zero omitted, Abs format (unit mm)*
G04 Created by KiCad (PCBNEW 5.1.9) date 2020-12-27 16:23:41*
%MOMM*%
%LPD*%
G01*
G04 APERTURE LIST*
G04 #@! TA.AperFunction,SMDPad,CuDef*
%ADD10R,3.000000X3.000000*%
G04 #@! TD*
G04 #@! TA.AperFunction,ComponentPad*
%ADD11O,1.700000X1.700000*%
G04 #@! TD*
G04 #@! TA.AperFunction,ComponentPad*
%ADD12R,1.700000X1.700000*%
G04 #@! TD*
G04 #@! TA.AperFunction,SMDPad,CuDef*
%ADD13R,1.060000X0.650000*%
G04 #@! TD*
G04 #@! TA.AperFunction,ComponentPad*
%ADD14O,1.600000X1.600000*%
G04 #@! TD*
G04 #@! TA.AperFunction,ComponentPad*
%ADD15R,1.600000X1.600000*%
G04 #@! TD*
G04 #@! TA.AperFunction,ComponentPad*
%ADD16C,1.600000*%
G04 #@! TD*
G04 #@! TA.AperFunction,ComponentPad*
%ADD17R,1.500000X1.600000*%
G04 #@! TD*
G04 #@! TA.AperFunction,ComponentPad*
%ADD18C,3.000000*%
G04 #@! TD*
G04 #@! TA.AperFunction,ViaPad*
%ADD19C,0.800000*%
G04 #@! TD*
G04 #@! TA.AperFunction,ViaPad*
%ADD20C,1.200000*%
G04 #@! TD*
G04 #@! TA.AperFunction,Conductor*
%ADD21C,0.250000*%
G04 #@! TD*
G04 #@! TA.AperFunction,Conductor*
%ADD22C,0.500000*%
G04 #@! TD*
G04 #@! TA.AperFunction,Conductor*
%ADD23C,0.254000*%
G04 #@! TD*
G04 #@! TA.AperFunction,Conductor*
%ADD24C,0.100000*%
G04 #@! TD*
G04 APERTURE END LIST*
G04 #@! TA.AperFunction,SMDPad,CuDef*
G36*
G01*
X137840000Y-107100000D02*
X137540000Y-107100000D01*
G75*
G02*
X137390000Y-106950000I0J150000D01*
G01*
X137390000Y-105300000D01*
G75*
G02*
X137540000Y-105150000I150000J0D01*
G01*
X137840000Y-105150000D01*
G75*
G02*
X137990000Y-105300000I0J-150000D01*
G01*
X137990000Y-106950000D01*
G75*
G02*
X137840000Y-107100000I-150000J0D01*
G01*
G37*
G04 #@! TD.AperFunction*
G04 #@! TA.AperFunction,SMDPad,CuDef*
G36*
G01*
X139110000Y-107100000D02*
X138810000Y-107100000D01*
G75*
G02*
X138660000Y-106950000I0J150000D01*
G01*
X138660000Y-105300000D01*
G75*
G02*
X138810000Y-105150000I150000J0D01*
G01*
X139110000Y-105150000D01*
G75*
G02*
X139260000Y-105300000I0J-150000D01*
G01*
X139260000Y-106950000D01*
G75*
G02*
X139110000Y-107100000I-150000J0D01*
G01*
G37*
G04 #@! TD.AperFunction*
G04 #@! TA.AperFunction,SMDPad,CuDef*
G36*
G01*
X140380000Y-107100000D02*
X140080000Y-107100000D01*
G75*
G02*
X139930000Y-106950000I0J150000D01*
G01*
X139930000Y-105300000D01*
G75*
G02*
X140080000Y-105150000I150000J0D01*
G01*
X140380000Y-105150000D01*
G75*
G02*
X140530000Y-105300000I0J-150000D01*
G01*
X140530000Y-106950000D01*
G75*
G02*
X140380000Y-107100000I-150000J0D01*
G01*
G37*
G04 #@! TD.AperFunction*
G04 #@! TA.AperFunction,SMDPad,CuDef*
G36*
G01*
X141650000Y-107100000D02*
X141350000Y-107100000D01*
G75*
G02*
X141200000Y-106950000I0J150000D01*
G01*
X141200000Y-105300000D01*
G75*
G02*
X141350000Y-105150000I150000J0D01*
G01*
X141650000Y-105150000D01*
G75*
G02*
X141800000Y-105300000I0J-150000D01*
G01*
X141800000Y-106950000D01*
G75*
G02*
X141650000Y-107100000I-150000J0D01*
G01*
G37*
G04 #@! TD.AperFunction*
G04 #@! TA.AperFunction,SMDPad,CuDef*
G36*
G01*
X142920000Y-107100000D02*
X142620000Y-107100000D01*
G75*
G02*
X142470000Y-106950000I0J150000D01*
G01*
X142470000Y-105300000D01*
G75*
G02*
X142620000Y-105150000I150000J0D01*
G01*
X142920000Y-105150000D01*
G75*
G02*
X143070000Y-105300000I0J-150000D01*
G01*
X143070000Y-106950000D01*
G75*
G02*
X142920000Y-107100000I-150000J0D01*
G01*
G37*
G04 #@! TD.AperFunction*
G04 #@! TA.AperFunction,SMDPad,CuDef*
G36*
G01*
X144190000Y-107100000D02*
X143890000Y-107100000D01*
G75*
G02*
X143740000Y-106950000I0J150000D01*
G01*
X143740000Y-105300000D01*
G75*
G02*
X143890000Y-105150000I150000J0D01*
G01*
X144190000Y-105150000D01*
G75*
G02*
X144340000Y-105300000I0J-150000D01*
G01*
X144340000Y-106950000D01*
G75*
G02*
X144190000Y-107100000I-150000J0D01*
G01*
G37*
G04 #@! TD.AperFunction*
G04 #@! TA.AperFunction,SMDPad,CuDef*
G36*
G01*
X145460000Y-107100000D02*
X145160000Y-107100000D01*
G75*
G02*
X145010000Y-106950000I0J150000D01*
G01*
X145010000Y-105300000D01*
G75*
G02*
X145160000Y-105150000I150000J0D01*
G01*
X145460000Y-105150000D01*
G75*
G02*
X145610000Y-105300000I0J-150000D01*
G01*
X145610000Y-106950000D01*
G75*
G02*
X145460000Y-107100000I-150000J0D01*
G01*
G37*
G04 #@! TD.AperFunction*
G04 #@! TA.AperFunction,SMDPad,CuDef*
G36*
G01*
X145460000Y-112050000D02*
X145160000Y-112050000D01*
G75*
G02*
X145010000Y-111900000I0J150000D01*
G01*
X145010000Y-110250000D01*
G75*
G02*
X145160000Y-110100000I150000J0D01*
G01*
X145460000Y-110100000D01*
G75*
G02*
X145610000Y-110250000I0J-150000D01*
G01*
X145610000Y-111900000D01*
G75*
G02*
X145460000Y-112050000I-150000J0D01*
G01*
G37*
G04 #@! TD.AperFunction*
G04 #@! TA.AperFunction,SMDPad,CuDef*
G36*
G01*
X144190000Y-112050000D02*
X143890000Y-112050000D01*
G75*
G02*
X143740000Y-111900000I0J150000D01*
G01*
X143740000Y-110250000D01*
G75*
G02*
X143890000Y-110100000I150000J0D01*
G01*
X144190000Y-110100000D01*
G75*
G02*
X144340000Y-110250000I0J-150000D01*
G01*
X144340000Y-111900000D01*
G75*
G02*
X144190000Y-112050000I-150000J0D01*
G01*
G37*
G04 #@! TD.AperFunction*
G04 #@! TA.AperFunction,SMDPad,CuDef*
G36*
G01*
X142920000Y-112050000D02*
X142620000Y-112050000D01*
G75*
G02*
X142470000Y-111900000I0J150000D01*
G01*
X142470000Y-110250000D01*
G75*
G02*
X142620000Y-110100000I150000J0D01*
G01*
X142920000Y-110100000D01*
G75*
G02*
X143070000Y-110250000I0J-150000D01*
G01*
X143070000Y-111900000D01*
G75*
G02*
X142920000Y-112050000I-150000J0D01*
G01*
G37*
G04 #@! TD.AperFunction*
G04 #@! TA.AperFunction,SMDPad,CuDef*
G36*
G01*
X141650000Y-112050000D02*
X141350000Y-112050000D01*
G75*
G02*
X141200000Y-111900000I0J150000D01*
G01*
X141200000Y-110250000D01*
G75*
G02*
X141350000Y-110100000I150000J0D01*
G01*
X141650000Y-110100000D01*
G75*
G02*
X141800000Y-110250000I0J-150000D01*
G01*
X141800000Y-111900000D01*
G75*
G02*
X141650000Y-112050000I-150000J0D01*
G01*
G37*
G04 #@! TD.AperFunction*
G04 #@! TA.AperFunction,SMDPad,CuDef*
G36*
G01*
X140380000Y-112050000D02*
X140080000Y-112050000D01*
G75*
G02*
X139930000Y-111900000I0J150000D01*
G01*
X139930000Y-110250000D01*
G75*
G02*
X140080000Y-110100000I150000J0D01*
G01*
X140380000Y-110100000D01*
G75*
G02*
X140530000Y-110250000I0J-150000D01*
G01*
X140530000Y-111900000D01*
G75*
G02*
X140380000Y-112050000I-150000J0D01*
G01*
G37*
G04 #@! TD.AperFunction*
G04 #@! TA.AperFunction,SMDPad,CuDef*
G36*
G01*
X139110000Y-112050000D02*
X138810000Y-112050000D01*
G75*
G02*
X138660000Y-111900000I0J150000D01*
G01*
X138660000Y-110250000D01*
G75*
G02*
X138810000Y-110100000I150000J0D01*
G01*
X139110000Y-110100000D01*
G75*
G02*
X139260000Y-110250000I0J-150000D01*
G01*
X139260000Y-111900000D01*
G75*
G02*
X139110000Y-112050000I-150000J0D01*
G01*
G37*
G04 #@! TD.AperFunction*
G04 #@! TA.AperFunction,SMDPad,CuDef*
G36*
G01*
X137840000Y-112050000D02*
X137540000Y-112050000D01*
G75*
G02*
X137390000Y-111900000I0J150000D01*
G01*
X137390000Y-110250000D01*
G75*
G02*
X137540000Y-110100000I150000J0D01*
G01*
X137840000Y-110100000D01*
G75*
G02*
X137990000Y-110250000I0J-150000D01*
G01*
X137990000Y-111900000D01*
G75*
G02*
X137840000Y-112050000I-150000J0D01*
G01*
G37*
G04 #@! TD.AperFunction*
D10*
X159100000Y-111000000D03*
X159100000Y-104300000D03*
G04 #@! TA.AperFunction,SMDPad,CuDef*
G36*
G01*
X136575000Y-118900000D02*
X137825000Y-118900000D01*
G75*
G02*
X138075000Y-119150000I0J-250000D01*
G01*
X138075000Y-119950000D01*
G75*
G02*
X137825000Y-120200000I-250000J0D01*
G01*
X136575000Y-120200000D01*
G75*
G02*
X136325000Y-119950000I0J250000D01*
G01*
X136325000Y-119150000D01*
G75*
G02*
X136575000Y-118900000I250000J0D01*
G01*
G37*
G04 #@! TD.AperFunction*
G04 #@! TA.AperFunction,SMDPad,CuDef*
G36*
G01*
X136575000Y-115800000D02*
X137825000Y-115800000D01*
G75*
G02*
X138075000Y-116050000I0J-250000D01*
G01*
X138075000Y-116850000D01*
G75*
G02*
X137825000Y-117100000I-250000J0D01*
G01*
X136575000Y-117100000D01*
G75*
G02*
X136325000Y-116850000I0J250000D01*
G01*
X136325000Y-116050000D01*
G75*
G02*
X136575000Y-115800000I250000J0D01*
G01*
G37*
G04 #@! TD.AperFunction*
G04 #@! TA.AperFunction,SMDPad,CuDef*
G36*
G01*
X138325000Y-122237500D02*
X138325000Y-121762500D01*
G75*
G02*
X138562500Y-121525000I237500J0D01*
G01*
X139062500Y-121525000D01*
G75*
G02*
X139300000Y-121762500I0J-237500D01*
G01*
X139300000Y-122237500D01*
G75*
G02*
X139062500Y-122475000I-237500J0D01*
G01*
X138562500Y-122475000D01*
G75*
G02*
X138325000Y-122237500I0J237500D01*
G01*
G37*
G04 #@! TD.AperFunction*
G04 #@! TA.AperFunction,SMDPad,CuDef*
G36*
G01*
X136500000Y-122237500D02*
X136500000Y-121762500D01*
G75*
G02*
X136737500Y-121525000I237500J0D01*
G01*
X137237500Y-121525000D01*
G75*
G02*
X137475000Y-121762500I0J-237500D01*
G01*
X137475000Y-122237500D01*
G75*
G02*
X137237500Y-122475000I-237500J0D01*
G01*
X136737500Y-122475000D01*
G75*
G02*
X136500000Y-122237500I0J237500D01*
G01*
G37*
G04 #@! TD.AperFunction*
D11*
X142020000Y-101540000D03*
X142020000Y-99000000D03*
X144560000Y-101540000D03*
X144560000Y-99000000D03*
X147100000Y-101540000D03*
D12*
X147100000Y-99000000D03*
X146400000Y-121600000D03*
D11*
X146400000Y-116520000D03*
D12*
X156100000Y-121500000D03*
D11*
X156100000Y-116420000D03*
D12*
X152100000Y-111200000D03*
D11*
X152100000Y-106120000D03*
D13*
X133500000Y-98750000D03*
X133500000Y-100650000D03*
X131300000Y-100650000D03*
X131300000Y-99700000D03*
X131300000Y-98750000D03*
D14*
X129100000Y-122120000D03*
X124020000Y-114500000D03*
X126560000Y-122120000D03*
X126560000Y-114500000D03*
X124020000Y-122120000D03*
D15*
X129100000Y-114500000D03*
G04 #@! TA.AperFunction,SMDPad,CuDef*
G36*
G01*
X139275000Y-118800000D02*
X140525000Y-118800000D01*
G75*
G02*
X140775000Y-119050000I0J-250000D01*
G01*
X140775000Y-119850000D01*
G75*
G02*
X140525000Y-120100000I-250000J0D01*
G01*
X139275000Y-120100000D01*
G75*
G02*
X139025000Y-119850000I0J250000D01*
G01*
X139025000Y-119050000D01*
G75*
G02*
X139275000Y-118800000I250000J0D01*
G01*
G37*
G04 #@! TD.AperFunction*
G04 #@! TA.AperFunction,SMDPad,CuDef*
G36*
G01*
X139275000Y-115700000D02*
X140525000Y-115700000D01*
G75*
G02*
X140775000Y-115950000I0J-250000D01*
G01*
X140775000Y-116750000D01*
G75*
G02*
X140525000Y-117000000I-250000J0D01*
G01*
X139275000Y-117000000D01*
G75*
G02*
X139025000Y-116750000I0J250000D01*
G01*
X139025000Y-115950000D01*
G75*
G02*
X139275000Y-115700000I250000J0D01*
G01*
G37*
G04 #@! TD.AperFunction*
G04 #@! TA.AperFunction,SMDPad,CuDef*
G36*
G01*
X153500000Y-102525000D02*
X153500000Y-101275000D01*
G75*
G02*
X153750000Y-101025000I250000J0D01*
G01*
X154550000Y-101025000D01*
G75*
G02*
X154800000Y-101275000I0J-250000D01*
G01*
X154800000Y-102525000D01*
G75*
G02*
X154550000Y-102775000I-250000J0D01*
G01*
X153750000Y-102775000D01*
G75*
G02*
X153500000Y-102525000I0J250000D01*
G01*
G37*
G04 #@! TD.AperFunction*
G04 #@! TA.AperFunction,SMDPad,CuDef*
G36*
G01*
X150400000Y-102525000D02*
X150400000Y-101275000D01*
G75*
G02*
X150650000Y-101025000I250000J0D01*
G01*
X151450000Y-101025000D01*
G75*
G02*
X151700000Y-101275000I0J-250000D01*
G01*
X151700000Y-102525000D01*
G75*
G02*
X151450000Y-102775000I-250000J0D01*
G01*
X150650000Y-102775000D01*
G75*
G02*
X150400000Y-102525000I0J250000D01*
G01*
G37*
G04 #@! TD.AperFunction*
G04 #@! TA.AperFunction,SMDPad,CuDef*
G36*
G01*
X134925000Y-117100000D02*
X133675000Y-117100000D01*
G75*
G02*
X133425000Y-116850000I0J250000D01*
G01*
X133425000Y-116050000D01*
G75*
G02*
X133675000Y-115800000I250000J0D01*
G01*
X134925000Y-115800000D01*
G75*
G02*
X135175000Y-116050000I0J-250000D01*
G01*
X135175000Y-116850000D01*
G75*
G02*
X134925000Y-117100000I-250000J0D01*
G01*
G37*
G04 #@! TD.AperFunction*
G04 #@! TA.AperFunction,SMDPad,CuDef*
G36*
G01*
X134925000Y-120200000D02*
X133675000Y-120200000D01*
G75*
G02*
X133425000Y-119950000I0J250000D01*
G01*
X133425000Y-119150000D01*
G75*
G02*
X133675000Y-118900000I250000J0D01*
G01*
X134925000Y-118900000D01*
G75*
G02*
X135175000Y-119150000I0J-250000D01*
G01*
X135175000Y-119950000D01*
G75*
G02*
X134925000Y-120200000I-250000J0D01*
G01*
G37*
G04 #@! TD.AperFunction*
G04 #@! TA.AperFunction,SMDPad,CuDef*
G36*
G01*
X128200000Y-108775000D02*
X128200000Y-110025000D01*
G75*
G02*
X127950000Y-110275000I-250000J0D01*
G01*
X127150000Y-110275000D01*
G75*
G02*
X126900000Y-110025000I0J250000D01*
G01*
X126900000Y-108775000D01*
G75*
G02*
X127150000Y-108525000I250000J0D01*
G01*
X127950000Y-108525000D01*
G75*
G02*
X128200000Y-108775000I0J-250000D01*
G01*
G37*
G04 #@! TD.AperFunction*
G04 #@! TA.AperFunction,SMDPad,CuDef*
G36*
G01*
X131300000Y-108775000D02*
X131300000Y-110025000D01*
G75*
G02*
X131050000Y-110275000I-250000J0D01*
G01*
X130250000Y-110275000D01*
G75*
G02*
X130000000Y-110025000I0J250000D01*
G01*
X130000000Y-108775000D01*
G75*
G02*
X130250000Y-108525000I250000J0D01*
G01*
X131050000Y-108525000D01*
G75*
G02*
X131300000Y-108775000I0J-250000D01*
G01*
G37*
G04 #@! TD.AperFunction*
G04 #@! TA.AperFunction,SMDPad,CuDef*
G36*
G01*
X124100000Y-110025000D02*
X124100000Y-108775000D01*
G75*
G02*
X124350000Y-108525000I250000J0D01*
G01*
X125150000Y-108525000D01*
G75*
G02*
X125400000Y-108775000I0J-250000D01*
G01*
X125400000Y-110025000D01*
G75*
G02*
X125150000Y-110275000I-250000J0D01*
G01*
X124350000Y-110275000D01*
G75*
G02*
X124100000Y-110025000I0J250000D01*
G01*
G37*
G04 #@! TD.AperFunction*
G04 #@! TA.AperFunction,SMDPad,CuDef*
G36*
G01*
X121000000Y-110025000D02*
X121000000Y-108775000D01*
G75*
G02*
X121250000Y-108525000I250000J0D01*
G01*
X122050000Y-108525000D01*
G75*
G02*
X122300000Y-108775000I0J-250000D01*
G01*
X122300000Y-110025000D01*
G75*
G02*
X122050000Y-110275000I-250000J0D01*
G01*
X121250000Y-110275000D01*
G75*
G02*
X121000000Y-110025000I0J250000D01*
G01*
G37*
G04 #@! TD.AperFunction*
G04 #@! TA.AperFunction,SMDPad,CuDef*
G36*
G01*
X128200000Y-106075000D02*
X128200000Y-107325000D01*
G75*
G02*
X127950000Y-107575000I-250000J0D01*
G01*
X127150000Y-107575000D01*
G75*
G02*
X126900000Y-107325000I0J250000D01*
G01*
X126900000Y-106075000D01*
G75*
G02*
X127150000Y-105825000I250000J0D01*
G01*
X127950000Y-105825000D01*
G75*
G02*
X128200000Y-106075000I0J-250000D01*
G01*
G37*
G04 #@! TD.AperFunction*
G04 #@! TA.AperFunction,SMDPad,CuDef*
G36*
G01*
X131300000Y-106075000D02*
X131300000Y-107325000D01*
G75*
G02*
X131050000Y-107575000I-250000J0D01*
G01*
X130250000Y-107575000D01*
G75*
G02*
X130000000Y-107325000I0J250000D01*
G01*
X130000000Y-106075000D01*
G75*
G02*
X130250000Y-105825000I250000J0D01*
G01*
X131050000Y-105825000D01*
G75*
G02*
X131300000Y-106075000I0J-250000D01*
G01*
G37*
G04 #@! TD.AperFunction*
G04 #@! TA.AperFunction,SMDPad,CuDef*
G36*
G01*
X124100000Y-107325000D02*
X124100000Y-106075000D01*
G75*
G02*
X124350000Y-105825000I250000J0D01*
G01*
X125150000Y-105825000D01*
G75*
G02*
X125400000Y-106075000I0J-250000D01*
G01*
X125400000Y-107325000D01*
G75*
G02*
X125150000Y-107575000I-250000J0D01*
G01*
X124350000Y-107575000D01*
G75*
G02*
X124100000Y-107325000I0J250000D01*
G01*
G37*
G04 #@! TD.AperFunction*
G04 #@! TA.AperFunction,SMDPad,CuDef*
G36*
G01*
X121000000Y-107325000D02*
X121000000Y-106075000D01*
G75*
G02*
X121250000Y-105825000I250000J0D01*
G01*
X122050000Y-105825000D01*
G75*
G02*
X122300000Y-106075000I0J-250000D01*
G01*
X122300000Y-107325000D01*
G75*
G02*
X122050000Y-107575000I-250000J0D01*
G01*
X121250000Y-107575000D01*
G75*
G02*
X121000000Y-107325000I0J250000D01*
G01*
G37*
G04 #@! TD.AperFunction*
D16*
X116800000Y-111000000D03*
X116800000Y-108500000D03*
X116800000Y-106500000D03*
D17*
X116800000Y-104000000D03*
D18*
X114090000Y-114070000D03*
X114090000Y-100930000D03*
G04 #@! TA.AperFunction,SMDPad,CuDef*
G36*
G01*
X133300000Y-103950001D02*
X133300000Y-102649999D01*
G75*
G02*
X133549999Y-102400000I249999J0D01*
G01*
X134375001Y-102400000D01*
G75*
G02*
X134625000Y-102649999I0J-249999D01*
G01*
X134625000Y-103950001D01*
G75*
G02*
X134375001Y-104200000I-249999J0D01*
G01*
X133549999Y-104200000D01*
G75*
G02*
X133300000Y-103950001I0J249999D01*
G01*
G37*
G04 #@! TD.AperFunction*
G04 #@! TA.AperFunction,SMDPad,CuDef*
G36*
G01*
X130175000Y-103950001D02*
X130175000Y-102649999D01*
G75*
G02*
X130424999Y-102400000I249999J0D01*
G01*
X131250001Y-102400000D01*
G75*
G02*
X131500000Y-102649999I0J-249999D01*
G01*
X131500000Y-103950001D01*
G75*
G02*
X131250001Y-104200000I-249999J0D01*
G01*
X130424999Y-104200000D01*
G75*
G02*
X130175000Y-103950001I0J249999D01*
G01*
G37*
G04 #@! TD.AperFunction*
G04 #@! TA.AperFunction,SMDPad,CuDef*
G36*
G01*
X138350001Y-99400000D02*
X137049999Y-99400000D01*
G75*
G02*
X136800000Y-99150001I0J249999D01*
G01*
X136800000Y-98324999D01*
G75*
G02*
X137049999Y-98075000I249999J0D01*
G01*
X138350001Y-98075000D01*
G75*
G02*
X138600000Y-98324999I0J-249999D01*
G01*
X138600000Y-99150001D01*
G75*
G02*
X138350001Y-99400000I-249999J0D01*
G01*
G37*
G04 #@! TD.AperFunction*
G04 #@! TA.AperFunction,SMDPad,CuDef*
G36*
G01*
X138350001Y-102525000D02*
X137049999Y-102525000D01*
G75*
G02*
X136800000Y-102275001I0J249999D01*
G01*
X136800000Y-101449999D01*
G75*
G02*
X137049999Y-101200000I249999J0D01*
G01*
X138350001Y-101200000D01*
G75*
G02*
X138600000Y-101449999I0J-249999D01*
G01*
X138600000Y-102275001D01*
G75*
G02*
X138350001Y-102525000I-249999J0D01*
G01*
G37*
G04 #@! TD.AperFunction*
D19*
X135300000Y-122100000D03*
X137700000Y-97500000D03*
D20*
X133900000Y-110900000D03*
X137800000Y-113200000D03*
D19*
X137700000Y-103800000D03*
X129500000Y-99700000D03*
X129000000Y-103300000D03*
D20*
X155300000Y-113800000D03*
X157300000Y-118800000D03*
X159600000Y-116200000D03*
X159600000Y-118700000D03*
X159600000Y-121700000D03*
X116600000Y-115600000D03*
X119500000Y-115600000D03*
X119600000Y-111100000D03*
X155300000Y-111200000D03*
D19*
X126200000Y-108800000D03*
X126200000Y-107300000D03*
X142400000Y-104200000D03*
X143200000Y-108400000D03*
X141300000Y-113400000D03*
X139700000Y-113400000D03*
X145300000Y-108200000D03*
X144200000Y-109100000D03*
D21*
X137687500Y-98750000D02*
X137700000Y-98737500D01*
X133500000Y-98750000D02*
X137687500Y-98750000D01*
X137800000Y-111085000D02*
X137690000Y-110975000D01*
X137800000Y-113100000D02*
X137800000Y-111085000D01*
X136887500Y-122100000D02*
X136987500Y-122000000D01*
X135300000Y-122100000D02*
X136887500Y-122100000D01*
X137700000Y-97500000D02*
X137700000Y-97500000D01*
D22*
X137700000Y-98737500D02*
X137700000Y-97500000D01*
X137700000Y-97500000D02*
X149900000Y-97500000D01*
X151050000Y-98650000D02*
X151050000Y-101900000D01*
X149900000Y-97500000D02*
X151050000Y-98650000D01*
X147460000Y-101900000D02*
X147100000Y-101540000D01*
X151050000Y-101900000D02*
X147460000Y-101900000D01*
X133900000Y-110900000D02*
X136200000Y-113200000D01*
X137700000Y-113200000D02*
X137800000Y-113100000D01*
X136200000Y-113200000D02*
X137700000Y-113200000D01*
D21*
X137690000Y-103810000D02*
X137700000Y-103800000D01*
X137690000Y-106025000D02*
X137690000Y-103810000D01*
X130837500Y-103300000D02*
X129000000Y-103300000D01*
X131300000Y-99700000D02*
X129500000Y-99700000D01*
D22*
X137700000Y-103800000D02*
X137700000Y-101862500D01*
D21*
X133962500Y-101112500D02*
X133500000Y-100650000D01*
X133962500Y-103300000D02*
X133962500Y-101112500D01*
X126200000Y-109400000D02*
X126200000Y-108800000D01*
X124750000Y-109400000D02*
X126200000Y-109400000D01*
X126200000Y-109400000D02*
X127550000Y-109400000D01*
X126200000Y-106700000D02*
X126200000Y-107300000D01*
X124750000Y-106700000D02*
X126200000Y-106700000D01*
X126200000Y-106700000D02*
X127550000Y-106700000D01*
X123350000Y-105000000D02*
X121650000Y-106700000D01*
X131700000Y-105000000D02*
X123350000Y-105000000D01*
X134400000Y-107700000D02*
X131700000Y-105000000D01*
X138260000Y-107700000D02*
X134400000Y-107700000D01*
X138960000Y-107000000D02*
X138260000Y-107700000D01*
X138960000Y-106025000D02*
X138960000Y-107000000D01*
X130650000Y-106700000D02*
X132250000Y-108300000D01*
X140230000Y-107000000D02*
X140230000Y-106025000D01*
X138930000Y-108300000D02*
X140230000Y-107000000D01*
X132250000Y-108300000D02*
X138930000Y-108300000D01*
X142770000Y-107000000D02*
X140519990Y-109250010D01*
X142770000Y-106025000D02*
X142770000Y-107000000D01*
X140519990Y-109250010D02*
X133549990Y-109250010D01*
X133549990Y-109250010D02*
X131400000Y-111400000D01*
X123650000Y-111400000D02*
X121650000Y-109400000D01*
X131400000Y-111400000D02*
X123650000Y-111400000D01*
X141500000Y-107000000D02*
X139700000Y-108800000D01*
X141500000Y-106025000D02*
X141500000Y-107000000D01*
X131250000Y-108800000D02*
X130650000Y-109400000D01*
X139700000Y-108800000D02*
X131250000Y-108800000D01*
X134300000Y-116450000D02*
X134300000Y-116800000D01*
X134300000Y-116800000D02*
X133300000Y-117800000D01*
X133300000Y-117800000D02*
X125200000Y-117800000D01*
X124020000Y-116620000D02*
X124020000Y-114500000D01*
X125200000Y-117800000D02*
X124020000Y-116620000D01*
X143384999Y-102060000D02*
X143384999Y-100175001D01*
X143384999Y-100175001D02*
X144560000Y-99000000D01*
X144040000Y-102715001D02*
X143384999Y-102060000D01*
X144040000Y-106025000D02*
X144040000Y-102715001D01*
X144040000Y-105274315D02*
X144040000Y-106025000D01*
X142965685Y-104200000D02*
X144040000Y-105274315D01*
X142400000Y-104200000D02*
X142965685Y-104200000D01*
X137200000Y-116450000D02*
X135550000Y-114800000D01*
X135550000Y-114800000D02*
X132700000Y-114800000D01*
X132700000Y-114800000D02*
X130500000Y-117000000D01*
X130500000Y-117000000D02*
X127000000Y-117000000D01*
X126560000Y-116560000D02*
X126560000Y-114500000D01*
X127000000Y-117000000D02*
X126560000Y-116560000D01*
X145924999Y-100175001D02*
X147100000Y-99000000D01*
X145924999Y-105410001D02*
X145924999Y-100175001D01*
X145310000Y-106025000D02*
X145924999Y-105410001D01*
X145310000Y-106855685D02*
X145310000Y-106025000D01*
X143765685Y-108400000D02*
X145310000Y-106855685D01*
X143200000Y-108400000D02*
X143765685Y-108400000D01*
X140230000Y-112330000D02*
X140230000Y-110975000D01*
X141300000Y-113400000D02*
X140230000Y-112330000D01*
X138960000Y-111075000D02*
X138960000Y-112660000D01*
X138960000Y-112660000D02*
X139700000Y-113400000D01*
X139700000Y-113400000D02*
X139700000Y-113400000D01*
X139900000Y-116350000D02*
X139900000Y-115800000D01*
X129250010Y-114349990D02*
X129100000Y-114500000D01*
X138449990Y-114349990D02*
X129250010Y-114349990D01*
X139900000Y-115800000D02*
X138449990Y-114349990D01*
X140775000Y-116350000D02*
X144025000Y-113100000D01*
X139900000Y-116350000D02*
X140775000Y-116350000D01*
X144025000Y-113100000D02*
X145100000Y-113100000D01*
X145310000Y-112890000D02*
X145310000Y-110975000D01*
X145100000Y-113100000D02*
X145310000Y-112890000D01*
X145310000Y-108210000D02*
X145300000Y-108200000D01*
X145310000Y-110975000D02*
X145310000Y-108210000D01*
X141500000Y-110000000D02*
X142100000Y-109400000D01*
X141500000Y-110975000D02*
X141500000Y-110000000D01*
X143900000Y-109400000D02*
X144200000Y-109100000D01*
X142100000Y-109400000D02*
X143900000Y-109400000D01*
X152100000Y-106120000D02*
X154300000Y-103920000D01*
X154300000Y-102050000D02*
X154150000Y-101900000D01*
X154300000Y-103920000D02*
X154300000Y-102050000D01*
X134400000Y-119450000D02*
X134300000Y-119550000D01*
X139900000Y-119450000D02*
X134400000Y-119450000D01*
X139900000Y-120912500D02*
X138812500Y-122000000D01*
X139900000Y-119450000D02*
X139900000Y-120912500D01*
D22*
X131300000Y-98750000D02*
X123950000Y-98750000D01*
D23*
X161315000Y-106673000D02*
X156927000Y-106673000D01*
X156927000Y-105800000D01*
X156961928Y-105800000D01*
X156974188Y-105924482D01*
X157010498Y-106044180D01*
X157069463Y-106154494D01*
X157148815Y-106251185D01*
X157245506Y-106330537D01*
X157355820Y-106389502D01*
X157475518Y-106425812D01*
X157600000Y-106438072D01*
X158814250Y-106435000D01*
X158973000Y-106276250D01*
X158973000Y-104427000D01*
X159227000Y-104427000D01*
X159227000Y-106276250D01*
X159385750Y-106435000D01*
X160600000Y-106438072D01*
X160724482Y-106425812D01*
X160844180Y-106389502D01*
X160954494Y-106330537D01*
X161051185Y-106251185D01*
X161130537Y-106154494D01*
X161189502Y-106044180D01*
X161225812Y-105924482D01*
X161238072Y-105800000D01*
X161235000Y-104585750D01*
X161076250Y-104427000D01*
X159227000Y-104427000D01*
X158973000Y-104427000D01*
X157123750Y-104427000D01*
X156965000Y-104585750D01*
X156961928Y-105800000D01*
X156927000Y-105800000D01*
X156927000Y-102800000D01*
X156961928Y-102800000D01*
X156965000Y-104014250D01*
X157123750Y-104173000D01*
X158973000Y-104173000D01*
X158973000Y-102323750D01*
X159227000Y-102323750D01*
X159227000Y-104173000D01*
X161076250Y-104173000D01*
X161235000Y-104014250D01*
X161238072Y-102800000D01*
X161225812Y-102675518D01*
X161189502Y-102555820D01*
X161130537Y-102445506D01*
X161051185Y-102348815D01*
X160954494Y-102269463D01*
X160844180Y-102210498D01*
X160724482Y-102174188D01*
X160600000Y-102161928D01*
X159385750Y-102165000D01*
X159227000Y-102323750D01*
X158973000Y-102323750D01*
X158814250Y-102165000D01*
X157600000Y-102161928D01*
X157475518Y-102174188D01*
X157355820Y-102210498D01*
X157245506Y-102269463D01*
X157148815Y-102348815D01*
X157069463Y-102445506D01*
X157010498Y-102555820D01*
X156974188Y-102675518D01*
X156961928Y-102800000D01*
X156927000Y-102800000D01*
X156927000Y-99800000D01*
X156924560Y-99775224D01*
X156917333Y-99751399D01*
X156905597Y-99729443D01*
X156894398Y-99715041D01*
X154194398Y-96715041D01*
X154176010Y-96698258D01*
X154154700Y-96685384D01*
X154131289Y-96676915D01*
X154099412Y-96673001D01*
X150263417Y-96690760D01*
X150240313Y-96678411D01*
X150073490Y-96627805D01*
X149943477Y-96615000D01*
X149943469Y-96615000D01*
X149900000Y-96610719D01*
X149856531Y-96615000D01*
X138238454Y-96615000D01*
X138190256Y-96582795D01*
X138001898Y-96504774D01*
X137801939Y-96465000D01*
X137598061Y-96465000D01*
X137398102Y-96504774D01*
X137209744Y-96582795D01*
X137040226Y-96696063D01*
X136984050Y-96752239D01*
X132499628Y-96773000D01*
X127600000Y-96773000D01*
X127575224Y-96775440D01*
X127551399Y-96782667D01*
X127522795Y-96799161D01*
X121122795Y-101699161D01*
X121104606Y-101716161D01*
X121090083Y-101736382D01*
X121079784Y-101759048D01*
X121074104Y-101783288D01*
X121073000Y-101800000D01*
X121073000Y-104773000D01*
X118187911Y-104773000D01*
X118185000Y-104285750D01*
X118026250Y-104127000D01*
X116927000Y-104127000D01*
X116927000Y-104147000D01*
X116673000Y-104147000D01*
X116673000Y-104127000D01*
X116653000Y-104127000D01*
X116653000Y-103873000D01*
X116673000Y-103873000D01*
X116673000Y-102723750D01*
X116927000Y-102723750D01*
X116927000Y-103873000D01*
X118026250Y-103873000D01*
X118185000Y-103714250D01*
X118188072Y-103200000D01*
X118175812Y-103075518D01*
X118139502Y-102955820D01*
X118080537Y-102845506D01*
X118001185Y-102748815D01*
X117904494Y-102669463D01*
X117794180Y-102610498D01*
X117674482Y-102574188D01*
X117550000Y-102561928D01*
X117085750Y-102565000D01*
X116927000Y-102723750D01*
X116673000Y-102723750D01*
X116514250Y-102565000D01*
X116127000Y-102562438D01*
X116127000Y-101591270D01*
X116142953Y-101552756D01*
X116225000Y-101140279D01*
X116225000Y-100719721D01*
X116142953Y-100307244D01*
X116127000Y-100268730D01*
X116127000Y-97800000D01*
X116124560Y-97775224D01*
X116117333Y-97751399D01*
X116105597Y-97729443D01*
X116089803Y-97710197D01*
X116070557Y-97694403D01*
X116048601Y-97682667D01*
X116024776Y-97675440D01*
X116000000Y-97673000D01*
X112685000Y-97673000D01*
X112685000Y-90685000D01*
X161315000Y-90685000D01*
X161315000Y-106673000D01*
G04 #@! TA.AperFunction,Conductor*
D24*
G36*
X161315000Y-106673000D02*
G01*
X156927000Y-106673000D01*
X156927000Y-105800000D01*
X156961928Y-105800000D01*
X156974188Y-105924482D01*
X157010498Y-106044180D01*
X157069463Y-106154494D01*
X157148815Y-106251185D01*
X157245506Y-106330537D01*
X157355820Y-106389502D01*
X157475518Y-106425812D01*
X157600000Y-106438072D01*
X158814250Y-106435000D01*
X158973000Y-106276250D01*
X158973000Y-104427000D01*
X159227000Y-104427000D01*
X159227000Y-106276250D01*
X159385750Y-106435000D01*
X160600000Y-106438072D01*
X160724482Y-106425812D01*
X160844180Y-106389502D01*
X160954494Y-106330537D01*
X161051185Y-106251185D01*
X161130537Y-106154494D01*
X161189502Y-106044180D01*
X161225812Y-105924482D01*
X161238072Y-105800000D01*
X161235000Y-104585750D01*
X161076250Y-104427000D01*
X159227000Y-104427000D01*
X158973000Y-104427000D01*
X157123750Y-104427000D01*
X156965000Y-104585750D01*
X156961928Y-105800000D01*
X156927000Y-105800000D01*
X156927000Y-102800000D01*
X156961928Y-102800000D01*
X156965000Y-104014250D01*
X157123750Y-104173000D01*
X158973000Y-104173000D01*
X158973000Y-102323750D01*
X159227000Y-102323750D01*
X159227000Y-104173000D01*
X161076250Y-104173000D01*
X161235000Y-104014250D01*
X161238072Y-102800000D01*
X161225812Y-102675518D01*
X161189502Y-102555820D01*
X161130537Y-102445506D01*
X161051185Y-102348815D01*
X160954494Y-102269463D01*
X160844180Y-102210498D01*
X160724482Y-102174188D01*
X160600000Y-102161928D01*
X159385750Y-102165000D01*
X159227000Y-102323750D01*
X158973000Y-102323750D01*
X158814250Y-102165000D01*
X157600000Y-102161928D01*
X157475518Y-102174188D01*
X157355820Y-102210498D01*
X157245506Y-102269463D01*
X157148815Y-102348815D01*
X157069463Y-102445506D01*
X157010498Y-102555820D01*
X156974188Y-102675518D01*
X156961928Y-102800000D01*
X156927000Y-102800000D01*
X156927000Y-99800000D01*
X156924560Y-99775224D01*
X156917333Y-99751399D01*
X156905597Y-99729443D01*
X156894398Y-99715041D01*
X154194398Y-96715041D01*
X154176010Y-96698258D01*
X154154700Y-96685384D01*
X154131289Y-96676915D01*
X154099412Y-96673001D01*
X150263417Y-96690760D01*
X150240313Y-96678411D01*
X150073490Y-96627805D01*
X149943477Y-96615000D01*
X149943469Y-96615000D01*
X149900000Y-96610719D01*
X149856531Y-96615000D01*
X138238454Y-96615000D01*
X138190256Y-96582795D01*
X138001898Y-96504774D01*
X137801939Y-96465000D01*
X137598061Y-96465000D01*
X137398102Y-96504774D01*
X137209744Y-96582795D01*
X137040226Y-96696063D01*
X136984050Y-96752239D01*
X132499628Y-96773000D01*
X127600000Y-96773000D01*
X127575224Y-96775440D01*
X127551399Y-96782667D01*
X127522795Y-96799161D01*
X121122795Y-101699161D01*
X121104606Y-101716161D01*
X121090083Y-101736382D01*
X121079784Y-101759048D01*
X121074104Y-101783288D01*
X121073000Y-101800000D01*
X121073000Y-104773000D01*
X118187911Y-104773000D01*
X118185000Y-104285750D01*
X118026250Y-104127000D01*
X116927000Y-104127000D01*
X116927000Y-104147000D01*
X116673000Y-104147000D01*
X116673000Y-104127000D01*
X116653000Y-104127000D01*
X116653000Y-103873000D01*
X116673000Y-103873000D01*
X116673000Y-102723750D01*
X116927000Y-102723750D01*
X116927000Y-103873000D01*
X118026250Y-103873000D01*
X118185000Y-103714250D01*
X118188072Y-103200000D01*
X118175812Y-103075518D01*
X118139502Y-102955820D01*
X118080537Y-102845506D01*
X118001185Y-102748815D01*
X117904494Y-102669463D01*
X117794180Y-102610498D01*
X117674482Y-102574188D01*
X117550000Y-102561928D01*
X117085750Y-102565000D01*
X116927000Y-102723750D01*
X116673000Y-102723750D01*
X116514250Y-102565000D01*
X116127000Y-102562438D01*
X116127000Y-101591270D01*
X116142953Y-101552756D01*
X116225000Y-101140279D01*
X116225000Y-100719721D01*
X116142953Y-100307244D01*
X116127000Y-100268730D01*
X116127000Y-97800000D01*
X116124560Y-97775224D01*
X116117333Y-97751399D01*
X116105597Y-97729443D01*
X116089803Y-97710197D01*
X116070557Y-97694403D01*
X116048601Y-97682667D01*
X116024776Y-97675440D01*
X116000000Y-97673000D01*
X112685000Y-97673000D01*
X112685000Y-90685000D01*
X161315000Y-90685000D01*
X161315000Y-106673000D01*
G37*
G04 #@! TD.AperFunction*
D23*
X115365000Y-108641335D02*
X115420147Y-108918574D01*
X115528320Y-109179727D01*
X115685363Y-109414759D01*
X115885241Y-109614637D01*
X116085869Y-109748692D01*
X116058486Y-109763329D01*
X115986903Y-110007298D01*
X116800000Y-110820395D01*
X117613097Y-110007298D01*
X117541514Y-109763329D01*
X117512659Y-109749676D01*
X117714759Y-109614637D01*
X117914637Y-109414759D01*
X118071680Y-109179727D01*
X118179853Y-108918574D01*
X118235000Y-108641335D01*
X118235000Y-108627000D01*
X120376505Y-108627000D01*
X120361928Y-108775000D01*
X120361928Y-110025000D01*
X120378992Y-110198254D01*
X120429528Y-110364850D01*
X120511595Y-110518386D01*
X120622038Y-110652962D01*
X120756614Y-110763405D01*
X120910150Y-110845472D01*
X121076746Y-110896008D01*
X121250000Y-110913072D01*
X122050000Y-110913072D01*
X122084839Y-110909641D01*
X123086201Y-111911003D01*
X123109999Y-111940001D01*
X123138997Y-111963799D01*
X123225723Y-112034974D01*
X123340270Y-112096201D01*
X123357753Y-112105546D01*
X123501014Y-112149003D01*
X123612667Y-112160000D01*
X123612676Y-112160000D01*
X123649999Y-112163676D01*
X123687322Y-112160000D01*
X131362678Y-112160000D01*
X131400000Y-112163676D01*
X131437322Y-112160000D01*
X131437333Y-112160000D01*
X131548986Y-112149003D01*
X131692247Y-112105546D01*
X131824276Y-112034974D01*
X131940001Y-111940001D01*
X131963804Y-111910997D01*
X132696218Y-111178583D01*
X132712460Y-111260236D01*
X132805557Y-111484992D01*
X132940713Y-111687267D01*
X133112733Y-111859287D01*
X133315008Y-111994443D01*
X133539764Y-112087540D01*
X133778363Y-112135000D01*
X133883422Y-112135000D01*
X135338411Y-113589990D01*
X130527237Y-113589990D01*
X130525812Y-113575518D01*
X130489502Y-113455820D01*
X130430537Y-113345506D01*
X130351185Y-113248815D01*
X130254494Y-113169463D01*
X130144180Y-113110498D01*
X130024482Y-113074188D01*
X129900000Y-113061928D01*
X128300000Y-113061928D01*
X128175518Y-113074188D01*
X128055820Y-113110498D01*
X127945506Y-113169463D01*
X127848815Y-113248815D01*
X127769463Y-113345506D01*
X127710498Y-113455820D01*
X127674188Y-113575518D01*
X127673357Y-113583961D01*
X127474759Y-113385363D01*
X127239727Y-113228320D01*
X126978574Y-113120147D01*
X126701335Y-113065000D01*
X126418665Y-113065000D01*
X126141426Y-113120147D01*
X125880273Y-113228320D01*
X125645241Y-113385363D01*
X125445363Y-113585241D01*
X125290000Y-113817759D01*
X125134637Y-113585241D01*
X124934759Y-113385363D01*
X124699727Y-113228320D01*
X124438574Y-113120147D01*
X124161335Y-113065000D01*
X123878665Y-113065000D01*
X123601426Y-113120147D01*
X123340273Y-113228320D01*
X123105241Y-113385363D01*
X122905363Y-113585241D01*
X122748320Y-113820273D01*
X122640147Y-114081426D01*
X122585000Y-114358665D01*
X122585000Y-114641335D01*
X122640147Y-114918574D01*
X122748320Y-115179727D01*
X122905363Y-115414759D01*
X123105241Y-115614637D01*
X123260000Y-115718044D01*
X123260000Y-116582677D01*
X123256324Y-116620000D01*
X123260000Y-116657322D01*
X123260000Y-116657332D01*
X123270997Y-116768985D01*
X123302936Y-116874275D01*
X123314454Y-116912246D01*
X123385026Y-117044276D01*
X123406960Y-117071002D01*
X123479999Y-117160001D01*
X123509003Y-117183804D01*
X124636201Y-118311003D01*
X124659999Y-118340001D01*
X124688997Y-118363799D01*
X124775723Y-118434974D01*
X124907753Y-118505546D01*
X125051014Y-118549003D01*
X125162667Y-118560000D01*
X125162677Y-118560000D01*
X125199999Y-118563676D01*
X125237322Y-118560000D01*
X133015884Y-118560000D01*
X132936595Y-118656614D01*
X132854528Y-118810150D01*
X132803992Y-118976746D01*
X132786928Y-119150000D01*
X132786928Y-119950000D01*
X132803992Y-120123254D01*
X132854528Y-120289850D01*
X132936595Y-120443386D01*
X133047038Y-120577962D01*
X133181614Y-120688405D01*
X133335150Y-120770472D01*
X133501746Y-120821008D01*
X133675000Y-120838072D01*
X134925000Y-120838072D01*
X135098254Y-120821008D01*
X135264850Y-120770472D01*
X135418386Y-120688405D01*
X135552962Y-120577962D01*
X135663405Y-120443386D01*
X135745472Y-120289850D01*
X135750000Y-120274923D01*
X135754528Y-120289850D01*
X135836595Y-120443386D01*
X135947038Y-120577962D01*
X136081614Y-120688405D01*
X136235150Y-120770472D01*
X136401746Y-120821008D01*
X136575000Y-120838072D01*
X137825000Y-120838072D01*
X137998254Y-120821008D01*
X138164850Y-120770472D01*
X138318386Y-120688405D01*
X138452962Y-120577962D01*
X138563405Y-120443386D01*
X138585200Y-120402611D01*
X138647038Y-120477962D01*
X138781614Y-120588405D01*
X138935150Y-120670472D01*
X139036486Y-120701212D01*
X138850770Y-120886928D01*
X138562500Y-120886928D01*
X138391684Y-120903752D01*
X138227433Y-120953577D01*
X138076058Y-121034488D01*
X137943377Y-121143377D01*
X137900000Y-121196232D01*
X137856623Y-121143377D01*
X137723942Y-121034488D01*
X137572567Y-120953577D01*
X137408316Y-120903752D01*
X137237500Y-120886928D01*
X136737500Y-120886928D01*
X136566684Y-120903752D01*
X136402433Y-120953577D01*
X136251058Y-121034488D01*
X136118377Y-121143377D01*
X136009488Y-121276058D01*
X135985203Y-121321492D01*
X135959774Y-121296063D01*
X135790256Y-121182795D01*
X135601898Y-121104774D01*
X135401939Y-121065000D01*
X135198061Y-121065000D01*
X134998102Y-121104774D01*
X134809744Y-121182795D01*
X134640226Y-121296063D01*
X134496063Y-121440226D01*
X134382795Y-121609744D01*
X134304774Y-121798102D01*
X134265000Y-121998061D01*
X134265000Y-122201939D01*
X134304774Y-122401898D01*
X134382795Y-122590256D01*
X134496063Y-122759774D01*
X134640226Y-122903937D01*
X134809744Y-123017205D01*
X134998102Y-123095226D01*
X135198061Y-123135000D01*
X135401939Y-123135000D01*
X135601898Y-123095226D01*
X135790256Y-123017205D01*
X135959774Y-122903937D01*
X136003711Y-122860000D01*
X136122492Y-122860000D01*
X136251058Y-122965512D01*
X136402433Y-123046423D01*
X136566684Y-123096248D01*
X136737500Y-123113072D01*
X137237500Y-123113072D01*
X137408316Y-123096248D01*
X137572567Y-123046423D01*
X137723942Y-122965512D01*
X137856623Y-122856623D01*
X137900000Y-122803768D01*
X137943377Y-122856623D01*
X138076058Y-122965512D01*
X138227433Y-123046423D01*
X138391684Y-123096248D01*
X138562500Y-123113072D01*
X139062500Y-123113072D01*
X139233316Y-123096248D01*
X139397567Y-123046423D01*
X139548942Y-122965512D01*
X139681623Y-122856623D01*
X139790512Y-122723942D01*
X139871423Y-122572567D01*
X139908603Y-122450000D01*
X144911928Y-122450000D01*
X144924188Y-122574482D01*
X144960498Y-122694180D01*
X145019463Y-122804494D01*
X145098815Y-122901185D01*
X145195506Y-122980537D01*
X145305820Y-123039502D01*
X145425518Y-123075812D01*
X145550000Y-123088072D01*
X146114250Y-123085000D01*
X146273000Y-122926250D01*
X146273000Y-121727000D01*
X146527000Y-121727000D01*
X146527000Y-122926250D01*
X146685750Y-123085000D01*
X147250000Y-123088072D01*
X147374482Y-123075812D01*
X147494180Y-123039502D01*
X147604494Y-122980537D01*
X147701185Y-122901185D01*
X147780537Y-122804494D01*
X147839502Y-122694180D01*
X147875812Y-122574482D01*
X147888072Y-122450000D01*
X147887528Y-122350000D01*
X154611928Y-122350000D01*
X154624188Y-122474482D01*
X154660498Y-122594180D01*
X154719463Y-122704494D01*
X154798815Y-122801185D01*
X154895506Y-122880537D01*
X155005820Y-122939502D01*
X155125518Y-122975812D01*
X155250000Y-122988072D01*
X155814250Y-122985000D01*
X155973000Y-122826250D01*
X155973000Y-121627000D01*
X156227000Y-121627000D01*
X156227000Y-122826250D01*
X156385750Y-122985000D01*
X156950000Y-122988072D01*
X157074482Y-122975812D01*
X157194180Y-122939502D01*
X157304494Y-122880537D01*
X157401185Y-122801185D01*
X157480537Y-122704494D01*
X157539502Y-122594180D01*
X157575812Y-122474482D01*
X157588072Y-122350000D01*
X157585000Y-121785750D01*
X157426250Y-121627000D01*
X156227000Y-121627000D01*
X155973000Y-121627000D01*
X154773750Y-121627000D01*
X154615000Y-121785750D01*
X154611928Y-122350000D01*
X147887528Y-122350000D01*
X147885000Y-121885750D01*
X147726250Y-121727000D01*
X146527000Y-121727000D01*
X146273000Y-121727000D01*
X145073750Y-121727000D01*
X144915000Y-121885750D01*
X144911928Y-122450000D01*
X139908603Y-122450000D01*
X139921248Y-122408316D01*
X139938072Y-122237500D01*
X139938072Y-121949230D01*
X140411003Y-121476299D01*
X140440001Y-121452501D01*
X140534974Y-121336776D01*
X140605546Y-121204747D01*
X140649003Y-121061486D01*
X140660000Y-120949833D01*
X140660000Y-120949824D01*
X140663676Y-120912501D01*
X140660000Y-120875178D01*
X140660000Y-120750000D01*
X144911928Y-120750000D01*
X144915000Y-121314250D01*
X145073750Y-121473000D01*
X146273000Y-121473000D01*
X146273000Y-120273750D01*
X146527000Y-120273750D01*
X146527000Y-121473000D01*
X147726250Y-121473000D01*
X147885000Y-121314250D01*
X147888072Y-120750000D01*
X147878224Y-120650000D01*
X154611928Y-120650000D01*
X154615000Y-121214250D01*
X154773750Y-121373000D01*
X155973000Y-121373000D01*
X155973000Y-120173750D01*
X156227000Y-120173750D01*
X156227000Y-121373000D01*
X157426250Y-121373000D01*
X157585000Y-121214250D01*
X157588072Y-120650000D01*
X157575812Y-120525518D01*
X157539502Y-120405820D01*
X157480537Y-120295506D01*
X157401185Y-120198815D01*
X157304494Y-120119463D01*
X157194180Y-120060498D01*
X157074482Y-120024188D01*
X156950000Y-120011928D01*
X156385750Y-120015000D01*
X156227000Y-120173750D01*
X155973000Y-120173750D01*
X155814250Y-120015000D01*
X155250000Y-120011928D01*
X155125518Y-120024188D01*
X155005820Y-120060498D01*
X154895506Y-120119463D01*
X154798815Y-120198815D01*
X154719463Y-120295506D01*
X154660498Y-120405820D01*
X154624188Y-120525518D01*
X154611928Y-120650000D01*
X147878224Y-120650000D01*
X147875812Y-120625518D01*
X147839502Y-120505820D01*
X147780537Y-120395506D01*
X147701185Y-120298815D01*
X147604494Y-120219463D01*
X147494180Y-120160498D01*
X147374482Y-120124188D01*
X147250000Y-120111928D01*
X146685750Y-120115000D01*
X146527000Y-120273750D01*
X146273000Y-120273750D01*
X146114250Y-120115000D01*
X145550000Y-120111928D01*
X145425518Y-120124188D01*
X145305820Y-120160498D01*
X145195506Y-120219463D01*
X145098815Y-120298815D01*
X145019463Y-120395506D01*
X144960498Y-120505820D01*
X144924188Y-120625518D01*
X144911928Y-120750000D01*
X140660000Y-120750000D01*
X140660000Y-120724776D01*
X140698254Y-120721008D01*
X140864850Y-120670472D01*
X141018386Y-120588405D01*
X141152962Y-120477962D01*
X141263405Y-120343386D01*
X141345472Y-120189850D01*
X141396008Y-120023254D01*
X141413072Y-119850000D01*
X141413072Y-119050000D01*
X141396008Y-118876746D01*
X141345472Y-118710150D01*
X141263405Y-118556614D01*
X141152962Y-118422038D01*
X141018386Y-118311595D01*
X140864850Y-118229528D01*
X140698254Y-118178992D01*
X140525000Y-118161928D01*
X139275000Y-118161928D01*
X139101746Y-118178992D01*
X138935150Y-118229528D01*
X138781614Y-118311595D01*
X138647038Y-118422038D01*
X138536595Y-118556614D01*
X138514800Y-118597389D01*
X138452962Y-118522038D01*
X138318386Y-118411595D01*
X138164850Y-118329528D01*
X137998254Y-118278992D01*
X137825000Y-118261928D01*
X136575000Y-118261928D01*
X136401746Y-118278992D01*
X136235150Y-118329528D01*
X136081614Y-118411595D01*
X135947038Y-118522038D01*
X135836595Y-118656614D01*
X135818750Y-118690000D01*
X135681250Y-118690000D01*
X135663405Y-118656614D01*
X135552962Y-118522038D01*
X135418386Y-118411595D01*
X135264850Y-118329528D01*
X135098254Y-118278992D01*
X134925000Y-118261928D01*
X133912873Y-118261928D01*
X134436730Y-117738072D01*
X134925000Y-117738072D01*
X135098254Y-117721008D01*
X135264850Y-117670472D01*
X135418386Y-117588405D01*
X135552962Y-117477962D01*
X135663405Y-117343386D01*
X135745472Y-117189850D01*
X135750000Y-117174923D01*
X135754528Y-117189850D01*
X135836595Y-117343386D01*
X135947038Y-117477962D01*
X136081614Y-117588405D01*
X136235150Y-117670472D01*
X136401746Y-117721008D01*
X136575000Y-117738072D01*
X137825000Y-117738072D01*
X137998254Y-117721008D01*
X138164850Y-117670472D01*
X138318386Y-117588405D01*
X138452962Y-117477962D01*
X138563405Y-117343386D01*
X138585200Y-117302611D01*
X138647038Y-117377962D01*
X138781614Y-117488405D01*
X138935150Y-117570472D01*
X139101746Y-117621008D01*
X139275000Y-117638072D01*
X140525000Y-117638072D01*
X140698254Y-117621008D01*
X140864850Y-117570472D01*
X141018386Y-117488405D01*
X141152962Y-117377962D01*
X141263405Y-117243386D01*
X141345472Y-117089850D01*
X141396008Y-116923254D01*
X141409059Y-116790742D01*
X141826061Y-116373740D01*
X144915000Y-116373740D01*
X144915000Y-116666260D01*
X144972068Y-116953158D01*
X145084010Y-117223411D01*
X145246525Y-117466632D01*
X145453368Y-117673475D01*
X145696589Y-117835990D01*
X145966842Y-117947932D01*
X146253740Y-118005000D01*
X146546260Y-118005000D01*
X146833158Y-117947932D01*
X147103411Y-117835990D01*
X147346632Y-117673475D01*
X147553475Y-117466632D01*
X147715990Y-117223411D01*
X147827932Y-116953158D01*
X147885000Y-116666260D01*
X147885000Y-116373740D01*
X147865109Y-116273740D01*
X154615000Y-116273740D01*
X154615000Y-116566260D01*
X154672068Y-116853158D01*
X154784010Y-117123411D01*
X154946525Y-117366632D01*
X155153368Y-117573475D01*
X155396589Y-117735990D01*
X155666842Y-117847932D01*
X155953740Y-117905000D01*
X156246260Y-117905000D01*
X156533158Y-117847932D01*
X156803411Y-117735990D01*
X157046632Y-117573475D01*
X157253475Y-117366632D01*
X157415990Y-117123411D01*
X157527932Y-116853158D01*
X157585000Y-116566260D01*
X157585000Y-116273740D01*
X157527932Y-115986842D01*
X157415990Y-115716589D01*
X157253475Y-115473368D01*
X157046632Y-115266525D01*
X156803411Y-115104010D01*
X156533158Y-114992068D01*
X156246260Y-114935000D01*
X155953740Y-114935000D01*
X155666842Y-114992068D01*
X155396589Y-115104010D01*
X155153368Y-115266525D01*
X154946525Y-115473368D01*
X154784010Y-115716589D01*
X154672068Y-115986842D01*
X154615000Y-116273740D01*
X147865109Y-116273740D01*
X147827932Y-116086842D01*
X147715990Y-115816589D01*
X147553475Y-115573368D01*
X147346632Y-115366525D01*
X147103411Y-115204010D01*
X146833158Y-115092068D01*
X146546260Y-115035000D01*
X146253740Y-115035000D01*
X145966842Y-115092068D01*
X145696589Y-115204010D01*
X145453368Y-115366525D01*
X145246525Y-115573368D01*
X145084010Y-115816589D01*
X144972068Y-116086842D01*
X144915000Y-116373740D01*
X141826061Y-116373740D01*
X144339802Y-113860000D01*
X145062678Y-113860000D01*
X145100000Y-113863676D01*
X145137322Y-113860000D01*
X145137333Y-113860000D01*
X145248986Y-113849003D01*
X145392247Y-113805546D01*
X145524276Y-113734974D01*
X145640001Y-113640001D01*
X145663804Y-113610997D01*
X145820998Y-113453803D01*
X145850001Y-113430001D01*
X145944974Y-113314276D01*
X146015546Y-113182247D01*
X146059003Y-113038986D01*
X146070000Y-112927333D01*
X146070000Y-112927323D01*
X146073676Y-112890000D01*
X146070000Y-112852677D01*
X146070000Y-112392976D01*
X146115258Y-112337829D01*
X146188084Y-112201582D01*
X146232929Y-112053745D01*
X146233297Y-112050000D01*
X150611928Y-112050000D01*
X150624188Y-112174482D01*
X150660498Y-112294180D01*
X150719463Y-112404494D01*
X150798815Y-112501185D01*
X150895506Y-112580537D01*
X151005820Y-112639502D01*
X151125518Y-112675812D01*
X151250000Y-112688072D01*
X151814250Y-112685000D01*
X151973000Y-112526250D01*
X151973000Y-111327000D01*
X152227000Y-111327000D01*
X152227000Y-112526250D01*
X152385750Y-112685000D01*
X152950000Y-112688072D01*
X153074482Y-112675812D01*
X153194180Y-112639502D01*
X153304494Y-112580537D01*
X153401185Y-112501185D01*
X153402157Y-112500000D01*
X156961928Y-112500000D01*
X156974188Y-112624482D01*
X157010498Y-112744180D01*
X157069463Y-112854494D01*
X157148815Y-112951185D01*
X157245506Y-113030537D01*
X157355820Y-113089502D01*
X157475518Y-113125812D01*
X157600000Y-113138072D01*
X158814250Y-113135000D01*
X158973000Y-112976250D01*
X158973000Y-111127000D01*
X159227000Y-111127000D01*
X159227000Y-112976250D01*
X159385750Y-113135000D01*
X160600000Y-113138072D01*
X160724482Y-113125812D01*
X160844180Y-113089502D01*
X160954494Y-113030537D01*
X161051185Y-112951185D01*
X161130537Y-112854494D01*
X161189502Y-112744180D01*
X161225812Y-112624482D01*
X161238072Y-112500000D01*
X161235000Y-111285750D01*
X161076250Y-111127000D01*
X159227000Y-111127000D01*
X158973000Y-111127000D01*
X157123750Y-111127000D01*
X156965000Y-111285750D01*
X156961928Y-112500000D01*
X153402157Y-112500000D01*
X153480537Y-112404494D01*
X153539502Y-112294180D01*
X153575812Y-112174482D01*
X153588072Y-112050000D01*
X153585000Y-111485750D01*
X153426250Y-111327000D01*
X152227000Y-111327000D01*
X151973000Y-111327000D01*
X150773750Y-111327000D01*
X150615000Y-111485750D01*
X150611928Y-112050000D01*
X146233297Y-112050000D01*
X146248072Y-111900000D01*
X146248072Y-110350000D01*
X150611928Y-110350000D01*
X150615000Y-110914250D01*
X150773750Y-111073000D01*
X151973000Y-111073000D01*
X151973000Y-109873750D01*
X152227000Y-109873750D01*
X152227000Y-111073000D01*
X153426250Y-111073000D01*
X153585000Y-110914250D01*
X153588072Y-110350000D01*
X153575812Y-110225518D01*
X153539502Y-110105820D01*
X153480537Y-109995506D01*
X153401185Y-109898815D01*
X153304494Y-109819463D01*
X153194180Y-109760498D01*
X153074482Y-109724188D01*
X152950000Y-109711928D01*
X152385750Y-109715000D01*
X152227000Y-109873750D01*
X151973000Y-109873750D01*
X151814250Y-109715000D01*
X151250000Y-109711928D01*
X151125518Y-109724188D01*
X151005820Y-109760498D01*
X150895506Y-109819463D01*
X150798815Y-109898815D01*
X150719463Y-109995506D01*
X150660498Y-110105820D01*
X150624188Y-110225518D01*
X150611928Y-110350000D01*
X146248072Y-110350000D01*
X146248072Y-110250000D01*
X146232929Y-110096255D01*
X146188084Y-109948418D01*
X146115258Y-109812171D01*
X146070000Y-109757024D01*
X146070000Y-109500000D01*
X156961928Y-109500000D01*
X156965000Y-110714250D01*
X157123750Y-110873000D01*
X158973000Y-110873000D01*
X158973000Y-109023750D01*
X159227000Y-109023750D01*
X159227000Y-110873000D01*
X161076250Y-110873000D01*
X161235000Y-110714250D01*
X161238072Y-109500000D01*
X161225812Y-109375518D01*
X161189502Y-109255820D01*
X161130537Y-109145506D01*
X161051185Y-109048815D01*
X160954494Y-108969463D01*
X160844180Y-108910498D01*
X160724482Y-108874188D01*
X160600000Y-108861928D01*
X159385750Y-108865000D01*
X159227000Y-109023750D01*
X158973000Y-109023750D01*
X158814250Y-108865000D01*
X157600000Y-108861928D01*
X157475518Y-108874188D01*
X157355820Y-108910498D01*
X157245506Y-108969463D01*
X157148815Y-109048815D01*
X157069463Y-109145506D01*
X157010498Y-109255820D01*
X156974188Y-109375518D01*
X156961928Y-109500000D01*
X146070000Y-109500000D01*
X146070000Y-108893711D01*
X146103937Y-108859774D01*
X146217205Y-108690256D01*
X146243407Y-108627000D01*
X161315001Y-108627000D01*
X161315001Y-124315000D01*
X112685000Y-124315000D01*
X112685000Y-122469040D01*
X122628091Y-122469040D01*
X122722930Y-122733881D01*
X122867615Y-122975131D01*
X123056586Y-123183519D01*
X123282580Y-123351037D01*
X123536913Y-123471246D01*
X123670961Y-123511904D01*
X123893000Y-123389915D01*
X123893000Y-122247000D01*
X124147000Y-122247000D01*
X124147000Y-123389915D01*
X124369039Y-123511904D01*
X124503087Y-123471246D01*
X124757420Y-123351037D01*
X124983414Y-123183519D01*
X125172385Y-122975131D01*
X125290000Y-122779018D01*
X125407615Y-122975131D01*
X125596586Y-123183519D01*
X125822580Y-123351037D01*
X126076913Y-123471246D01*
X126210961Y-123511904D01*
X126433000Y-123389915D01*
X126433000Y-122247000D01*
X126687000Y-122247000D01*
X126687000Y-123389915D01*
X126909039Y-123511904D01*
X127043087Y-123471246D01*
X127297420Y-123351037D01*
X127523414Y-123183519D01*
X127712385Y-122975131D01*
X127830000Y-122779018D01*
X127947615Y-122975131D01*
X128136586Y-123183519D01*
X128362580Y-123351037D01*
X128616913Y-123471246D01*
X128750961Y-123511904D01*
X128973000Y-123389915D01*
X128973000Y-122247000D01*
X129227000Y-122247000D01*
X129227000Y-123389915D01*
X129449039Y-123511904D01*
X129583087Y-123471246D01*
X129837420Y-123351037D01*
X130063414Y-123183519D01*
X130252385Y-122975131D01*
X130397070Y-122733881D01*
X130491909Y-122469040D01*
X130370624Y-122247000D01*
X129227000Y-122247000D01*
X128973000Y-122247000D01*
X126687000Y-122247000D01*
X126433000Y-122247000D01*
X124147000Y-122247000D01*
X123893000Y-122247000D01*
X122749376Y-122247000D01*
X122628091Y-122469040D01*
X112685000Y-122469040D01*
X112685000Y-121770960D01*
X122628091Y-121770960D01*
X122749376Y-121993000D01*
X123893000Y-121993000D01*
X123893000Y-120850085D01*
X124147000Y-120850085D01*
X124147000Y-121993000D01*
X126433000Y-121993000D01*
X126433000Y-120850085D01*
X126687000Y-120850085D01*
X126687000Y-121993000D01*
X128973000Y-121993000D01*
X128973000Y-120850085D01*
X129227000Y-120850085D01*
X129227000Y-121993000D01*
X130370624Y-121993000D01*
X130491909Y-121770960D01*
X130397070Y-121506119D01*
X130252385Y-121264869D01*
X130063414Y-121056481D01*
X129837420Y-120888963D01*
X129583087Y-120768754D01*
X129449039Y-120728096D01*
X129227000Y-120850085D01*
X128973000Y-120850085D01*
X128750961Y-120728096D01*
X128616913Y-120768754D01*
X128362580Y-120888963D01*
X128136586Y-121056481D01*
X127947615Y-121264869D01*
X127830000Y-121460982D01*
X127712385Y-121264869D01*
X127523414Y-121056481D01*
X127297420Y-120888963D01*
X127043087Y-120768754D01*
X126909039Y-120728096D01*
X126687000Y-120850085D01*
X126433000Y-120850085D01*
X126210961Y-120728096D01*
X126076913Y-120768754D01*
X125822580Y-120888963D01*
X125596586Y-121056481D01*
X125407615Y-121264869D01*
X125290000Y-121460982D01*
X125172385Y-121264869D01*
X124983414Y-121056481D01*
X124757420Y-120888963D01*
X124503087Y-120768754D01*
X124369039Y-120728096D01*
X124147000Y-120850085D01*
X123893000Y-120850085D01*
X123670961Y-120728096D01*
X123536913Y-120768754D01*
X123282580Y-120888963D01*
X123056586Y-121056481D01*
X122867615Y-121264869D01*
X122722930Y-121506119D01*
X122628091Y-121770960D01*
X112685000Y-121770960D01*
X112685000Y-115684346D01*
X112729017Y-115728363D01*
X113078698Y-115962012D01*
X113467244Y-116122953D01*
X113879721Y-116205000D01*
X114300279Y-116205000D01*
X114712756Y-116122953D01*
X115101302Y-115962012D01*
X115450983Y-115728363D01*
X115748363Y-115430983D01*
X115982012Y-115081302D01*
X116142953Y-114692756D01*
X116225000Y-114280279D01*
X116225000Y-113859721D01*
X116142953Y-113447244D01*
X115982012Y-113058698D01*
X115748363Y-112709017D01*
X115450983Y-112411637D01*
X115101302Y-112177988D01*
X114712756Y-112017047D01*
X114590366Y-111992702D01*
X115986903Y-111992702D01*
X116058486Y-112236671D01*
X116313996Y-112357571D01*
X116588184Y-112426300D01*
X116870512Y-112440217D01*
X117150130Y-112398787D01*
X117416292Y-112303603D01*
X117541514Y-112236671D01*
X117613097Y-111992702D01*
X116800000Y-111179605D01*
X115986903Y-111992702D01*
X114590366Y-111992702D01*
X114300279Y-111935000D01*
X113879721Y-111935000D01*
X113467244Y-112017047D01*
X113078698Y-112177988D01*
X112729017Y-112411637D01*
X112685000Y-112455654D01*
X112685000Y-111070512D01*
X115359783Y-111070512D01*
X115401213Y-111350130D01*
X115496397Y-111616292D01*
X115563329Y-111741514D01*
X115807298Y-111813097D01*
X116620395Y-111000000D01*
X116979605Y-111000000D01*
X117792702Y-111813097D01*
X118036671Y-111741514D01*
X118157571Y-111486004D01*
X118226300Y-111211816D01*
X118240217Y-110929488D01*
X118198787Y-110649870D01*
X118103603Y-110383708D01*
X118036671Y-110258486D01*
X117792702Y-110186903D01*
X116979605Y-111000000D01*
X116620395Y-111000000D01*
X115807298Y-110186903D01*
X115563329Y-110258486D01*
X115442429Y-110513996D01*
X115373700Y-110788184D01*
X115359783Y-111070512D01*
X112685000Y-111070512D01*
X112685000Y-108627000D01*
X115365000Y-108627000D01*
X115365000Y-108641335D01*
G04 #@! TA.AperFunction,Conductor*
D24*
G36*
X115365000Y-108641335D02*
G01*
X115420147Y-108918574D01*
X115528320Y-109179727D01*
X115685363Y-109414759D01*
X115885241Y-109614637D01*
X116085869Y-109748692D01*
X116058486Y-109763329D01*
X115986903Y-110007298D01*
X116800000Y-110820395D01*
X117613097Y-110007298D01*
X117541514Y-109763329D01*
X117512659Y-109749676D01*
X117714759Y-109614637D01*
X117914637Y-109414759D01*
X118071680Y-109179727D01*
X118179853Y-108918574D01*
X118235000Y-108641335D01*
X118235000Y-108627000D01*
X120376505Y-108627000D01*
X120361928Y-108775000D01*
X120361928Y-110025000D01*
X120378992Y-110198254D01*
X120429528Y-110364850D01*
X120511595Y-110518386D01*
X120622038Y-110652962D01*
X120756614Y-110763405D01*
X120910150Y-110845472D01*
X121076746Y-110896008D01*
X121250000Y-110913072D01*
X122050000Y-110913072D01*
X122084839Y-110909641D01*
X123086201Y-111911003D01*
X123109999Y-111940001D01*
X123138997Y-111963799D01*
X123225723Y-112034974D01*
X123340270Y-112096201D01*
X123357753Y-112105546D01*
X123501014Y-112149003D01*
X123612667Y-112160000D01*
X123612676Y-112160000D01*
X123649999Y-112163676D01*
X123687322Y-112160000D01*
X131362678Y-112160000D01*
X131400000Y-112163676D01*
X131437322Y-112160000D01*
X131437333Y-112160000D01*
X131548986Y-112149003D01*
X131692247Y-112105546D01*
X131824276Y-112034974D01*
X131940001Y-111940001D01*
X131963804Y-111910997D01*
X132696218Y-111178583D01*
X132712460Y-111260236D01*
X132805557Y-111484992D01*
X132940713Y-111687267D01*
X133112733Y-111859287D01*
X133315008Y-111994443D01*
X133539764Y-112087540D01*
X133778363Y-112135000D01*
X133883422Y-112135000D01*
X135338411Y-113589990D01*
X130527237Y-113589990D01*
X130525812Y-113575518D01*
X130489502Y-113455820D01*
X130430537Y-113345506D01*
X130351185Y-113248815D01*
X130254494Y-113169463D01*
X130144180Y-113110498D01*
X130024482Y-113074188D01*
X129900000Y-113061928D01*
X128300000Y-113061928D01*
X128175518Y-113074188D01*
X128055820Y-113110498D01*
X127945506Y-113169463D01*
X127848815Y-113248815D01*
X127769463Y-113345506D01*
X127710498Y-113455820D01*
X127674188Y-113575518D01*
X127673357Y-113583961D01*
X127474759Y-113385363D01*
X127239727Y-113228320D01*
X126978574Y-113120147D01*
X126701335Y-113065000D01*
X126418665Y-113065000D01*
X126141426Y-113120147D01*
X125880273Y-113228320D01*
X125645241Y-113385363D01*
X125445363Y-113585241D01*
X125290000Y-113817759D01*
X125134637Y-113585241D01*
X124934759Y-113385363D01*
X124699727Y-113228320D01*
X124438574Y-113120147D01*
X124161335Y-113065000D01*
X123878665Y-113065000D01*
X123601426Y-113120147D01*
X123340273Y-113228320D01*
X123105241Y-113385363D01*
X122905363Y-113585241D01*
X122748320Y-113820273D01*
X122640147Y-114081426D01*
X122585000Y-114358665D01*
X122585000Y-114641335D01*
X122640147Y-114918574D01*
X122748320Y-115179727D01*
X122905363Y-115414759D01*
X123105241Y-115614637D01*
X123260000Y-115718044D01*
X123260000Y-116582677D01*
X123256324Y-116620000D01*
X123260000Y-116657322D01*
X123260000Y-116657332D01*
X123270997Y-116768985D01*
X123302936Y-116874275D01*
X123314454Y-116912246D01*
X123385026Y-117044276D01*
X123406960Y-117071002D01*
X123479999Y-117160001D01*
X123509003Y-117183804D01*
X124636201Y-118311003D01*
X124659999Y-118340001D01*
X124688997Y-118363799D01*
X124775723Y-118434974D01*
X124907753Y-118505546D01*
X125051014Y-118549003D01*
X125162667Y-118560000D01*
X125162677Y-118560000D01*
X125199999Y-118563676D01*
X125237322Y-118560000D01*
X133015884Y-118560000D01*
X132936595Y-118656614D01*
X132854528Y-118810150D01*
X132803992Y-118976746D01*
X132786928Y-119150000D01*
X132786928Y-119950000D01*
X132803992Y-120123254D01*
X132854528Y-120289850D01*
X132936595Y-120443386D01*
X133047038Y-120577962D01*
X133181614Y-120688405D01*
X133335150Y-120770472D01*
X133501746Y-120821008D01*
X133675000Y-120838072D01*
X134925000Y-120838072D01*
X135098254Y-120821008D01*
X135264850Y-120770472D01*
X135418386Y-120688405D01*
X135552962Y-120577962D01*
X135663405Y-120443386D01*
X135745472Y-120289850D01*
X135750000Y-120274923D01*
X135754528Y-120289850D01*
X135836595Y-120443386D01*
X135947038Y-120577962D01*
X136081614Y-120688405D01*
X136235150Y-120770472D01*
X136401746Y-120821008D01*
X136575000Y-120838072D01*
X137825000Y-120838072D01*
X137998254Y-120821008D01*
X138164850Y-120770472D01*
X138318386Y-120688405D01*
X138452962Y-120577962D01*
X138563405Y-120443386D01*
X138585200Y-120402611D01*
X138647038Y-120477962D01*
X138781614Y-120588405D01*
X138935150Y-120670472D01*
X139036486Y-120701212D01*
X138850770Y-120886928D01*
X138562500Y-120886928D01*
X138391684Y-120903752D01*
X138227433Y-120953577D01*
X138076058Y-121034488D01*
X137943377Y-121143377D01*
X137900000Y-121196232D01*
X137856623Y-121143377D01*
X137723942Y-121034488D01*
X137572567Y-120953577D01*
X137408316Y-120903752D01*
X137237500Y-120886928D01*
X136737500Y-120886928D01*
X136566684Y-120903752D01*
X136402433Y-120953577D01*
X136251058Y-121034488D01*
X136118377Y-121143377D01*
X136009488Y-121276058D01*
X135985203Y-121321492D01*
X135959774Y-121296063D01*
X135790256Y-121182795D01*
X135601898Y-121104774D01*
X135401939Y-121065000D01*
X135198061Y-121065000D01*
X134998102Y-121104774D01*
X134809744Y-121182795D01*
X134640226Y-121296063D01*
X134496063Y-121440226D01*
X134382795Y-121609744D01*
X134304774Y-121798102D01*
X134265000Y-121998061D01*
X134265000Y-122201939D01*
X134304774Y-122401898D01*
X134382795Y-122590256D01*
X134496063Y-122759774D01*
X134640226Y-122903937D01*
X134809744Y-123017205D01*
X134998102Y-123095226D01*
X135198061Y-123135000D01*
X135401939Y-123135000D01*
X135601898Y-123095226D01*
X135790256Y-123017205D01*
X135959774Y-122903937D01*
X136003711Y-122860000D01*
X136122492Y-122860000D01*
X136251058Y-122965512D01*
X136402433Y-123046423D01*
X136566684Y-123096248D01*
X136737500Y-123113072D01*
X137237500Y-123113072D01*
X137408316Y-123096248D01*
X137572567Y-123046423D01*
X137723942Y-122965512D01*
X137856623Y-122856623D01*
X137900000Y-122803768D01*
X137943377Y-122856623D01*
X138076058Y-122965512D01*
X138227433Y-123046423D01*
X138391684Y-123096248D01*
X138562500Y-123113072D01*
X139062500Y-123113072D01*
X139233316Y-123096248D01*
X139397567Y-123046423D01*
X139548942Y-122965512D01*
X139681623Y-122856623D01*
X139790512Y-122723942D01*
X139871423Y-122572567D01*
X139908603Y-122450000D01*
X144911928Y-122450000D01*
X144924188Y-122574482D01*
X144960498Y-122694180D01*
X145019463Y-122804494D01*
X145098815Y-122901185D01*
X145195506Y-122980537D01*
X145305820Y-123039502D01*
X145425518Y-123075812D01*
X145550000Y-123088072D01*
X146114250Y-123085000D01*
X146273000Y-122926250D01*
X146273000Y-121727000D01*
X146527000Y-121727000D01*
X146527000Y-122926250D01*
X146685750Y-123085000D01*
X147250000Y-123088072D01*
X147374482Y-123075812D01*
X147494180Y-123039502D01*
X147604494Y-122980537D01*
X147701185Y-122901185D01*
X147780537Y-122804494D01*
X147839502Y-122694180D01*
X147875812Y-122574482D01*
X147888072Y-122450000D01*
X147887528Y-122350000D01*
X154611928Y-122350000D01*
X154624188Y-122474482D01*
X154660498Y-122594180D01*
X154719463Y-122704494D01*
X154798815Y-122801185D01*
X154895506Y-122880537D01*
X155005820Y-122939502D01*
X155125518Y-122975812D01*
X155250000Y-122988072D01*
X155814250Y-122985000D01*
X155973000Y-122826250D01*
X155973000Y-121627000D01*
X156227000Y-121627000D01*
X156227000Y-122826250D01*
X156385750Y-122985000D01*
X156950000Y-122988072D01*
X157074482Y-122975812D01*
X157194180Y-122939502D01*
X157304494Y-122880537D01*
X157401185Y-122801185D01*
X157480537Y-122704494D01*
X157539502Y-122594180D01*
X157575812Y-122474482D01*
X157588072Y-122350000D01*
X157585000Y-121785750D01*
X157426250Y-121627000D01*
X156227000Y-121627000D01*
X155973000Y-121627000D01*
X154773750Y-121627000D01*
X154615000Y-121785750D01*
X154611928Y-122350000D01*
X147887528Y-122350000D01*
X147885000Y-121885750D01*
X147726250Y-121727000D01*
X146527000Y-121727000D01*
X146273000Y-121727000D01*
X145073750Y-121727000D01*
X144915000Y-121885750D01*
X144911928Y-122450000D01*
X139908603Y-122450000D01*
X139921248Y-122408316D01*
X139938072Y-122237500D01*
X139938072Y-121949230D01*
X140411003Y-121476299D01*
X140440001Y-121452501D01*
X140534974Y-121336776D01*
X140605546Y-121204747D01*
X140649003Y-121061486D01*
X140660000Y-120949833D01*
X140660000Y-120949824D01*
X140663676Y-120912501D01*
X140660000Y-120875178D01*
X140660000Y-120750000D01*
X144911928Y-120750000D01*
X144915000Y-121314250D01*
X145073750Y-121473000D01*
X146273000Y-121473000D01*
X146273000Y-120273750D01*
X146527000Y-120273750D01*
X146527000Y-121473000D01*
X147726250Y-121473000D01*
X147885000Y-121314250D01*
X147888072Y-120750000D01*
X147878224Y-120650000D01*
X154611928Y-120650000D01*
X154615000Y-121214250D01*
X154773750Y-121373000D01*
X155973000Y-121373000D01*
X155973000Y-120173750D01*
X156227000Y-120173750D01*
X156227000Y-121373000D01*
X157426250Y-121373000D01*
X157585000Y-121214250D01*
X157588072Y-120650000D01*
X157575812Y-120525518D01*
X157539502Y-120405820D01*
X157480537Y-120295506D01*
X157401185Y-120198815D01*
X157304494Y-120119463D01*
X157194180Y-120060498D01*
X157074482Y-120024188D01*
X156950000Y-120011928D01*
X156385750Y-120015000D01*
X156227000Y-120173750D01*
X155973000Y-120173750D01*
X155814250Y-120015000D01*
X155250000Y-120011928D01*
X155125518Y-120024188D01*
X155005820Y-120060498D01*
X154895506Y-120119463D01*
X154798815Y-120198815D01*
X154719463Y-120295506D01*
X154660498Y-120405820D01*
X154624188Y-120525518D01*
X154611928Y-120650000D01*
X147878224Y-120650000D01*
X147875812Y-120625518D01*
X147839502Y-120505820D01*
X147780537Y-120395506D01*
X147701185Y-120298815D01*
X147604494Y-120219463D01*
X147494180Y-120160498D01*
X147374482Y-120124188D01*
X147250000Y-120111928D01*
X146685750Y-120115000D01*
X146527000Y-120273750D01*
X146273000Y-120273750D01*
X146114250Y-120115000D01*
X145550000Y-120111928D01*
X145425518Y-120124188D01*
X145305820Y-120160498D01*
X145195506Y-120219463D01*
X145098815Y-120298815D01*
X145019463Y-120395506D01*
X144960498Y-120505820D01*
X144924188Y-120625518D01*
X144911928Y-120750000D01*
X140660000Y-120750000D01*
X140660000Y-120724776D01*
X140698254Y-120721008D01*
X140864850Y-120670472D01*
X141018386Y-120588405D01*
X141152962Y-120477962D01*
X141263405Y-120343386D01*
X141345472Y-120189850D01*
X141396008Y-120023254D01*
X141413072Y-119850000D01*
X141413072Y-119050000D01*
X141396008Y-118876746D01*
X141345472Y-118710150D01*
X141263405Y-118556614D01*
X141152962Y-118422038D01*
X141018386Y-118311595D01*
X140864850Y-118229528D01*
X140698254Y-118178992D01*
X140525000Y-118161928D01*
X139275000Y-118161928D01*
X139101746Y-118178992D01*
X138935150Y-118229528D01*
X138781614Y-118311595D01*
X138647038Y-118422038D01*
X138536595Y-118556614D01*
X138514800Y-118597389D01*
X138452962Y-118522038D01*
X138318386Y-118411595D01*
X138164850Y-118329528D01*
X137998254Y-118278992D01*
X137825000Y-118261928D01*
X136575000Y-118261928D01*
X136401746Y-118278992D01*
X136235150Y-118329528D01*
X136081614Y-118411595D01*
X135947038Y-118522038D01*
X135836595Y-118656614D01*
X135818750Y-118690000D01*
X135681250Y-118690000D01*
X135663405Y-118656614D01*
X135552962Y-118522038D01*
X135418386Y-118411595D01*
X135264850Y-118329528D01*
X135098254Y-118278992D01*
X134925000Y-118261928D01*
X133912873Y-118261928D01*
X134436730Y-117738072D01*
X134925000Y-117738072D01*
X135098254Y-117721008D01*
X135264850Y-117670472D01*
X135418386Y-117588405D01*
X135552962Y-117477962D01*
X135663405Y-117343386D01*
X135745472Y-117189850D01*
X135750000Y-117174923D01*
X135754528Y-117189850D01*
X135836595Y-117343386D01*
X135947038Y-117477962D01*
X136081614Y-117588405D01*
X136235150Y-117670472D01*
X136401746Y-117721008D01*
X136575000Y-117738072D01*
X137825000Y-117738072D01*
X137998254Y-117721008D01*
X138164850Y-117670472D01*
X138318386Y-117588405D01*
X138452962Y-117477962D01*
X138563405Y-117343386D01*
X138585200Y-117302611D01*
X138647038Y-117377962D01*
X138781614Y-117488405D01*
X138935150Y-117570472D01*
X139101746Y-117621008D01*
X139275000Y-117638072D01*
X140525000Y-117638072D01*
X140698254Y-117621008D01*
X140864850Y-117570472D01*
X141018386Y-117488405D01*
X141152962Y-117377962D01*
X141263405Y-117243386D01*
X141345472Y-117089850D01*
X141396008Y-116923254D01*
X141409059Y-116790742D01*
X141826061Y-116373740D01*
X144915000Y-116373740D01*
X144915000Y-116666260D01*
X144972068Y-116953158D01*
X145084010Y-117223411D01*
X145246525Y-117466632D01*
X145453368Y-117673475D01*
X145696589Y-117835990D01*
X145966842Y-117947932D01*
X146253740Y-118005000D01*
X146546260Y-118005000D01*
X146833158Y-117947932D01*
X147103411Y-117835990D01*
X147346632Y-117673475D01*
X147553475Y-117466632D01*
X147715990Y-117223411D01*
X147827932Y-116953158D01*
X147885000Y-116666260D01*
X147885000Y-116373740D01*
X147865109Y-116273740D01*
X154615000Y-116273740D01*
X154615000Y-116566260D01*
X154672068Y-116853158D01*
X154784010Y-117123411D01*
X154946525Y-117366632D01*
X155153368Y-117573475D01*
X155396589Y-117735990D01*
X155666842Y-117847932D01*
X155953740Y-117905000D01*
X156246260Y-117905000D01*
X156533158Y-117847932D01*
X156803411Y-117735990D01*
X157046632Y-117573475D01*
X157253475Y-117366632D01*
X157415990Y-117123411D01*
X157527932Y-116853158D01*
X157585000Y-116566260D01*
X157585000Y-116273740D01*
X157527932Y-115986842D01*
X157415990Y-115716589D01*
X157253475Y-115473368D01*
X157046632Y-115266525D01*
X156803411Y-115104010D01*
X156533158Y-114992068D01*
X156246260Y-114935000D01*
X155953740Y-114935000D01*
X155666842Y-114992068D01*
X155396589Y-115104010D01*
X155153368Y-115266525D01*
X154946525Y-115473368D01*
X154784010Y-115716589D01*
X154672068Y-115986842D01*
X154615000Y-116273740D01*
X147865109Y-116273740D01*
X147827932Y-116086842D01*
X147715990Y-115816589D01*
X147553475Y-115573368D01*
X147346632Y-115366525D01*
X147103411Y-115204010D01*
X146833158Y-115092068D01*
X146546260Y-115035000D01*
X146253740Y-115035000D01*
X145966842Y-115092068D01*
X145696589Y-115204010D01*
X145453368Y-115366525D01*
X145246525Y-115573368D01*
X145084010Y-115816589D01*
X144972068Y-116086842D01*
X144915000Y-116373740D01*
X141826061Y-116373740D01*
X144339802Y-113860000D01*
X145062678Y-113860000D01*
X145100000Y-113863676D01*
X145137322Y-113860000D01*
X145137333Y-113860000D01*
X145248986Y-113849003D01*
X145392247Y-113805546D01*
X145524276Y-113734974D01*
X145640001Y-113640001D01*
X145663804Y-113610997D01*
X145820998Y-113453803D01*
X145850001Y-113430001D01*
X145944974Y-113314276D01*
X146015546Y-113182247D01*
X146059003Y-113038986D01*
X146070000Y-112927333D01*
X146070000Y-112927323D01*
X146073676Y-112890000D01*
X146070000Y-112852677D01*
X146070000Y-112392976D01*
X146115258Y-112337829D01*
X146188084Y-112201582D01*
X146232929Y-112053745D01*
X146233297Y-112050000D01*
X150611928Y-112050000D01*
X150624188Y-112174482D01*
X150660498Y-112294180D01*
X150719463Y-112404494D01*
X150798815Y-112501185D01*
X150895506Y-112580537D01*
X151005820Y-112639502D01*
X151125518Y-112675812D01*
X151250000Y-112688072D01*
X151814250Y-112685000D01*
X151973000Y-112526250D01*
X151973000Y-111327000D01*
X152227000Y-111327000D01*
X152227000Y-112526250D01*
X152385750Y-112685000D01*
X152950000Y-112688072D01*
X153074482Y-112675812D01*
X153194180Y-112639502D01*
X153304494Y-112580537D01*
X153401185Y-112501185D01*
X153402157Y-112500000D01*
X156961928Y-112500000D01*
X156974188Y-112624482D01*
X157010498Y-112744180D01*
X157069463Y-112854494D01*
X157148815Y-112951185D01*
X157245506Y-113030537D01*
X157355820Y-113089502D01*
X157475518Y-113125812D01*
X157600000Y-113138072D01*
X158814250Y-113135000D01*
X158973000Y-112976250D01*
X158973000Y-111127000D01*
X159227000Y-111127000D01*
X159227000Y-112976250D01*
X159385750Y-113135000D01*
X160600000Y-113138072D01*
X160724482Y-113125812D01*
X160844180Y-113089502D01*
X160954494Y-113030537D01*
X161051185Y-112951185D01*
X161130537Y-112854494D01*
X161189502Y-112744180D01*
X161225812Y-112624482D01*
X161238072Y-112500000D01*
X161235000Y-111285750D01*
X161076250Y-111127000D01*
X159227000Y-111127000D01*
X158973000Y-111127000D01*
X157123750Y-111127000D01*
X156965000Y-111285750D01*
X156961928Y-112500000D01*
X153402157Y-112500000D01*
X153480537Y-112404494D01*
X153539502Y-112294180D01*
X153575812Y-112174482D01*
X153588072Y-112050000D01*
X153585000Y-111485750D01*
X153426250Y-111327000D01*
X152227000Y-111327000D01*
X151973000Y-111327000D01*
X150773750Y-111327000D01*
X150615000Y-111485750D01*
X150611928Y-112050000D01*
X146233297Y-112050000D01*
X146248072Y-111900000D01*
X146248072Y-110350000D01*
X150611928Y-110350000D01*
X150615000Y-110914250D01*
X150773750Y-111073000D01*
X151973000Y-111073000D01*
X151973000Y-109873750D01*
X152227000Y-109873750D01*
X152227000Y-111073000D01*
X153426250Y-111073000D01*
X153585000Y-110914250D01*
X153588072Y-110350000D01*
X153575812Y-110225518D01*
X153539502Y-110105820D01*
X153480537Y-109995506D01*
X153401185Y-109898815D01*
X153304494Y-109819463D01*
X153194180Y-109760498D01*
X153074482Y-109724188D01*
X152950000Y-109711928D01*
X152385750Y-109715000D01*
X152227000Y-109873750D01*
X151973000Y-109873750D01*
X151814250Y-109715000D01*
X151250000Y-109711928D01*
X151125518Y-109724188D01*
X151005820Y-109760498D01*
X150895506Y-109819463D01*
X150798815Y-109898815D01*
X150719463Y-109995506D01*
X150660498Y-110105820D01*
X150624188Y-110225518D01*
X150611928Y-110350000D01*
X146248072Y-110350000D01*
X146248072Y-110250000D01*
X146232929Y-110096255D01*
X146188084Y-109948418D01*
X146115258Y-109812171D01*
X146070000Y-109757024D01*
X146070000Y-109500000D01*
X156961928Y-109500000D01*
X156965000Y-110714250D01*
X157123750Y-110873000D01*
X158973000Y-110873000D01*
X158973000Y-109023750D01*
X159227000Y-109023750D01*
X159227000Y-110873000D01*
X161076250Y-110873000D01*
X161235000Y-110714250D01*
X161238072Y-109500000D01*
X161225812Y-109375518D01*
X161189502Y-109255820D01*
X161130537Y-109145506D01*
X161051185Y-109048815D01*
X160954494Y-108969463D01*
X160844180Y-108910498D01*
X160724482Y-108874188D01*
X160600000Y-108861928D01*
X159385750Y-108865000D01*
X159227000Y-109023750D01*
X158973000Y-109023750D01*
X158814250Y-108865000D01*
X157600000Y-108861928D01*
X157475518Y-108874188D01*
X157355820Y-108910498D01*
X157245506Y-108969463D01*
X157148815Y-109048815D01*
X157069463Y-109145506D01*
X157010498Y-109255820D01*
X156974188Y-109375518D01*
X156961928Y-109500000D01*
X146070000Y-109500000D01*
X146070000Y-108893711D01*
X146103937Y-108859774D01*
X146217205Y-108690256D01*
X146243407Y-108627000D01*
X161315001Y-108627000D01*
X161315001Y-124315000D01*
X112685000Y-124315000D01*
X112685000Y-122469040D01*
X122628091Y-122469040D01*
X122722930Y-122733881D01*
X122867615Y-122975131D01*
X123056586Y-123183519D01*
X123282580Y-123351037D01*
X123536913Y-123471246D01*
X123670961Y-123511904D01*
X123893000Y-123389915D01*
X123893000Y-122247000D01*
X124147000Y-122247000D01*
X124147000Y-123389915D01*
X124369039Y-123511904D01*
X124503087Y-123471246D01*
X124757420Y-123351037D01*
X124983414Y-123183519D01*
X125172385Y-122975131D01*
X125290000Y-122779018D01*
X125407615Y-122975131D01*
X125596586Y-123183519D01*
X125822580Y-123351037D01*
X126076913Y-123471246D01*
X126210961Y-123511904D01*
X126433000Y-123389915D01*
X126433000Y-122247000D01*
X126687000Y-122247000D01*
X126687000Y-123389915D01*
X126909039Y-123511904D01*
X127043087Y-123471246D01*
X127297420Y-123351037D01*
X127523414Y-123183519D01*
X127712385Y-122975131D01*
X127830000Y-122779018D01*
X127947615Y-122975131D01*
X128136586Y-123183519D01*
X128362580Y-123351037D01*
X128616913Y-123471246D01*
X128750961Y-123511904D01*
X128973000Y-123389915D01*
X128973000Y-122247000D01*
X129227000Y-122247000D01*
X129227000Y-123389915D01*
X129449039Y-123511904D01*
X129583087Y-123471246D01*
X129837420Y-123351037D01*
X130063414Y-123183519D01*
X130252385Y-122975131D01*
X130397070Y-122733881D01*
X130491909Y-122469040D01*
X130370624Y-122247000D01*
X129227000Y-122247000D01*
X128973000Y-122247000D01*
X126687000Y-122247000D01*
X126433000Y-122247000D01*
X124147000Y-122247000D01*
X123893000Y-122247000D01*
X122749376Y-122247000D01*
X122628091Y-122469040D01*
X112685000Y-122469040D01*
X112685000Y-121770960D01*
X122628091Y-121770960D01*
X122749376Y-121993000D01*
X123893000Y-121993000D01*
X123893000Y-120850085D01*
X124147000Y-120850085D01*
X124147000Y-121993000D01*
X126433000Y-121993000D01*
X126433000Y-120850085D01*
X126687000Y-120850085D01*
X126687000Y-121993000D01*
X128973000Y-121993000D01*
X128973000Y-120850085D01*
X129227000Y-120850085D01*
X129227000Y-121993000D01*
X130370624Y-121993000D01*
X130491909Y-121770960D01*
X130397070Y-121506119D01*
X130252385Y-121264869D01*
X130063414Y-121056481D01*
X129837420Y-120888963D01*
X129583087Y-120768754D01*
X129449039Y-120728096D01*
X129227000Y-120850085D01*
X128973000Y-120850085D01*
X128750961Y-120728096D01*
X128616913Y-120768754D01*
X128362580Y-120888963D01*
X128136586Y-121056481D01*
X127947615Y-121264869D01*
X127830000Y-121460982D01*
X127712385Y-121264869D01*
X127523414Y-121056481D01*
X127297420Y-120888963D01*
X127043087Y-120768754D01*
X126909039Y-120728096D01*
X126687000Y-120850085D01*
X126433000Y-120850085D01*
X126210961Y-120728096D01*
X126076913Y-120768754D01*
X125822580Y-120888963D01*
X125596586Y-121056481D01*
X125407615Y-121264869D01*
X125290000Y-121460982D01*
X125172385Y-121264869D01*
X124983414Y-121056481D01*
X124757420Y-120888963D01*
X124503087Y-120768754D01*
X124369039Y-120728096D01*
X124147000Y-120850085D01*
X123893000Y-120850085D01*
X123670961Y-120728096D01*
X123536913Y-120768754D01*
X123282580Y-120888963D01*
X123056586Y-121056481D01*
X122867615Y-121264869D01*
X122722930Y-121506119D01*
X122628091Y-121770960D01*
X112685000Y-121770960D01*
X112685000Y-115684346D01*
X112729017Y-115728363D01*
X113078698Y-115962012D01*
X113467244Y-116122953D01*
X113879721Y-116205000D01*
X114300279Y-116205000D01*
X114712756Y-116122953D01*
X115101302Y-115962012D01*
X115450983Y-115728363D01*
X115748363Y-115430983D01*
X115982012Y-115081302D01*
X116142953Y-114692756D01*
X116225000Y-114280279D01*
X116225000Y-113859721D01*
X116142953Y-113447244D01*
X115982012Y-113058698D01*
X115748363Y-112709017D01*
X115450983Y-112411637D01*
X115101302Y-112177988D01*
X114712756Y-112017047D01*
X114590366Y-111992702D01*
X115986903Y-111992702D01*
X116058486Y-112236671D01*
X116313996Y-112357571D01*
X116588184Y-112426300D01*
X116870512Y-112440217D01*
X117150130Y-112398787D01*
X117416292Y-112303603D01*
X117541514Y-112236671D01*
X117613097Y-111992702D01*
X116800000Y-111179605D01*
X115986903Y-111992702D01*
X114590366Y-111992702D01*
X114300279Y-111935000D01*
X113879721Y-111935000D01*
X113467244Y-112017047D01*
X113078698Y-112177988D01*
X112729017Y-112411637D01*
X112685000Y-112455654D01*
X112685000Y-111070512D01*
X115359783Y-111070512D01*
X115401213Y-111350130D01*
X115496397Y-111616292D01*
X115563329Y-111741514D01*
X115807298Y-111813097D01*
X116620395Y-111000000D01*
X116979605Y-111000000D01*
X117792702Y-111813097D01*
X118036671Y-111741514D01*
X118157571Y-111486004D01*
X118226300Y-111211816D01*
X118240217Y-110929488D01*
X118198787Y-110649870D01*
X118103603Y-110383708D01*
X118036671Y-110258486D01*
X117792702Y-110186903D01*
X116979605Y-111000000D01*
X116620395Y-111000000D01*
X115807298Y-110186903D01*
X115563329Y-110258486D01*
X115442429Y-110513996D01*
X115373700Y-110788184D01*
X115359783Y-111070512D01*
X112685000Y-111070512D01*
X112685000Y-108627000D01*
X115365000Y-108627000D01*
X115365000Y-108641335D01*
G37*
G04 #@! TD.AperFunction*
M02*
