G04 #@! TF.GenerationSoftware,KiCad,Pcbnew,5.1.9*
G04 #@! TF.CreationDate,2020-12-27T16:23:41+01:00*
G04 #@! TF.ProjectId,qc_attiny,71635f61-7474-4696-9e79-2e6b69636164,rev?*
G04 #@! TF.SameCoordinates,Original*
G04 #@! TF.FileFunction,Soldermask,Top*
G04 #@! TF.FilePolarity,Negative*
%FSLAX46Y46*%
G04 Gerber Fmt 4.6, Leading zero omitted, Abs format (unit mm)*
G04 Created by KiCad (PCBNEW 5.1.9) date 2020-12-27 16:23:41*
%MOMM*%
%LPD*%
G01*
G04 APERTURE LIST*
%ADD10R,3.000000X3.000000*%
%ADD11O,1.700000X1.700000*%
%ADD12R,1.700000X1.700000*%
%ADD13R,1.060000X0.650000*%
%ADD14O,1.600000X1.600000*%
%ADD15R,1.600000X1.600000*%
%ADD16C,1.600000*%
%ADD17R,1.500000X1.600000*%
%ADD18C,3.000000*%
G04 APERTURE END LIST*
G36*
G01*
X137840000Y-107100000D02*
X137540000Y-107100000D01*
G75*
G02*
X137390000Y-106950000I0J150000D01*
G01*
X137390000Y-105300000D01*
G75*
G02*
X137540000Y-105150000I150000J0D01*
G01*
X137840000Y-105150000D01*
G75*
G02*
X137990000Y-105300000I0J-150000D01*
G01*
X137990000Y-106950000D01*
G75*
G02*
X137840000Y-107100000I-150000J0D01*
G01*
G37*
G36*
G01*
X139110000Y-107100000D02*
X138810000Y-107100000D01*
G75*
G02*
X138660000Y-106950000I0J150000D01*
G01*
X138660000Y-105300000D01*
G75*
G02*
X138810000Y-105150000I150000J0D01*
G01*
X139110000Y-105150000D01*
G75*
G02*
X139260000Y-105300000I0J-150000D01*
G01*
X139260000Y-106950000D01*
G75*
G02*
X139110000Y-107100000I-150000J0D01*
G01*
G37*
G36*
G01*
X140380000Y-107100000D02*
X140080000Y-107100000D01*
G75*
G02*
X139930000Y-106950000I0J150000D01*
G01*
X139930000Y-105300000D01*
G75*
G02*
X140080000Y-105150000I150000J0D01*
G01*
X140380000Y-105150000D01*
G75*
G02*
X140530000Y-105300000I0J-150000D01*
G01*
X140530000Y-106950000D01*
G75*
G02*
X140380000Y-107100000I-150000J0D01*
G01*
G37*
G36*
G01*
X141650000Y-107100000D02*
X141350000Y-107100000D01*
G75*
G02*
X141200000Y-106950000I0J150000D01*
G01*
X141200000Y-105300000D01*
G75*
G02*
X141350000Y-105150000I150000J0D01*
G01*
X141650000Y-105150000D01*
G75*
G02*
X141800000Y-105300000I0J-150000D01*
G01*
X141800000Y-106950000D01*
G75*
G02*
X141650000Y-107100000I-150000J0D01*
G01*
G37*
G36*
G01*
X142920000Y-107100000D02*
X142620000Y-107100000D01*
G75*
G02*
X142470000Y-106950000I0J150000D01*
G01*
X142470000Y-105300000D01*
G75*
G02*
X142620000Y-105150000I150000J0D01*
G01*
X142920000Y-105150000D01*
G75*
G02*
X143070000Y-105300000I0J-150000D01*
G01*
X143070000Y-106950000D01*
G75*
G02*
X142920000Y-107100000I-150000J0D01*
G01*
G37*
G36*
G01*
X144190000Y-107100000D02*
X143890000Y-107100000D01*
G75*
G02*
X143740000Y-106950000I0J150000D01*
G01*
X143740000Y-105300000D01*
G75*
G02*
X143890000Y-105150000I150000J0D01*
G01*
X144190000Y-105150000D01*
G75*
G02*
X144340000Y-105300000I0J-150000D01*
G01*
X144340000Y-106950000D01*
G75*
G02*
X144190000Y-107100000I-150000J0D01*
G01*
G37*
G36*
G01*
X145460000Y-107100000D02*
X145160000Y-107100000D01*
G75*
G02*
X145010000Y-106950000I0J150000D01*
G01*
X145010000Y-105300000D01*
G75*
G02*
X145160000Y-105150000I150000J0D01*
G01*
X145460000Y-105150000D01*
G75*
G02*
X145610000Y-105300000I0J-150000D01*
G01*
X145610000Y-106950000D01*
G75*
G02*
X145460000Y-107100000I-150000J0D01*
G01*
G37*
G36*
G01*
X145460000Y-112050000D02*
X145160000Y-112050000D01*
G75*
G02*
X145010000Y-111900000I0J150000D01*
G01*
X145010000Y-110250000D01*
G75*
G02*
X145160000Y-110100000I150000J0D01*
G01*
X145460000Y-110100000D01*
G75*
G02*
X145610000Y-110250000I0J-150000D01*
G01*
X145610000Y-111900000D01*
G75*
G02*
X145460000Y-112050000I-150000J0D01*
G01*
G37*
G36*
G01*
X144190000Y-112050000D02*
X143890000Y-112050000D01*
G75*
G02*
X143740000Y-111900000I0J150000D01*
G01*
X143740000Y-110250000D01*
G75*
G02*
X143890000Y-110100000I150000J0D01*
G01*
X144190000Y-110100000D01*
G75*
G02*
X144340000Y-110250000I0J-150000D01*
G01*
X144340000Y-111900000D01*
G75*
G02*
X144190000Y-112050000I-150000J0D01*
G01*
G37*
G36*
G01*
X142920000Y-112050000D02*
X142620000Y-112050000D01*
G75*
G02*
X142470000Y-111900000I0J150000D01*
G01*
X142470000Y-110250000D01*
G75*
G02*
X142620000Y-110100000I150000J0D01*
G01*
X142920000Y-110100000D01*
G75*
G02*
X143070000Y-110250000I0J-150000D01*
G01*
X143070000Y-111900000D01*
G75*
G02*
X142920000Y-112050000I-150000J0D01*
G01*
G37*
G36*
G01*
X141650000Y-112050000D02*
X141350000Y-112050000D01*
G75*
G02*
X141200000Y-111900000I0J150000D01*
G01*
X141200000Y-110250000D01*
G75*
G02*
X141350000Y-110100000I150000J0D01*
G01*
X141650000Y-110100000D01*
G75*
G02*
X141800000Y-110250000I0J-150000D01*
G01*
X141800000Y-111900000D01*
G75*
G02*
X141650000Y-112050000I-150000J0D01*
G01*
G37*
G36*
G01*
X140380000Y-112050000D02*
X140080000Y-112050000D01*
G75*
G02*
X139930000Y-111900000I0J150000D01*
G01*
X139930000Y-110250000D01*
G75*
G02*
X140080000Y-110100000I150000J0D01*
G01*
X140380000Y-110100000D01*
G75*
G02*
X140530000Y-110250000I0J-150000D01*
G01*
X140530000Y-111900000D01*
G75*
G02*
X140380000Y-112050000I-150000J0D01*
G01*
G37*
G36*
G01*
X139110000Y-112050000D02*
X138810000Y-112050000D01*
G75*
G02*
X138660000Y-111900000I0J150000D01*
G01*
X138660000Y-110250000D01*
G75*
G02*
X138810000Y-110100000I150000J0D01*
G01*
X139110000Y-110100000D01*
G75*
G02*
X139260000Y-110250000I0J-150000D01*
G01*
X139260000Y-111900000D01*
G75*
G02*
X139110000Y-112050000I-150000J0D01*
G01*
G37*
G36*
G01*
X137840000Y-112050000D02*
X137540000Y-112050000D01*
G75*
G02*
X137390000Y-111900000I0J150000D01*
G01*
X137390000Y-110250000D01*
G75*
G02*
X137540000Y-110100000I150000J0D01*
G01*
X137840000Y-110100000D01*
G75*
G02*
X137990000Y-110250000I0J-150000D01*
G01*
X137990000Y-111900000D01*
G75*
G02*
X137840000Y-112050000I-150000J0D01*
G01*
G37*
D10*
X159100000Y-111000000D03*
X159100000Y-104300000D03*
G36*
G01*
X136575000Y-118900000D02*
X137825000Y-118900000D01*
G75*
G02*
X138075000Y-119150000I0J-250000D01*
G01*
X138075000Y-119950000D01*
G75*
G02*
X137825000Y-120200000I-250000J0D01*
G01*
X136575000Y-120200000D01*
G75*
G02*
X136325000Y-119950000I0J250000D01*
G01*
X136325000Y-119150000D01*
G75*
G02*
X136575000Y-118900000I250000J0D01*
G01*
G37*
G36*
G01*
X136575000Y-115800000D02*
X137825000Y-115800000D01*
G75*
G02*
X138075000Y-116050000I0J-250000D01*
G01*
X138075000Y-116850000D01*
G75*
G02*
X137825000Y-117100000I-250000J0D01*
G01*
X136575000Y-117100000D01*
G75*
G02*
X136325000Y-116850000I0J250000D01*
G01*
X136325000Y-116050000D01*
G75*
G02*
X136575000Y-115800000I250000J0D01*
G01*
G37*
G36*
G01*
X138325000Y-122237500D02*
X138325000Y-121762500D01*
G75*
G02*
X138562500Y-121525000I237500J0D01*
G01*
X139062500Y-121525000D01*
G75*
G02*
X139300000Y-121762500I0J-237500D01*
G01*
X139300000Y-122237500D01*
G75*
G02*
X139062500Y-122475000I-237500J0D01*
G01*
X138562500Y-122475000D01*
G75*
G02*
X138325000Y-122237500I0J237500D01*
G01*
G37*
G36*
G01*
X136500000Y-122237500D02*
X136500000Y-121762500D01*
G75*
G02*
X136737500Y-121525000I237500J0D01*
G01*
X137237500Y-121525000D01*
G75*
G02*
X137475000Y-121762500I0J-237500D01*
G01*
X137475000Y-122237500D01*
G75*
G02*
X137237500Y-122475000I-237500J0D01*
G01*
X136737500Y-122475000D01*
G75*
G02*
X136500000Y-122237500I0J237500D01*
G01*
G37*
D11*
X142020000Y-101540000D03*
X142020000Y-99000000D03*
X144560000Y-101540000D03*
X144560000Y-99000000D03*
X147100000Y-101540000D03*
D12*
X147100000Y-99000000D03*
X146400000Y-121600000D03*
D11*
X146400000Y-116520000D03*
D12*
X156100000Y-121500000D03*
D11*
X156100000Y-116420000D03*
D12*
X152100000Y-111200000D03*
D11*
X152100000Y-106120000D03*
D13*
X133500000Y-98750000D03*
X133500000Y-100650000D03*
X131300000Y-100650000D03*
X131300000Y-99700000D03*
X131300000Y-98750000D03*
D14*
X129100000Y-122120000D03*
X124020000Y-114500000D03*
X126560000Y-122120000D03*
X126560000Y-114500000D03*
X124020000Y-122120000D03*
D15*
X129100000Y-114500000D03*
G36*
G01*
X139275000Y-118800000D02*
X140525000Y-118800000D01*
G75*
G02*
X140775000Y-119050000I0J-250000D01*
G01*
X140775000Y-119850000D01*
G75*
G02*
X140525000Y-120100000I-250000J0D01*
G01*
X139275000Y-120100000D01*
G75*
G02*
X139025000Y-119850000I0J250000D01*
G01*
X139025000Y-119050000D01*
G75*
G02*
X139275000Y-118800000I250000J0D01*
G01*
G37*
G36*
G01*
X139275000Y-115700000D02*
X140525000Y-115700000D01*
G75*
G02*
X140775000Y-115950000I0J-250000D01*
G01*
X140775000Y-116750000D01*
G75*
G02*
X140525000Y-117000000I-250000J0D01*
G01*
X139275000Y-117000000D01*
G75*
G02*
X139025000Y-116750000I0J250000D01*
G01*
X139025000Y-115950000D01*
G75*
G02*
X139275000Y-115700000I250000J0D01*
G01*
G37*
G36*
G01*
X153500000Y-102525000D02*
X153500000Y-101275000D01*
G75*
G02*
X153750000Y-101025000I250000J0D01*
G01*
X154550000Y-101025000D01*
G75*
G02*
X154800000Y-101275000I0J-250000D01*
G01*
X154800000Y-102525000D01*
G75*
G02*
X154550000Y-102775000I-250000J0D01*
G01*
X153750000Y-102775000D01*
G75*
G02*
X153500000Y-102525000I0J250000D01*
G01*
G37*
G36*
G01*
X150400000Y-102525000D02*
X150400000Y-101275000D01*
G75*
G02*
X150650000Y-101025000I250000J0D01*
G01*
X151450000Y-101025000D01*
G75*
G02*
X151700000Y-101275000I0J-250000D01*
G01*
X151700000Y-102525000D01*
G75*
G02*
X151450000Y-102775000I-250000J0D01*
G01*
X150650000Y-102775000D01*
G75*
G02*
X150400000Y-102525000I0J250000D01*
G01*
G37*
G36*
G01*
X134925000Y-117100000D02*
X133675000Y-117100000D01*
G75*
G02*
X133425000Y-116850000I0J250000D01*
G01*
X133425000Y-116050000D01*
G75*
G02*
X133675000Y-115800000I250000J0D01*
G01*
X134925000Y-115800000D01*
G75*
G02*
X135175000Y-116050000I0J-250000D01*
G01*
X135175000Y-116850000D01*
G75*
G02*
X134925000Y-117100000I-250000J0D01*
G01*
G37*
G36*
G01*
X134925000Y-120200000D02*
X133675000Y-120200000D01*
G75*
G02*
X133425000Y-119950000I0J250000D01*
G01*
X133425000Y-119150000D01*
G75*
G02*
X133675000Y-118900000I250000J0D01*
G01*
X134925000Y-118900000D01*
G75*
G02*
X135175000Y-119150000I0J-250000D01*
G01*
X135175000Y-119950000D01*
G75*
G02*
X134925000Y-120200000I-250000J0D01*
G01*
G37*
G36*
G01*
X128200000Y-108775000D02*
X128200000Y-110025000D01*
G75*
G02*
X127950000Y-110275000I-250000J0D01*
G01*
X127150000Y-110275000D01*
G75*
G02*
X126900000Y-110025000I0J250000D01*
G01*
X126900000Y-108775000D01*
G75*
G02*
X127150000Y-108525000I250000J0D01*
G01*
X127950000Y-108525000D01*
G75*
G02*
X128200000Y-108775000I0J-250000D01*
G01*
G37*
G36*
G01*
X131300000Y-108775000D02*
X131300000Y-110025000D01*
G75*
G02*
X131050000Y-110275000I-250000J0D01*
G01*
X130250000Y-110275000D01*
G75*
G02*
X130000000Y-110025000I0J250000D01*
G01*
X130000000Y-108775000D01*
G75*
G02*
X130250000Y-108525000I250000J0D01*
G01*
X131050000Y-108525000D01*
G75*
G02*
X131300000Y-108775000I0J-250000D01*
G01*
G37*
G36*
G01*
X124100000Y-110025000D02*
X124100000Y-108775000D01*
G75*
G02*
X124350000Y-108525000I250000J0D01*
G01*
X125150000Y-108525000D01*
G75*
G02*
X125400000Y-108775000I0J-250000D01*
G01*
X125400000Y-110025000D01*
G75*
G02*
X125150000Y-110275000I-250000J0D01*
G01*
X124350000Y-110275000D01*
G75*
G02*
X124100000Y-110025000I0J250000D01*
G01*
G37*
G36*
G01*
X121000000Y-110025000D02*
X121000000Y-108775000D01*
G75*
G02*
X121250000Y-108525000I250000J0D01*
G01*
X122050000Y-108525000D01*
G75*
G02*
X122300000Y-108775000I0J-250000D01*
G01*
X122300000Y-110025000D01*
G75*
G02*
X122050000Y-110275000I-250000J0D01*
G01*
X121250000Y-110275000D01*
G75*
G02*
X121000000Y-110025000I0J250000D01*
G01*
G37*
G36*
G01*
X128200000Y-106075000D02*
X128200000Y-107325000D01*
G75*
G02*
X127950000Y-107575000I-250000J0D01*
G01*
X127150000Y-107575000D01*
G75*
G02*
X126900000Y-107325000I0J250000D01*
G01*
X126900000Y-106075000D01*
G75*
G02*
X127150000Y-105825000I250000J0D01*
G01*
X127950000Y-105825000D01*
G75*
G02*
X128200000Y-106075000I0J-250000D01*
G01*
G37*
G36*
G01*
X131300000Y-106075000D02*
X131300000Y-107325000D01*
G75*
G02*
X131050000Y-107575000I-250000J0D01*
G01*
X130250000Y-107575000D01*
G75*
G02*
X130000000Y-107325000I0J250000D01*
G01*
X130000000Y-106075000D01*
G75*
G02*
X130250000Y-105825000I250000J0D01*
G01*
X131050000Y-105825000D01*
G75*
G02*
X131300000Y-106075000I0J-250000D01*
G01*
G37*
G36*
G01*
X124100000Y-107325000D02*
X124100000Y-106075000D01*
G75*
G02*
X124350000Y-105825000I250000J0D01*
G01*
X125150000Y-105825000D01*
G75*
G02*
X125400000Y-106075000I0J-250000D01*
G01*
X125400000Y-107325000D01*
G75*
G02*
X125150000Y-107575000I-250000J0D01*
G01*
X124350000Y-107575000D01*
G75*
G02*
X124100000Y-107325000I0J250000D01*
G01*
G37*
G36*
G01*
X121000000Y-107325000D02*
X121000000Y-106075000D01*
G75*
G02*
X121250000Y-105825000I250000J0D01*
G01*
X122050000Y-105825000D01*
G75*
G02*
X122300000Y-106075000I0J-250000D01*
G01*
X122300000Y-107325000D01*
G75*
G02*
X122050000Y-107575000I-250000J0D01*
G01*
X121250000Y-107575000D01*
G75*
G02*
X121000000Y-107325000I0J250000D01*
G01*
G37*
D16*
X116800000Y-111000000D03*
X116800000Y-108500000D03*
X116800000Y-106500000D03*
D17*
X116800000Y-104000000D03*
D18*
X114090000Y-114070000D03*
X114090000Y-100930000D03*
G36*
G01*
X133300000Y-103950001D02*
X133300000Y-102649999D01*
G75*
G02*
X133549999Y-102400000I249999J0D01*
G01*
X134375001Y-102400000D01*
G75*
G02*
X134625000Y-102649999I0J-249999D01*
G01*
X134625000Y-103950001D01*
G75*
G02*
X134375001Y-104200000I-249999J0D01*
G01*
X133549999Y-104200000D01*
G75*
G02*
X133300000Y-103950001I0J249999D01*
G01*
G37*
G36*
G01*
X130175000Y-103950001D02*
X130175000Y-102649999D01*
G75*
G02*
X130424999Y-102400000I249999J0D01*
G01*
X131250001Y-102400000D01*
G75*
G02*
X131500000Y-102649999I0J-249999D01*
G01*
X131500000Y-103950001D01*
G75*
G02*
X131250001Y-104200000I-249999J0D01*
G01*
X130424999Y-104200000D01*
G75*
G02*
X130175000Y-103950001I0J249999D01*
G01*
G37*
G36*
G01*
X138350001Y-99400000D02*
X137049999Y-99400000D01*
G75*
G02*
X136800000Y-99150001I0J249999D01*
G01*
X136800000Y-98324999D01*
G75*
G02*
X137049999Y-98075000I249999J0D01*
G01*
X138350001Y-98075000D01*
G75*
G02*
X138600000Y-98324999I0J-249999D01*
G01*
X138600000Y-99150001D01*
G75*
G02*
X138350001Y-99400000I-249999J0D01*
G01*
G37*
G36*
G01*
X138350001Y-102525000D02*
X137049999Y-102525000D01*
G75*
G02*
X136800000Y-102275001I0J249999D01*
G01*
X136800000Y-101449999D01*
G75*
G02*
X137049999Y-101200000I249999J0D01*
G01*
X138350001Y-101200000D01*
G75*
G02*
X138600000Y-101449999I0J-249999D01*
G01*
X138600000Y-102275001D01*
G75*
G02*
X138350001Y-102525000I-249999J0D01*
G01*
G37*
M02*
