G04 #@! TF.GenerationSoftware,KiCad,Pcbnew,5.1.9*
G04 #@! TF.CreationDate,2020-12-27T16:23:41+01:00*
G04 #@! TF.ProjectId,qc_attiny,71635f61-7474-4696-9e79-2e6b69636164,rev?*
G04 #@! TF.SameCoordinates,Original*
G04 #@! TF.FileFunction,Legend,Top*
G04 #@! TF.FilePolarity,Positive*
%FSLAX46Y46*%
G04 Gerber Fmt 4.6, Leading zero omitted, Abs format (unit mm)*
G04 Created by KiCad (PCBNEW 5.1.9) date 2020-12-27 16:23:41*
%MOMM*%
%LPD*%
G01*
G04 APERTURE LIST*
%ADD10C,0.150000*%
%ADD11C,0.300000*%
%ADD12C,0.200000*%
%ADD13C,0.120000*%
G04 APERTURE END LIST*
D10*
X154980952Y-124552380D02*
X154980952Y-123552380D01*
X155219047Y-123552380D01*
X155361904Y-123600000D01*
X155457142Y-123695238D01*
X155504761Y-123790476D01*
X155552380Y-123980952D01*
X155552380Y-124123809D01*
X155504761Y-124314285D01*
X155457142Y-124409523D01*
X155361904Y-124504761D01*
X155219047Y-124552380D01*
X154980952Y-124552380D01*
X156361904Y-124504761D02*
X156266666Y-124552380D01*
X156076190Y-124552380D01*
X155980952Y-124504761D01*
X155933333Y-124409523D01*
X155933333Y-124028571D01*
X155980952Y-123933333D01*
X156076190Y-123885714D01*
X156266666Y-123885714D01*
X156361904Y-123933333D01*
X156409523Y-124028571D01*
X156409523Y-124123809D01*
X155933333Y-124219047D01*
X157266666Y-124504761D02*
X157171428Y-124552380D01*
X156980952Y-124552380D01*
X156885714Y-124504761D01*
X156838095Y-124457142D01*
X156790476Y-124361904D01*
X156790476Y-124076190D01*
X156838095Y-123980952D01*
X156885714Y-123933333D01*
X156980952Y-123885714D01*
X157171428Y-123885714D01*
X157266666Y-123933333D01*
X145519047Y-124552380D02*
X145519047Y-123552380D01*
X145995238Y-123885714D02*
X145995238Y-124552380D01*
X145995238Y-123980952D02*
X146042857Y-123933333D01*
X146138095Y-123885714D01*
X146280952Y-123885714D01*
X146376190Y-123933333D01*
X146423809Y-124028571D01*
X146423809Y-124552380D01*
X147328571Y-124504761D02*
X147233333Y-124552380D01*
X147042857Y-124552380D01*
X146947619Y-124504761D01*
X146900000Y-124457142D01*
X146852380Y-124361904D01*
X146852380Y-124076190D01*
X146900000Y-123980952D01*
X146947619Y-123933333D01*
X147042857Y-123885714D01*
X147233333Y-123885714D01*
X147328571Y-123933333D01*
D11*
X158628571Y-113807142D02*
X159771428Y-113807142D01*
X158528571Y-101407142D02*
X159671428Y-101407142D01*
X159100000Y-101978571D02*
X159100000Y-100835714D01*
D12*
X113615714Y-92425000D02*
X114330000Y-92425000D01*
X113472857Y-92853571D02*
X113972857Y-91353571D01*
X114472857Y-92853571D01*
X114758571Y-91353571D02*
X115615714Y-91353571D01*
X115187142Y-92853571D02*
X115187142Y-91353571D01*
X115901428Y-91853571D02*
X116472857Y-91853571D01*
X116115714Y-91353571D02*
X116115714Y-92639285D01*
X116187142Y-92782142D01*
X116330000Y-92853571D01*
X116472857Y-92853571D01*
X116972857Y-92853571D02*
X116972857Y-91853571D01*
X116972857Y-91353571D02*
X116901428Y-91425000D01*
X116972857Y-91496428D01*
X117044285Y-91425000D01*
X116972857Y-91353571D01*
X116972857Y-91496428D01*
X117687142Y-91853571D02*
X117687142Y-92853571D01*
X117687142Y-91996428D02*
X117758571Y-91925000D01*
X117901428Y-91853571D01*
X118115714Y-91853571D01*
X118258571Y-91925000D01*
X118330000Y-92067857D01*
X118330000Y-92853571D01*
X118901428Y-91853571D02*
X119258571Y-92853571D01*
X119615714Y-91853571D02*
X119258571Y-92853571D01*
X119115714Y-93210714D01*
X119044285Y-93282142D01*
X118901428Y-93353571D01*
X122330000Y-92996428D02*
X122187142Y-92925000D01*
X122044285Y-92782142D01*
X121830000Y-92567857D01*
X121687142Y-92496428D01*
X121544285Y-92496428D01*
X121615714Y-92853571D02*
X121472857Y-92782142D01*
X121330000Y-92639285D01*
X121258571Y-92353571D01*
X121258571Y-91853571D01*
X121330000Y-91567857D01*
X121472857Y-91425000D01*
X121615714Y-91353571D01*
X121901428Y-91353571D01*
X122044285Y-91425000D01*
X122187142Y-91567857D01*
X122258571Y-91853571D01*
X122258571Y-92353571D01*
X122187142Y-92639285D01*
X122044285Y-92782142D01*
X121901428Y-92853571D01*
X121615714Y-92853571D01*
X123758571Y-92710714D02*
X123687142Y-92782142D01*
X123472857Y-92853571D01*
X123330000Y-92853571D01*
X123115714Y-92782142D01*
X122972857Y-92639285D01*
X122901428Y-92496428D01*
X122830000Y-92210714D01*
X122830000Y-91996428D01*
X122901428Y-91710714D01*
X122972857Y-91567857D01*
X123115714Y-91425000D01*
X123330000Y-91353571D01*
X123472857Y-91353571D01*
X123687142Y-91425000D01*
X123758571Y-91496428D01*
X126187142Y-92782142D02*
X126044285Y-92853571D01*
X125758571Y-92853571D01*
X125615714Y-92782142D01*
X125544285Y-92710714D01*
X125472857Y-92567857D01*
X125472857Y-92139285D01*
X125544285Y-91996428D01*
X125615714Y-91925000D01*
X125758571Y-91853571D01*
X126044285Y-91853571D01*
X126187142Y-91925000D01*
X127044285Y-92853571D02*
X126901428Y-92782142D01*
X126830000Y-92710714D01*
X126758571Y-92567857D01*
X126758571Y-92139285D01*
X126830000Y-91996428D01*
X126901428Y-91925000D01*
X127044285Y-91853571D01*
X127258571Y-91853571D01*
X127401428Y-91925000D01*
X127472857Y-91996428D01*
X127544285Y-92139285D01*
X127544285Y-92567857D01*
X127472857Y-92710714D01*
X127401428Y-92782142D01*
X127258571Y-92853571D01*
X127044285Y-92853571D01*
X128187142Y-91853571D02*
X128187142Y-92853571D01*
X128187142Y-91996428D02*
X128258571Y-91925000D01*
X128401428Y-91853571D01*
X128615714Y-91853571D01*
X128758571Y-91925000D01*
X128830000Y-92067857D01*
X128830000Y-92853571D01*
X129330000Y-91853571D02*
X129901428Y-91853571D01*
X129544285Y-91353571D02*
X129544285Y-92639285D01*
X129615714Y-92782142D01*
X129758571Y-92853571D01*
X129901428Y-92853571D01*
X130401428Y-92853571D02*
X130401428Y-91853571D01*
X130401428Y-92139285D02*
X130472857Y-91996428D01*
X130544285Y-91925000D01*
X130687142Y-91853571D01*
X130830000Y-91853571D01*
X131544285Y-92853571D02*
X131401428Y-92782142D01*
X131330000Y-92710714D01*
X131258571Y-92567857D01*
X131258571Y-92139285D01*
X131330000Y-91996428D01*
X131401428Y-91925000D01*
X131544285Y-91853571D01*
X131758571Y-91853571D01*
X131901428Y-91925000D01*
X131972857Y-91996428D01*
X132044285Y-92139285D01*
X132044285Y-92567857D01*
X131972857Y-92710714D01*
X131901428Y-92782142D01*
X131758571Y-92853571D01*
X131544285Y-92853571D01*
X132901428Y-92853571D02*
X132758571Y-92782142D01*
X132687142Y-92639285D01*
X132687142Y-91353571D01*
X133687142Y-92853571D02*
X133544285Y-92782142D01*
X133472857Y-92639285D01*
X133472857Y-91353571D01*
X134830000Y-92782142D02*
X134687142Y-92853571D01*
X134401428Y-92853571D01*
X134258571Y-92782142D01*
X134187142Y-92639285D01*
X134187142Y-92067857D01*
X134258571Y-91925000D01*
X134401428Y-91853571D01*
X134687142Y-91853571D01*
X134830000Y-91925000D01*
X134901428Y-92067857D01*
X134901428Y-92210714D01*
X134187142Y-92353571D01*
X135544285Y-92853571D02*
X135544285Y-91853571D01*
X135544285Y-92139285D02*
X135615714Y-91996428D01*
X135687142Y-91925000D01*
X135830000Y-91853571D01*
X135972857Y-91853571D01*
X114115714Y-93803571D02*
X114115714Y-94875000D01*
X114044285Y-95089285D01*
X113901428Y-95232142D01*
X113687142Y-95303571D01*
X113544285Y-95303571D01*
X115472857Y-95303571D02*
X115472857Y-94517857D01*
X115401428Y-94375000D01*
X115258571Y-94303571D01*
X114972857Y-94303571D01*
X114830000Y-94375000D01*
X115472857Y-95232142D02*
X115330000Y-95303571D01*
X114972857Y-95303571D01*
X114830000Y-95232142D01*
X114758571Y-95089285D01*
X114758571Y-94946428D01*
X114830000Y-94803571D01*
X114972857Y-94732142D01*
X115330000Y-94732142D01*
X115472857Y-94660714D01*
X116187142Y-94303571D02*
X116187142Y-95303571D01*
X116187142Y-94446428D02*
X116258571Y-94375000D01*
X116401428Y-94303571D01*
X116615714Y-94303571D01*
X116758571Y-94375000D01*
X116830000Y-94517857D01*
X116830000Y-95303571D01*
X118472857Y-93803571D02*
X118972857Y-95303571D01*
X119472857Y-93803571D01*
X119972857Y-95303571D02*
X119972857Y-94303571D01*
X119972857Y-94589285D02*
X120044285Y-94446428D01*
X120115714Y-94375000D01*
X120258571Y-94303571D01*
X120401428Y-94303571D01*
X120901428Y-95303571D02*
X120901428Y-93803571D01*
X121544285Y-95303571D02*
X121544285Y-94517857D01*
X121472857Y-94375000D01*
X121330000Y-94303571D01*
X121115714Y-94303571D01*
X120972857Y-94375000D01*
X120901428Y-94446428D01*
X122472857Y-95303571D02*
X122330000Y-95232142D01*
X122258571Y-95160714D01*
X122187142Y-95017857D01*
X122187142Y-94589285D01*
X122258571Y-94446428D01*
X122330000Y-94375000D01*
X122472857Y-94303571D01*
X122687142Y-94303571D01*
X122830000Y-94375000D01*
X122901428Y-94446428D01*
X122972857Y-94589285D01*
X122972857Y-95017857D01*
X122901428Y-95160714D01*
X122830000Y-95232142D01*
X122687142Y-95303571D01*
X122472857Y-95303571D01*
X123472857Y-94303571D02*
X123830000Y-95303571D01*
X124187142Y-94303571D01*
X125330000Y-95232142D02*
X125187142Y-95303571D01*
X124901428Y-95303571D01*
X124758571Y-95232142D01*
X124687142Y-95089285D01*
X124687142Y-94517857D01*
X124758571Y-94375000D01*
X124901428Y-94303571D01*
X125187142Y-94303571D01*
X125330000Y-94375000D01*
X125401428Y-94517857D01*
X125401428Y-94660714D01*
X124687142Y-94803571D01*
X126687142Y-95232142D02*
X126544285Y-95303571D01*
X126258571Y-95303571D01*
X126115714Y-95232142D01*
X126044285Y-95160714D01*
X125972857Y-95017857D01*
X125972857Y-94589285D01*
X126044285Y-94446428D01*
X126115714Y-94375000D01*
X126258571Y-94303571D01*
X126544285Y-94303571D01*
X126687142Y-94375000D01*
X127401428Y-95232142D02*
X127401428Y-95303571D01*
X127330000Y-95446428D01*
X127258571Y-95517857D01*
X129115714Y-93946428D02*
X129187142Y-93875000D01*
X129330000Y-93803571D01*
X129687142Y-93803571D01*
X129830000Y-93875000D01*
X129901428Y-93946428D01*
X129972857Y-94089285D01*
X129972857Y-94232142D01*
X129901428Y-94446428D01*
X129044285Y-95303571D01*
X129972857Y-95303571D01*
X130901428Y-93803571D02*
X131044285Y-93803571D01*
X131187142Y-93875000D01*
X131258571Y-93946428D01*
X131330000Y-94089285D01*
X131401428Y-94375000D01*
X131401428Y-94732142D01*
X131330000Y-95017857D01*
X131258571Y-95160714D01*
X131187142Y-95232142D01*
X131044285Y-95303571D01*
X130901428Y-95303571D01*
X130758571Y-95232142D01*
X130687142Y-95160714D01*
X130615714Y-95017857D01*
X130544285Y-94732142D01*
X130544285Y-94375000D01*
X130615714Y-94089285D01*
X130687142Y-93946428D01*
X130758571Y-93875000D01*
X130901428Y-93803571D01*
X131972857Y-93946428D02*
X132044285Y-93875000D01*
X132187142Y-93803571D01*
X132544285Y-93803571D01*
X132687142Y-93875000D01*
X132758571Y-93946428D01*
X132830000Y-94089285D01*
X132830000Y-94232142D01*
X132758571Y-94446428D01*
X131901428Y-95303571D01*
X132830000Y-95303571D01*
X133758571Y-93803571D02*
X133901428Y-93803571D01*
X134044285Y-93875000D01*
X134115714Y-93946428D01*
X134187142Y-94089285D01*
X134258571Y-94375000D01*
X134258571Y-94732142D01*
X134187142Y-95017857D01*
X134115714Y-95160714D01*
X134044285Y-95232142D01*
X133901428Y-95303571D01*
X133758571Y-95303571D01*
X133615714Y-95232142D01*
X133544285Y-95160714D01*
X133472857Y-95017857D01*
X133401428Y-94732142D01*
X133401428Y-94375000D01*
X133472857Y-94089285D01*
X133544285Y-93946428D01*
X133615714Y-93875000D01*
X133758571Y-93803571D01*
D10*
X113326071Y-116652380D02*
X113421309Y-116652380D01*
X113516547Y-116700000D01*
X113564166Y-116747619D01*
X113611785Y-116842857D01*
X113659404Y-117033333D01*
X113659404Y-117271428D01*
X113611785Y-117461904D01*
X113564166Y-117557142D01*
X113516547Y-117604761D01*
X113421309Y-117652380D01*
X113326071Y-117652380D01*
X113230833Y-117604761D01*
X113183214Y-117557142D01*
X113135595Y-117461904D01*
X113087976Y-117271428D01*
X113087976Y-117033333D01*
X113135595Y-116842857D01*
X113183214Y-116747619D01*
X113230833Y-116700000D01*
X113326071Y-116652380D01*
X114278452Y-116652380D02*
X114373690Y-116652380D01*
X114468928Y-116700000D01*
X114516547Y-116747619D01*
X114564166Y-116842857D01*
X114611785Y-117033333D01*
X114611785Y-117271428D01*
X114564166Y-117461904D01*
X114516547Y-117557142D01*
X114468928Y-117604761D01*
X114373690Y-117652380D01*
X114278452Y-117652380D01*
X114183214Y-117604761D01*
X114135595Y-117557142D01*
X114087976Y-117461904D01*
X114040357Y-117271428D01*
X114040357Y-117033333D01*
X114087976Y-116842857D01*
X114135595Y-116747619D01*
X114183214Y-116700000D01*
X114278452Y-116652380D01*
X115230833Y-116652380D02*
X115326071Y-116652380D01*
X115421309Y-116700000D01*
X115468928Y-116747619D01*
X115516547Y-116842857D01*
X115564166Y-117033333D01*
X115564166Y-117271428D01*
X115516547Y-117461904D01*
X115468928Y-117557142D01*
X115421309Y-117604761D01*
X115326071Y-117652380D01*
X115230833Y-117652380D01*
X115135595Y-117604761D01*
X115087976Y-117557142D01*
X115040357Y-117461904D01*
X114992738Y-117271428D01*
X114992738Y-117033333D01*
X115040357Y-116842857D01*
X115087976Y-116747619D01*
X115135595Y-116700000D01*
X115230833Y-116652380D01*
X115992738Y-117557142D02*
X116040357Y-117604761D01*
X115992738Y-117652380D01*
X115945119Y-117604761D01*
X115992738Y-117557142D01*
X115992738Y-117652380D01*
X115992738Y-117033333D02*
X116040357Y-117080952D01*
X115992738Y-117128571D01*
X115945119Y-117080952D01*
X115992738Y-117033333D01*
X115992738Y-117128571D01*
X117707023Y-116652380D02*
X117230833Y-116652380D01*
X117183214Y-117128571D01*
X117230833Y-117080952D01*
X117326071Y-117033333D01*
X117564166Y-117033333D01*
X117659404Y-117080952D01*
X117707023Y-117128571D01*
X117754642Y-117223809D01*
X117754642Y-117461904D01*
X117707023Y-117557142D01*
X117659404Y-117604761D01*
X117564166Y-117652380D01*
X117326071Y-117652380D01*
X117230833Y-117604761D01*
X117183214Y-117557142D01*
X118040357Y-116652380D02*
X118373690Y-117652380D01*
X118707023Y-116652380D01*
X113326071Y-118302380D02*
X113421309Y-118302380D01*
X113516547Y-118350000D01*
X113564166Y-118397619D01*
X113611785Y-118492857D01*
X113659404Y-118683333D01*
X113659404Y-118921428D01*
X113611785Y-119111904D01*
X113564166Y-119207142D01*
X113516547Y-119254761D01*
X113421309Y-119302380D01*
X113326071Y-119302380D01*
X113230833Y-119254761D01*
X113183214Y-119207142D01*
X113135595Y-119111904D01*
X113087976Y-118921428D01*
X113087976Y-118683333D01*
X113135595Y-118492857D01*
X113183214Y-118397619D01*
X113230833Y-118350000D01*
X113326071Y-118302380D01*
X114278452Y-118302380D02*
X114373690Y-118302380D01*
X114468928Y-118350000D01*
X114516547Y-118397619D01*
X114564166Y-118492857D01*
X114611785Y-118683333D01*
X114611785Y-118921428D01*
X114564166Y-119111904D01*
X114516547Y-119207142D01*
X114468928Y-119254761D01*
X114373690Y-119302380D01*
X114278452Y-119302380D01*
X114183214Y-119254761D01*
X114135595Y-119207142D01*
X114087976Y-119111904D01*
X114040357Y-118921428D01*
X114040357Y-118683333D01*
X114087976Y-118492857D01*
X114135595Y-118397619D01*
X114183214Y-118350000D01*
X114278452Y-118302380D01*
X115564166Y-119302380D02*
X114992738Y-119302380D01*
X115278452Y-119302380D02*
X115278452Y-118302380D01*
X115183214Y-118445238D01*
X115087976Y-118540476D01*
X114992738Y-118588095D01*
X115992738Y-119207142D02*
X116040357Y-119254761D01*
X115992738Y-119302380D01*
X115945119Y-119254761D01*
X115992738Y-119207142D01*
X115992738Y-119302380D01*
X115992738Y-118683333D02*
X116040357Y-118730952D01*
X115992738Y-118778571D01*
X115945119Y-118730952D01*
X115992738Y-118683333D01*
X115992738Y-118778571D01*
X117278452Y-119302380D02*
X117468928Y-119302380D01*
X117564166Y-119254761D01*
X117611785Y-119207142D01*
X117707023Y-119064285D01*
X117754642Y-118873809D01*
X117754642Y-118492857D01*
X117707023Y-118397619D01*
X117659404Y-118350000D01*
X117564166Y-118302380D01*
X117373690Y-118302380D01*
X117278452Y-118350000D01*
X117230833Y-118397619D01*
X117183214Y-118492857D01*
X117183214Y-118730952D01*
X117230833Y-118826190D01*
X117278452Y-118873809D01*
X117373690Y-118921428D01*
X117564166Y-118921428D01*
X117659404Y-118873809D01*
X117707023Y-118826190D01*
X117754642Y-118730952D01*
X118040357Y-118302380D02*
X118373690Y-119302380D01*
X118707023Y-118302380D01*
X113326071Y-119952380D02*
X113421309Y-119952380D01*
X113516547Y-120000000D01*
X113564166Y-120047619D01*
X113611785Y-120142857D01*
X113659404Y-120333333D01*
X113659404Y-120571428D01*
X113611785Y-120761904D01*
X113564166Y-120857142D01*
X113516547Y-120904761D01*
X113421309Y-120952380D01*
X113326071Y-120952380D01*
X113230833Y-120904761D01*
X113183214Y-120857142D01*
X113135595Y-120761904D01*
X113087976Y-120571428D01*
X113087976Y-120333333D01*
X113135595Y-120142857D01*
X113183214Y-120047619D01*
X113230833Y-120000000D01*
X113326071Y-119952380D01*
X114611785Y-120952380D02*
X114040357Y-120952380D01*
X114326071Y-120952380D02*
X114326071Y-119952380D01*
X114230833Y-120095238D01*
X114135595Y-120190476D01*
X114040357Y-120238095D01*
X115230833Y-119952380D02*
X115326071Y-119952380D01*
X115421309Y-120000000D01*
X115468928Y-120047619D01*
X115516547Y-120142857D01*
X115564166Y-120333333D01*
X115564166Y-120571428D01*
X115516547Y-120761904D01*
X115468928Y-120857142D01*
X115421309Y-120904761D01*
X115326071Y-120952380D01*
X115230833Y-120952380D01*
X115135595Y-120904761D01*
X115087976Y-120857142D01*
X115040357Y-120761904D01*
X114992738Y-120571428D01*
X114992738Y-120333333D01*
X115040357Y-120142857D01*
X115087976Y-120047619D01*
X115135595Y-120000000D01*
X115230833Y-119952380D01*
X115992738Y-120857142D02*
X116040357Y-120904761D01*
X115992738Y-120952380D01*
X115945119Y-120904761D01*
X115992738Y-120857142D01*
X115992738Y-120952380D01*
X115992738Y-120333333D02*
X116040357Y-120380952D01*
X115992738Y-120428571D01*
X115945119Y-120380952D01*
X115992738Y-120333333D01*
X115992738Y-120428571D01*
X117754642Y-120952380D02*
X117183214Y-120952380D01*
X117468928Y-120952380D02*
X117468928Y-119952380D01*
X117373690Y-120095238D01*
X117278452Y-120190476D01*
X117183214Y-120238095D01*
X118135595Y-120047619D02*
X118183214Y-120000000D01*
X118278452Y-119952380D01*
X118516547Y-119952380D01*
X118611785Y-120000000D01*
X118659404Y-120047619D01*
X118707023Y-120142857D01*
X118707023Y-120238095D01*
X118659404Y-120380952D01*
X118087976Y-120952380D01*
X118707023Y-120952380D01*
X118992738Y-119952380D02*
X119326071Y-120952380D01*
X119659404Y-119952380D01*
X113326071Y-121602380D02*
X113421309Y-121602380D01*
X113516547Y-121650000D01*
X113564166Y-121697619D01*
X113611785Y-121792857D01*
X113659404Y-121983333D01*
X113659404Y-122221428D01*
X113611785Y-122411904D01*
X113564166Y-122507142D01*
X113516547Y-122554761D01*
X113421309Y-122602380D01*
X113326071Y-122602380D01*
X113230833Y-122554761D01*
X113183214Y-122507142D01*
X113135595Y-122411904D01*
X113087976Y-122221428D01*
X113087976Y-121983333D01*
X113135595Y-121792857D01*
X113183214Y-121697619D01*
X113230833Y-121650000D01*
X113326071Y-121602380D01*
X114611785Y-122602380D02*
X114040357Y-122602380D01*
X114326071Y-122602380D02*
X114326071Y-121602380D01*
X114230833Y-121745238D01*
X114135595Y-121840476D01*
X114040357Y-121888095D01*
X115564166Y-122602380D02*
X114992738Y-122602380D01*
X115278452Y-122602380D02*
X115278452Y-121602380D01*
X115183214Y-121745238D01*
X115087976Y-121840476D01*
X114992738Y-121888095D01*
X115992738Y-122507142D02*
X116040357Y-122554761D01*
X115992738Y-122602380D01*
X115945119Y-122554761D01*
X115992738Y-122507142D01*
X115992738Y-122602380D01*
X115992738Y-121983333D02*
X116040357Y-122030952D01*
X115992738Y-122078571D01*
X115945119Y-122030952D01*
X115992738Y-121983333D01*
X115992738Y-122078571D01*
X117183214Y-121697619D02*
X117230833Y-121650000D01*
X117326071Y-121602380D01*
X117564166Y-121602380D01*
X117659404Y-121650000D01*
X117707023Y-121697619D01*
X117754642Y-121792857D01*
X117754642Y-121888095D01*
X117707023Y-122030952D01*
X117135595Y-122602380D01*
X117754642Y-122602380D01*
X118373690Y-121602380D02*
X118468928Y-121602380D01*
X118564166Y-121650000D01*
X118611785Y-121697619D01*
X118659404Y-121792857D01*
X118707023Y-121983333D01*
X118707023Y-122221428D01*
X118659404Y-122411904D01*
X118611785Y-122507142D01*
X118564166Y-122554761D01*
X118468928Y-122602380D01*
X118373690Y-122602380D01*
X118278452Y-122554761D01*
X118230833Y-122507142D01*
X118183214Y-122411904D01*
X118135595Y-122221428D01*
X118135595Y-121983333D01*
X118183214Y-121792857D01*
X118230833Y-121697619D01*
X118278452Y-121650000D01*
X118373690Y-121602380D01*
X118992738Y-121602380D02*
X119326071Y-122602380D01*
X119659404Y-121602380D01*
X113659404Y-124252380D02*
X113087976Y-124252380D01*
X113373690Y-124252380D02*
X113373690Y-123252380D01*
X113278452Y-123395238D01*
X113183214Y-123490476D01*
X113087976Y-123538095D01*
X114278452Y-123252380D02*
X114373690Y-123252380D01*
X114468928Y-123300000D01*
X114516547Y-123347619D01*
X114564166Y-123442857D01*
X114611785Y-123633333D01*
X114611785Y-123871428D01*
X114564166Y-124061904D01*
X114516547Y-124157142D01*
X114468928Y-124204761D01*
X114373690Y-124252380D01*
X114278452Y-124252380D01*
X114183214Y-124204761D01*
X114135595Y-124157142D01*
X114087976Y-124061904D01*
X114040357Y-123871428D01*
X114040357Y-123633333D01*
X114087976Y-123442857D01*
X114135595Y-123347619D01*
X114183214Y-123300000D01*
X114278452Y-123252380D01*
X115230833Y-123252380D02*
X115326071Y-123252380D01*
X115421309Y-123300000D01*
X115468928Y-123347619D01*
X115516547Y-123442857D01*
X115564166Y-123633333D01*
X115564166Y-123871428D01*
X115516547Y-124061904D01*
X115468928Y-124157142D01*
X115421309Y-124204761D01*
X115326071Y-124252380D01*
X115230833Y-124252380D01*
X115135595Y-124204761D01*
X115087976Y-124157142D01*
X115040357Y-124061904D01*
X114992738Y-123871428D01*
X114992738Y-123633333D01*
X115040357Y-123442857D01*
X115087976Y-123347619D01*
X115135595Y-123300000D01*
X115230833Y-123252380D01*
X115992738Y-124157142D02*
X116040357Y-124204761D01*
X115992738Y-124252380D01*
X115945119Y-124204761D01*
X115992738Y-124157142D01*
X115992738Y-124252380D01*
X115992738Y-123633333D02*
X116040357Y-123680952D01*
X115992738Y-123728571D01*
X115945119Y-123680952D01*
X115992738Y-123633333D01*
X115992738Y-123728571D01*
X117802261Y-124157142D02*
X117754642Y-124204761D01*
X117611785Y-124252380D01*
X117516547Y-124252380D01*
X117373690Y-124204761D01*
X117278452Y-124109523D01*
X117230833Y-124014285D01*
X117183214Y-123823809D01*
X117183214Y-123680952D01*
X117230833Y-123490476D01*
X117278452Y-123395238D01*
X117373690Y-123300000D01*
X117516547Y-123252380D01*
X117611785Y-123252380D01*
X117754642Y-123300000D01*
X117802261Y-123347619D01*
X118421309Y-123252380D02*
X118611785Y-123252380D01*
X118707023Y-123300000D01*
X118802261Y-123395238D01*
X118849880Y-123585714D01*
X118849880Y-123919047D01*
X118802261Y-124109523D01*
X118707023Y-124204761D01*
X118611785Y-124252380D01*
X118421309Y-124252380D01*
X118326071Y-124204761D01*
X118230833Y-124109523D01*
X118183214Y-123919047D01*
X118183214Y-123585714D01*
X118230833Y-123395238D01*
X118326071Y-123300000D01*
X118421309Y-123252380D01*
X119278452Y-124252380D02*
X119278452Y-123252380D01*
X119849880Y-124252380D01*
X119849880Y-123252380D01*
X120183214Y-123252380D02*
X120754642Y-123252380D01*
X120468928Y-124252380D02*
X120468928Y-123252380D01*
D13*
X137065000Y-108600000D02*
X137065000Y-112050000D01*
X137065000Y-108600000D02*
X137065000Y-106650000D01*
X145935000Y-108600000D02*
X145935000Y-110550000D01*
X145935000Y-108600000D02*
X145935000Y-106650000D01*
X157400000Y-109300000D02*
X160800000Y-109300000D01*
X160800000Y-109300000D02*
X160800000Y-112700000D01*
X160800000Y-112700000D02*
X157400000Y-112700000D01*
X157400000Y-112700000D02*
X157400000Y-109300000D01*
X157400000Y-102600000D02*
X160800000Y-102600000D01*
X160800000Y-102600000D02*
X160800000Y-106000000D01*
X160800000Y-106000000D02*
X157400000Y-106000000D01*
X157400000Y-106000000D02*
X157400000Y-102600000D01*
X138110000Y-117272936D02*
X138110000Y-118727064D01*
X136290000Y-117272936D02*
X136290000Y-118727064D01*
X137645276Y-121477500D02*
X138154724Y-121477500D01*
X137645276Y-122522500D02*
X138154724Y-122522500D01*
X140690000Y-97670000D02*
X140690000Y-102870000D01*
X145830000Y-97670000D02*
X140690000Y-97670000D01*
X148430000Y-102870000D02*
X140690000Y-102870000D01*
X145830000Y-97670000D02*
X145830000Y-100270000D01*
X145830000Y-100270000D02*
X148430000Y-100270000D01*
X148430000Y-100270000D02*
X148430000Y-102870000D01*
X147100000Y-97670000D02*
X148430000Y-97670000D01*
X148430000Y-97670000D02*
X148430000Y-99000000D01*
X147730000Y-122930000D02*
X146400000Y-122930000D01*
X147730000Y-121600000D02*
X147730000Y-122930000D01*
X147730000Y-120330000D02*
X145070000Y-120330000D01*
X145070000Y-120330000D02*
X145070000Y-115190000D01*
X147730000Y-120330000D02*
X147730000Y-115190000D01*
X147730000Y-115190000D02*
X145070000Y-115190000D01*
X157430000Y-122830000D02*
X156100000Y-122830000D01*
X157430000Y-121500000D02*
X157430000Y-122830000D01*
X157430000Y-120230000D02*
X154770000Y-120230000D01*
X154770000Y-120230000D02*
X154770000Y-115090000D01*
X157430000Y-120230000D02*
X157430000Y-115090000D01*
X157430000Y-115090000D02*
X154770000Y-115090000D01*
X153430000Y-112530000D02*
X152100000Y-112530000D01*
X153430000Y-111200000D02*
X153430000Y-112530000D01*
X153430000Y-109930000D02*
X150770000Y-109930000D01*
X150770000Y-109930000D02*
X150770000Y-104790000D01*
X153430000Y-109930000D02*
X153430000Y-104790000D01*
X153430000Y-104790000D02*
X150770000Y-104790000D01*
X131500000Y-101310000D02*
X133300000Y-101310000D01*
X133300000Y-98090000D02*
X130850000Y-98090000D01*
X131520000Y-113360000D02*
X131520000Y-123260000D01*
X121600000Y-113360000D02*
X121600000Y-123260000D01*
X131520000Y-113360000D02*
X121600000Y-113360000D01*
X131520000Y-123260000D02*
X121600000Y-123260000D01*
X131760000Y-113120000D02*
X131760000Y-114504000D01*
X131760000Y-113120000D02*
X130377000Y-113120000D01*
X129735000Y-116280000D02*
X128465000Y-116280000D01*
X128465000Y-116280000D02*
X128465000Y-120340000D01*
X128465000Y-120340000D02*
X129735000Y-120340000D01*
X129735000Y-120340000D02*
X129735000Y-116280000D01*
X129615000Y-116280000D02*
X129615000Y-117633333D01*
X129495000Y-116280000D02*
X129495000Y-117633333D01*
X129375000Y-116280000D02*
X129375000Y-117633333D01*
X129255000Y-116280000D02*
X129255000Y-117633333D01*
X129135000Y-116280000D02*
X129135000Y-117633333D01*
X129015000Y-116280000D02*
X129015000Y-117633333D01*
X128895000Y-116280000D02*
X128895000Y-117633333D01*
X128775000Y-116280000D02*
X128775000Y-117633333D01*
X128655000Y-116280000D02*
X128655000Y-117633333D01*
X128535000Y-116280000D02*
X128535000Y-117633333D01*
X129735000Y-117633333D02*
X128465000Y-117633333D01*
X127195000Y-116280000D02*
X125925000Y-116280000D01*
X125925000Y-116280000D02*
X125925000Y-120340000D01*
X125925000Y-120340000D02*
X127195000Y-120340000D01*
X127195000Y-120340000D02*
X127195000Y-116280000D01*
X127075000Y-116280000D02*
X127075000Y-117633333D01*
X126955000Y-116280000D02*
X126955000Y-117633333D01*
X126835000Y-116280000D02*
X126835000Y-117633333D01*
X126715000Y-116280000D02*
X126715000Y-117633333D01*
X126595000Y-116280000D02*
X126595000Y-117633333D01*
X126475000Y-116280000D02*
X126475000Y-117633333D01*
X126355000Y-116280000D02*
X126355000Y-117633333D01*
X126235000Y-116280000D02*
X126235000Y-117633333D01*
X126115000Y-116280000D02*
X126115000Y-117633333D01*
X125995000Y-116280000D02*
X125995000Y-117633333D01*
X127195000Y-117633333D02*
X125925000Y-117633333D01*
X124655000Y-116280000D02*
X123385000Y-116280000D01*
X123385000Y-116280000D02*
X123385000Y-120340000D01*
X123385000Y-120340000D02*
X124655000Y-120340000D01*
X124655000Y-120340000D02*
X124655000Y-116280000D01*
X124535000Y-116280000D02*
X124535000Y-117633333D01*
X124415000Y-116280000D02*
X124415000Y-117633333D01*
X124295000Y-116280000D02*
X124295000Y-117633333D01*
X124175000Y-116280000D02*
X124175000Y-117633333D01*
X124055000Y-116280000D02*
X124055000Y-117633333D01*
X123935000Y-116280000D02*
X123935000Y-117633333D01*
X123815000Y-116280000D02*
X123815000Y-117633333D01*
X123695000Y-116280000D02*
X123695000Y-117633333D01*
X123575000Y-116280000D02*
X123575000Y-117633333D01*
X123455000Y-116280000D02*
X123455000Y-117633333D01*
X124655000Y-117633333D02*
X123385000Y-117633333D01*
X140810000Y-117172936D02*
X140810000Y-118627064D01*
X138990000Y-117172936D02*
X138990000Y-118627064D01*
X151872936Y-100990000D02*
X153327064Y-100990000D01*
X151872936Y-102810000D02*
X153327064Y-102810000D01*
X133390000Y-118727064D02*
X133390000Y-117272936D01*
X135210000Y-118727064D02*
X135210000Y-117272936D01*
X129827064Y-110310000D02*
X128372936Y-110310000D01*
X129827064Y-108490000D02*
X128372936Y-108490000D01*
X122472936Y-108490000D02*
X123927064Y-108490000D01*
X122472936Y-110310000D02*
X123927064Y-110310000D01*
X129827064Y-107610000D02*
X128372936Y-107610000D01*
X129827064Y-105790000D02*
X128372936Y-105790000D01*
X122472936Y-105790000D02*
X123927064Y-105790000D01*
X122472936Y-107610000D02*
X123927064Y-107610000D01*
X104220000Y-100840000D02*
X112330000Y-100840000D01*
X104220000Y-100840000D02*
X104220000Y-100190000D01*
X119180000Y-100840000D02*
X119180000Y-114160000D01*
X119180000Y-100840000D02*
X115850000Y-100840000D01*
X119180000Y-114160000D02*
X115850000Y-114160000D01*
X103700000Y-114810000D02*
X104220000Y-114810000D01*
X103700000Y-100190000D02*
X103700000Y-114810000D01*
X112330000Y-114160000D02*
X104220000Y-114160000D01*
X104220000Y-100190000D02*
X103700000Y-100190000D01*
X104220000Y-114810000D02*
X104220000Y-114160000D01*
X119400000Y-103100000D02*
X119400000Y-104900000D01*
X131688748Y-102390000D02*
X133111252Y-102390000D01*
X131688748Y-104210000D02*
X133111252Y-104210000D01*
X136790000Y-101011252D02*
X136790000Y-99588748D01*
X138610000Y-101011252D02*
X138610000Y-99588748D01*
D10*
X135672380Y-109361904D02*
X136481904Y-109361904D01*
X136577142Y-109314285D01*
X136624761Y-109266666D01*
X136672380Y-109171428D01*
X136672380Y-108980952D01*
X136624761Y-108885714D01*
X136577142Y-108838095D01*
X136481904Y-108790476D01*
X135672380Y-108790476D01*
X136672380Y-107790476D02*
X136672380Y-108361904D01*
X136672380Y-108076190D02*
X135672380Y-108076190D01*
X135815238Y-108171428D01*
X135910476Y-108266666D01*
X135958095Y-108361904D01*
X139472380Y-118166666D02*
X138996190Y-118500000D01*
X139472380Y-118738095D02*
X138472380Y-118738095D01*
X138472380Y-118357142D01*
X138520000Y-118261904D01*
X138567619Y-118214285D01*
X138662857Y-118166666D01*
X138805714Y-118166666D01*
X138900952Y-118214285D01*
X138948571Y-118261904D01*
X138996190Y-118357142D01*
X138996190Y-118738095D01*
X138472380Y-117309523D02*
X138472380Y-117500000D01*
X138520000Y-117595238D01*
X138567619Y-117642857D01*
X138710476Y-117738095D01*
X138900952Y-117785714D01*
X139281904Y-117785714D01*
X139377142Y-117738095D01*
X139424761Y-117690476D01*
X139472380Y-117595238D01*
X139472380Y-117404761D01*
X139424761Y-117309523D01*
X139377142Y-117261904D01*
X139281904Y-117214285D01*
X139043809Y-117214285D01*
X138948571Y-117261904D01*
X138900952Y-117309523D01*
X138853333Y-117404761D01*
X138853333Y-117595238D01*
X138900952Y-117690476D01*
X138948571Y-117738095D01*
X139043809Y-117785714D01*
X137257142Y-121022380D02*
X136923809Y-120546190D01*
X136685714Y-121022380D02*
X136685714Y-120022380D01*
X137066666Y-120022380D01*
X137161904Y-120070000D01*
X137209523Y-120117619D01*
X137257142Y-120212857D01*
X137257142Y-120355714D01*
X137209523Y-120450952D01*
X137161904Y-120498571D01*
X137066666Y-120546190D01*
X136685714Y-120546190D01*
X138209523Y-121022380D02*
X137638095Y-121022380D01*
X137923809Y-121022380D02*
X137923809Y-120022380D01*
X137828571Y-120165238D01*
X137733333Y-120260476D01*
X137638095Y-120308095D01*
X138590476Y-120117619D02*
X138638095Y-120070000D01*
X138733333Y-120022380D01*
X138971428Y-120022380D01*
X139066666Y-120070000D01*
X139114285Y-120117619D01*
X139161904Y-120212857D01*
X139161904Y-120308095D01*
X139114285Y-120450952D01*
X138542857Y-121022380D01*
X139161904Y-121022380D01*
X148882380Y-100603333D02*
X149596666Y-100603333D01*
X149739523Y-100650952D01*
X149834761Y-100746190D01*
X149882380Y-100889047D01*
X149882380Y-100984285D01*
X148977619Y-100174761D02*
X148930000Y-100127142D01*
X148882380Y-100031904D01*
X148882380Y-99793809D01*
X148930000Y-99698571D01*
X148977619Y-99650952D01*
X149072857Y-99603333D01*
X149168095Y-99603333D01*
X149310952Y-99650952D01*
X149882380Y-100222380D01*
X149882380Y-99603333D01*
X150766666Y-113934761D02*
X150909523Y-113982380D01*
X151147619Y-113982380D01*
X151242857Y-113934761D01*
X151290476Y-113887142D01*
X151338095Y-113791904D01*
X151338095Y-113696666D01*
X151290476Y-113601428D01*
X151242857Y-113553809D01*
X151147619Y-113506190D01*
X150957142Y-113458571D01*
X150861904Y-113410952D01*
X150814285Y-113363333D01*
X150766666Y-113268095D01*
X150766666Y-113172857D01*
X150814285Y-113077619D01*
X150861904Y-113030000D01*
X150957142Y-112982380D01*
X151195238Y-112982380D01*
X151338095Y-113030000D01*
X151671428Y-112982380D02*
X151909523Y-113982380D01*
X152100000Y-113268095D01*
X152290476Y-113982380D01*
X152528571Y-112982380D01*
X152861904Y-113077619D02*
X152909523Y-113030000D01*
X153004761Y-112982380D01*
X153242857Y-112982380D01*
X153338095Y-113030000D01*
X153385714Y-113077619D01*
X153433333Y-113172857D01*
X153433333Y-113268095D01*
X153385714Y-113410952D01*
X152814285Y-113982380D01*
X153433333Y-113982380D01*
X131638095Y-96252380D02*
X131638095Y-97061904D01*
X131685714Y-97157142D01*
X131733333Y-97204761D01*
X131828571Y-97252380D01*
X132019047Y-97252380D01*
X132114285Y-97204761D01*
X132161904Y-97157142D01*
X132209523Y-97061904D01*
X132209523Y-96252380D01*
X132638095Y-96347619D02*
X132685714Y-96300000D01*
X132780952Y-96252380D01*
X133019047Y-96252380D01*
X133114285Y-96300000D01*
X133161904Y-96347619D01*
X133209523Y-96442857D01*
X133209523Y-96538095D01*
X133161904Y-96680952D01*
X132590476Y-97252380D01*
X133209523Y-97252380D01*
X132924761Y-119643333D02*
X132972380Y-119500476D01*
X132972380Y-119262380D01*
X132924761Y-119167142D01*
X132877142Y-119119523D01*
X132781904Y-119071904D01*
X132686666Y-119071904D01*
X132591428Y-119119523D01*
X132543809Y-119167142D01*
X132496190Y-119262380D01*
X132448571Y-119452857D01*
X132400952Y-119548095D01*
X132353333Y-119595714D01*
X132258095Y-119643333D01*
X132162857Y-119643333D01*
X132067619Y-119595714D01*
X132020000Y-119548095D01*
X131972380Y-119452857D01*
X131972380Y-119214761D01*
X132020000Y-119071904D01*
X131972380Y-118738571D02*
X132972380Y-118500476D01*
X132258095Y-118310000D01*
X132972380Y-118119523D01*
X131972380Y-117881428D01*
X132972380Y-116976666D02*
X132972380Y-117548095D01*
X132972380Y-117262380D02*
X131972380Y-117262380D01*
X132115238Y-117357619D01*
X132210476Y-117452857D01*
X132258095Y-117548095D01*
X142172380Y-118542857D02*
X141696190Y-118876190D01*
X142172380Y-119114285D02*
X141172380Y-119114285D01*
X141172380Y-118733333D01*
X141220000Y-118638095D01*
X141267619Y-118590476D01*
X141362857Y-118542857D01*
X141505714Y-118542857D01*
X141600952Y-118590476D01*
X141648571Y-118638095D01*
X141696190Y-118733333D01*
X141696190Y-119114285D01*
X142172380Y-117590476D02*
X142172380Y-118161904D01*
X142172380Y-117876190D02*
X141172380Y-117876190D01*
X141315238Y-117971428D01*
X141410476Y-118066666D01*
X141458095Y-118161904D01*
X141172380Y-116971428D02*
X141172380Y-116876190D01*
X141220000Y-116780952D01*
X141267619Y-116733333D01*
X141362857Y-116685714D01*
X141553333Y-116638095D01*
X141791428Y-116638095D01*
X141981904Y-116685714D01*
X142077142Y-116733333D01*
X142124761Y-116780952D01*
X142172380Y-116876190D01*
X142172380Y-116971428D01*
X142124761Y-117066666D01*
X142077142Y-117114285D01*
X141981904Y-117161904D01*
X141791428Y-117209523D01*
X141553333Y-117209523D01*
X141362857Y-117161904D01*
X141267619Y-117114285D01*
X141220000Y-117066666D01*
X141172380Y-116971428D01*
X152433333Y-100532380D02*
X152100000Y-100056190D01*
X151861904Y-100532380D02*
X151861904Y-99532380D01*
X152242857Y-99532380D01*
X152338095Y-99580000D01*
X152385714Y-99627619D01*
X152433333Y-99722857D01*
X152433333Y-99865714D01*
X152385714Y-99960952D01*
X152338095Y-100008571D01*
X152242857Y-100056190D01*
X151861904Y-100056190D01*
X152766666Y-99532380D02*
X153433333Y-99532380D01*
X153004761Y-100532380D01*
X132932380Y-118166666D02*
X132456190Y-118500000D01*
X132932380Y-118738095D02*
X131932380Y-118738095D01*
X131932380Y-118357142D01*
X131980000Y-118261904D01*
X132027619Y-118214285D01*
X132122857Y-118166666D01*
X132265714Y-118166666D01*
X132360952Y-118214285D01*
X132408571Y-118261904D01*
X132456190Y-118357142D01*
X132456190Y-118738095D01*
X131932380Y-117261904D02*
X131932380Y-117738095D01*
X132408571Y-117785714D01*
X132360952Y-117738095D01*
X132313333Y-117642857D01*
X132313333Y-117404761D01*
X132360952Y-117309523D01*
X132408571Y-117261904D01*
X132503809Y-117214285D01*
X132741904Y-117214285D01*
X132837142Y-117261904D01*
X132884761Y-117309523D01*
X132932380Y-117404761D01*
X132932380Y-117642857D01*
X132884761Y-117738095D01*
X132837142Y-117785714D01*
X128933333Y-111672380D02*
X128600000Y-111196190D01*
X128361904Y-111672380D02*
X128361904Y-110672380D01*
X128742857Y-110672380D01*
X128838095Y-110720000D01*
X128885714Y-110767619D01*
X128933333Y-110862857D01*
X128933333Y-111005714D01*
X128885714Y-111100952D01*
X128838095Y-111148571D01*
X128742857Y-111196190D01*
X128361904Y-111196190D01*
X129790476Y-111005714D02*
X129790476Y-111672380D01*
X129552380Y-110624761D02*
X129314285Y-111339047D01*
X129933333Y-111339047D01*
X123033333Y-108032380D02*
X122700000Y-107556190D01*
X122461904Y-108032380D02*
X122461904Y-107032380D01*
X122842857Y-107032380D01*
X122938095Y-107080000D01*
X122985714Y-107127619D01*
X123033333Y-107222857D01*
X123033333Y-107365714D01*
X122985714Y-107460952D01*
X122938095Y-107508571D01*
X122842857Y-107556190D01*
X122461904Y-107556190D01*
X123366666Y-107032380D02*
X123985714Y-107032380D01*
X123652380Y-107413333D01*
X123795238Y-107413333D01*
X123890476Y-107460952D01*
X123938095Y-107508571D01*
X123985714Y-107603809D01*
X123985714Y-107841904D01*
X123938095Y-107937142D01*
X123890476Y-107984761D01*
X123795238Y-108032380D01*
X123509523Y-108032380D01*
X123414285Y-107984761D01*
X123366666Y-107937142D01*
X128933333Y-108972380D02*
X128600000Y-108496190D01*
X128361904Y-108972380D02*
X128361904Y-107972380D01*
X128742857Y-107972380D01*
X128838095Y-108020000D01*
X128885714Y-108067619D01*
X128933333Y-108162857D01*
X128933333Y-108305714D01*
X128885714Y-108400952D01*
X128838095Y-108448571D01*
X128742857Y-108496190D01*
X128361904Y-108496190D01*
X129314285Y-108067619D02*
X129361904Y-108020000D01*
X129457142Y-107972380D01*
X129695238Y-107972380D01*
X129790476Y-108020000D01*
X129838095Y-108067619D01*
X129885714Y-108162857D01*
X129885714Y-108258095D01*
X129838095Y-108400952D01*
X129266666Y-108972380D01*
X129885714Y-108972380D01*
X123033333Y-105332380D02*
X122700000Y-104856190D01*
X122461904Y-105332380D02*
X122461904Y-104332380D01*
X122842857Y-104332380D01*
X122938095Y-104380000D01*
X122985714Y-104427619D01*
X123033333Y-104522857D01*
X123033333Y-104665714D01*
X122985714Y-104760952D01*
X122938095Y-104808571D01*
X122842857Y-104856190D01*
X122461904Y-104856190D01*
X123985714Y-105332380D02*
X123414285Y-105332380D01*
X123700000Y-105332380D02*
X123700000Y-104332380D01*
X123604761Y-104475238D01*
X123509523Y-104570476D01*
X123414285Y-104618095D01*
X119442380Y-107833333D02*
X120156666Y-107833333D01*
X120299523Y-107880952D01*
X120394761Y-107976190D01*
X120442380Y-108119047D01*
X120442380Y-108214285D01*
X120442380Y-106833333D02*
X120442380Y-107404761D01*
X120442380Y-107119047D02*
X119442380Y-107119047D01*
X119585238Y-107214285D01*
X119680476Y-107309523D01*
X119728095Y-107404761D01*
X132233333Y-101807142D02*
X132185714Y-101854761D01*
X132042857Y-101902380D01*
X131947619Y-101902380D01*
X131804761Y-101854761D01*
X131709523Y-101759523D01*
X131661904Y-101664285D01*
X131614285Y-101473809D01*
X131614285Y-101330952D01*
X131661904Y-101140476D01*
X131709523Y-101045238D01*
X131804761Y-100950000D01*
X131947619Y-100902380D01*
X132042857Y-100902380D01*
X132185714Y-100950000D01*
X132233333Y-100997619D01*
X132566666Y-100902380D02*
X133185714Y-100902380D01*
X132852380Y-101283333D01*
X132995238Y-101283333D01*
X133090476Y-101330952D01*
X133138095Y-101378571D01*
X133185714Y-101473809D01*
X133185714Y-101711904D01*
X133138095Y-101807142D01*
X133090476Y-101854761D01*
X132995238Y-101902380D01*
X132709523Y-101902380D01*
X132614285Y-101854761D01*
X132566666Y-101807142D01*
X136207142Y-100466666D02*
X136254761Y-100514285D01*
X136302380Y-100657142D01*
X136302380Y-100752380D01*
X136254761Y-100895238D01*
X136159523Y-100990476D01*
X136064285Y-101038095D01*
X135873809Y-101085714D01*
X135730952Y-101085714D01*
X135540476Y-101038095D01*
X135445238Y-100990476D01*
X135350000Y-100895238D01*
X135302380Y-100752380D01*
X135302380Y-100657142D01*
X135350000Y-100514285D01*
X135397619Y-100466666D01*
X136302380Y-99514285D02*
X136302380Y-100085714D01*
X136302380Y-99800000D02*
X135302380Y-99800000D01*
X135445238Y-99895238D01*
X135540476Y-99990476D01*
X135588095Y-100085714D01*
M02*
