M48
; DRILL file {KiCad 5.1.9} date Sat Jan 23 21:46:44 2021
; FORMAT={-:-/ absolute / inch / decimal}
; #@! TF.CreationDate,2021-01-23T21:46:44+01:00
; #@! TF.GenerationSoftware,Kicad,Pcbnew,5.1.9
; #@! TF.FileFunction,Plated,1,2,PTH
FMAT,2
INCH
T1C0.0157
T2C0.0236
T3C0.0315
T4C0.0354
T5C0.0394
%
G90
G05
T1
X4.9685Y-4.2244
X4.9685Y-4.2835
X5.0787Y-4.0669
X5.0984Y-3.9252
X5.4213Y-3.8386
X5.4213Y-4.0866
X5.5Y-4.4646
X5.563Y-4.4646
X5.5728Y-4.7028
X5.6063Y-4.1024
X5.6378Y-4.2677
X5.6772Y-4.2953
X5.7205Y-4.2598
T2
X4.5906Y-4.5512
X4.7047Y-4.5512
X4.7087Y-4.374
X5.2717Y-4.3661
X5.4252Y-4.4567
X6.1142Y-4.378
X6.1142Y-4.4803
X6.1929Y-4.6772
X6.2835Y-4.5748
X6.2835Y-4.6732
X6.2835Y-4.7913
T3
X4.8827Y-4.5079
X4.8827Y-4.8079
X4.9827Y-4.5079
X4.9827Y-4.8079
X5.0827Y-4.5079
X5.0827Y-4.8079
T5
X4.6102Y-4.0866
X4.6102Y-4.185
X4.6102Y-4.2638
X4.6102Y-4.3622
X5.5913Y-3.8976
X5.5913Y-3.9976
X5.6913Y-3.8976
X5.6913Y-3.9976
X5.7638Y-4.5874
X5.7638Y-4.7874
X5.7913Y-3.8976
X5.7913Y-3.9976
X5.9882Y-4.178
X5.9882Y-4.378
X6.1457Y-4.5835
X6.1457Y-4.7835
T4
G00X4.5335Y-4.0
M15
G01X4.4705Y-4.0
M16
G05
G00X4.5335Y-4.4488
M15
G01X4.4705Y-4.4488
M16
G05
T0
M30
