G04 #@! TF.GenerationSoftware,KiCad,Pcbnew,5.1.9*
G04 #@! TF.CreationDate,2020-12-27T16:23:41+01:00*
G04 #@! TF.ProjectId,qc_attiny,71635f61-7474-4696-9e79-2e6b69636164,rev?*
G04 #@! TF.SameCoordinates,Original*
G04 #@! TF.FileFunction,Copper,L2,Bot*
G04 #@! TF.FilePolarity,Positive*
%FSLAX46Y46*%
G04 Gerber Fmt 4.6, Leading zero omitted, Abs format (unit mm)*
G04 Created by KiCad (PCBNEW 5.1.9) date 2020-12-27 16:23:41*
%MOMM*%
%LPD*%
G01*
G04 APERTURE LIST*
G04 #@! TA.AperFunction,ComponentPad*
%ADD10O,1.700000X1.700000*%
G04 #@! TD*
G04 #@! TA.AperFunction,ComponentPad*
%ADD11R,1.700000X1.700000*%
G04 #@! TD*
G04 #@! TA.AperFunction,ComponentPad*
%ADD12O,1.600000X1.600000*%
G04 #@! TD*
G04 #@! TA.AperFunction,ComponentPad*
%ADD13R,1.600000X1.600000*%
G04 #@! TD*
G04 #@! TA.AperFunction,ComponentPad*
%ADD14C,1.600000*%
G04 #@! TD*
G04 #@! TA.AperFunction,ComponentPad*
%ADD15R,1.500000X1.600000*%
G04 #@! TD*
G04 #@! TA.AperFunction,ComponentPad*
%ADD16C,3.000000*%
G04 #@! TD*
G04 #@! TA.AperFunction,ViaPad*
%ADD17C,0.800000*%
G04 #@! TD*
G04 #@! TA.AperFunction,ViaPad*
%ADD18C,1.200000*%
G04 #@! TD*
G04 #@! TA.AperFunction,Conductor*
%ADD19C,0.250000*%
G04 #@! TD*
G04 #@! TA.AperFunction,Conductor*
%ADD20C,0.500000*%
G04 #@! TD*
G04 #@! TA.AperFunction,Conductor*
%ADD21C,0.254000*%
G04 #@! TD*
G04 #@! TA.AperFunction,Conductor*
%ADD22C,0.100000*%
G04 #@! TD*
G04 APERTURE END LIST*
D10*
X142020000Y-101540000D03*
X142020000Y-99000000D03*
X144560000Y-101540000D03*
X144560000Y-99000000D03*
X147100000Y-101540000D03*
D11*
X147100000Y-99000000D03*
X146400000Y-121600000D03*
D10*
X146400000Y-116520000D03*
D11*
X156100000Y-121500000D03*
D10*
X156100000Y-116420000D03*
D11*
X152100000Y-111200000D03*
D10*
X152100000Y-106120000D03*
D12*
X129100000Y-122120000D03*
X124020000Y-114500000D03*
X126560000Y-122120000D03*
X126560000Y-114500000D03*
X124020000Y-122120000D03*
D13*
X129100000Y-114500000D03*
G04 #@! TA.AperFunction,SMDPad,CuDef*
G36*
G01*
X143625000Y-117000000D02*
X142375000Y-117000000D01*
G75*
G02*
X142125000Y-116750000I0J250000D01*
G01*
X142125000Y-115950000D01*
G75*
G02*
X142375000Y-115700000I250000J0D01*
G01*
X143625000Y-115700000D01*
G75*
G02*
X143875000Y-115950000I0J-250000D01*
G01*
X143875000Y-116750000D01*
G75*
G02*
X143625000Y-117000000I-250000J0D01*
G01*
G37*
G04 #@! TD.AperFunction*
G04 #@! TA.AperFunction,SMDPad,CuDef*
G36*
G01*
X143625000Y-120100000D02*
X142375000Y-120100000D01*
G75*
G02*
X142125000Y-119850000I0J250000D01*
G01*
X142125000Y-119050000D01*
G75*
G02*
X142375000Y-118800000I250000J0D01*
G01*
X143625000Y-118800000D01*
G75*
G02*
X143875000Y-119050000I0J-250000D01*
G01*
X143875000Y-119850000D01*
G75*
G02*
X143625000Y-120100000I-250000J0D01*
G01*
G37*
G04 #@! TD.AperFunction*
G04 #@! TA.AperFunction,SMDPad,CuDef*
G36*
G01*
X153000000Y-117025000D02*
X153000000Y-115775000D01*
G75*
G02*
X153250000Y-115525000I250000J0D01*
G01*
X154050000Y-115525000D01*
G75*
G02*
X154300000Y-115775000I0J-250000D01*
G01*
X154300000Y-117025000D01*
G75*
G02*
X154050000Y-117275000I-250000J0D01*
G01*
X153250000Y-117275000D01*
G75*
G02*
X153000000Y-117025000I0J250000D01*
G01*
G37*
G04 #@! TD.AperFunction*
G04 #@! TA.AperFunction,SMDPad,CuDef*
G36*
G01*
X149900000Y-117025000D02*
X149900000Y-115775000D01*
G75*
G02*
X150150000Y-115525000I250000J0D01*
G01*
X150950000Y-115525000D01*
G75*
G02*
X151200000Y-115775000I0J-250000D01*
G01*
X151200000Y-117025000D01*
G75*
G02*
X150950000Y-117275000I-250000J0D01*
G01*
X150150000Y-117275000D01*
G75*
G02*
X149900000Y-117025000I0J250000D01*
G01*
G37*
G04 #@! TD.AperFunction*
D14*
X116800000Y-111000000D03*
X116800000Y-108500000D03*
X116800000Y-106500000D03*
D15*
X116800000Y-104000000D03*
D16*
X114090000Y-114070000D03*
X114090000Y-100930000D03*
G04 #@! TA.AperFunction,SMDPad,CuDef*
G36*
G01*
X138450001Y-107600000D02*
X137149999Y-107600000D01*
G75*
G02*
X136900000Y-107350001I0J249999D01*
G01*
X136900000Y-106524999D01*
G75*
G02*
X137149999Y-106275000I249999J0D01*
G01*
X138450001Y-106275000D01*
G75*
G02*
X138700000Y-106524999I0J-249999D01*
G01*
X138700000Y-107350001D01*
G75*
G02*
X138450001Y-107600000I-249999J0D01*
G01*
G37*
G04 #@! TD.AperFunction*
G04 #@! TA.AperFunction,SMDPad,CuDef*
G36*
G01*
X138450001Y-110725000D02*
X137149999Y-110725000D01*
G75*
G02*
X136900000Y-110475001I0J249999D01*
G01*
X136900000Y-109649999D01*
G75*
G02*
X137149999Y-109400000I249999J0D01*
G01*
X138450001Y-109400000D01*
G75*
G02*
X138700000Y-109649999I0J-249999D01*
G01*
X138700000Y-110475001D01*
G75*
G02*
X138450001Y-110725000I-249999J0D01*
G01*
G37*
G04 #@! TD.AperFunction*
D17*
X135300000Y-122100000D03*
X137700000Y-97500000D03*
D18*
X133900000Y-110900000D03*
X137800000Y-113200000D03*
D17*
X137700000Y-103800000D03*
X129500000Y-99700000D03*
X129000000Y-103300000D03*
D18*
X155300000Y-113800000D03*
X157300000Y-118800000D03*
X159600000Y-116200000D03*
X159600000Y-118700000D03*
X159600000Y-121700000D03*
X116600000Y-115600000D03*
X119500000Y-115600000D03*
X119600000Y-111100000D03*
X155300000Y-111200000D03*
D17*
X126200000Y-108800000D03*
X126200000Y-107300000D03*
X142400000Y-104200000D03*
X143200000Y-108400000D03*
X141300000Y-113400000D03*
X139700000Y-113400000D03*
X145300000Y-108200000D03*
X144200000Y-109100000D03*
D19*
X150600000Y-116400000D02*
X150550000Y-116400000D01*
X137800000Y-113100000D02*
X137800000Y-113100000D01*
X141750000Y-119450000D02*
X143000000Y-119450000D01*
X137800000Y-115500000D02*
X141750000Y-119450000D01*
X143000000Y-119450000D02*
X137450000Y-119450000D01*
X137450000Y-119450000D02*
X135300000Y-121600000D01*
X135300000Y-121600000D02*
X135300000Y-122100000D01*
X135300000Y-122100000D02*
X135300000Y-122100000D01*
X150550000Y-116400000D02*
X150550000Y-117950000D01*
X149050000Y-119450000D02*
X143000000Y-119450000D01*
X150550000Y-117950000D02*
X149050000Y-119450000D01*
D20*
X137700000Y-97500000D02*
X137700000Y-102300000D01*
X137700000Y-102300000D02*
X135400000Y-104600000D01*
X135400000Y-104600000D02*
X135400000Y-107400000D01*
X135400000Y-107400000D02*
X133900000Y-108900000D01*
X133900000Y-108900000D02*
X133900000Y-110900000D01*
X133900000Y-110900000D02*
X133900000Y-110900000D01*
D19*
X137800000Y-113200000D02*
X137800000Y-115500000D01*
D20*
X137800000Y-110062500D02*
X137800000Y-113200000D01*
X137800000Y-103900000D02*
X137700000Y-103800000D01*
X137800000Y-106937500D02*
X137800000Y-103900000D01*
D19*
X126200000Y-108800000D02*
X125700000Y-108300000D01*
X117000000Y-108300000D02*
X116800000Y-108500000D01*
X125700000Y-108300000D02*
X117000000Y-108300000D01*
X126200000Y-107300000D02*
X125300000Y-106400000D01*
X116900000Y-106400000D02*
X116800000Y-106500000D01*
X125300000Y-106400000D02*
X116900000Y-106400000D01*
X142400000Y-104200000D02*
X142400000Y-104200000D01*
X142177008Y-108349990D02*
X142400000Y-108126998D01*
X135749990Y-108750010D02*
X136150010Y-108349990D01*
X135749990Y-111850010D02*
X135749990Y-108750010D01*
X142400000Y-108126998D02*
X142400000Y-104200000D01*
X135500000Y-112100000D02*
X135749990Y-111850010D01*
X136150010Y-108349990D02*
X142177008Y-108349990D01*
X126420000Y-112100000D02*
X135500000Y-112100000D01*
X124020000Y-114500000D02*
X126420000Y-112100000D01*
X142800000Y-108800000D02*
X143200000Y-108400000D01*
X136700000Y-108800000D02*
X142800000Y-108800000D01*
X136200000Y-109300000D02*
X136700000Y-108800000D01*
X135800000Y-112800000D02*
X136200000Y-112400000D01*
X128260000Y-112800000D02*
X135800000Y-112800000D01*
X136200000Y-112400000D02*
X136200000Y-109300000D01*
X126560000Y-114500000D02*
X128260000Y-112800000D01*
X153670000Y-116420000D02*
X153650000Y-116400000D01*
X156100000Y-116420000D02*
X153670000Y-116420000D01*
X153650000Y-116400000D02*
X150650000Y-113400000D01*
X150650000Y-113400000D02*
X141300000Y-113400000D01*
X141300000Y-113400000D02*
X141300000Y-113400000D01*
X146230000Y-116350000D02*
X146400000Y-116520000D01*
X143000000Y-116350000D02*
X146230000Y-116350000D01*
X142650000Y-116350000D02*
X143000000Y-116350000D01*
X139700000Y-113400000D02*
X142650000Y-116350000D01*
X145300000Y-108200000D02*
X145300000Y-102280000D01*
X145300000Y-102280000D02*
X144560000Y-101540000D01*
X143384999Y-100364999D02*
X143384999Y-103584999D01*
X142020000Y-99000000D02*
X143384999Y-100364999D01*
X144200000Y-104400000D02*
X144200000Y-109100000D01*
X143384999Y-103584999D02*
X144200000Y-104400000D01*
X150700000Y-109100000D02*
X151600000Y-109100000D01*
X144200000Y-109100000D02*
X150700000Y-109100000D01*
X150700000Y-109100000D02*
X150920000Y-109100000D01*
X152100000Y-108600000D02*
X152100000Y-106120000D01*
X151600000Y-109100000D02*
X152100000Y-108600000D01*
D21*
X161315001Y-124315000D02*
X112685000Y-124315000D01*
X112685000Y-122469040D01*
X122628091Y-122469040D01*
X122722930Y-122733881D01*
X122867615Y-122975131D01*
X123056586Y-123183519D01*
X123282580Y-123351037D01*
X123536913Y-123471246D01*
X123670961Y-123511904D01*
X123893000Y-123389915D01*
X123893000Y-122247000D01*
X124147000Y-122247000D01*
X124147000Y-123389915D01*
X124369039Y-123511904D01*
X124503087Y-123471246D01*
X124757420Y-123351037D01*
X124983414Y-123183519D01*
X125172385Y-122975131D01*
X125290000Y-122779018D01*
X125407615Y-122975131D01*
X125596586Y-123183519D01*
X125822580Y-123351037D01*
X126076913Y-123471246D01*
X126210961Y-123511904D01*
X126433000Y-123389915D01*
X126433000Y-122247000D01*
X126687000Y-122247000D01*
X126687000Y-123389915D01*
X126909039Y-123511904D01*
X127043087Y-123471246D01*
X127297420Y-123351037D01*
X127523414Y-123183519D01*
X127712385Y-122975131D01*
X127830000Y-122779018D01*
X127947615Y-122975131D01*
X128136586Y-123183519D01*
X128362580Y-123351037D01*
X128616913Y-123471246D01*
X128750961Y-123511904D01*
X128973000Y-123389915D01*
X128973000Y-122247000D01*
X129227000Y-122247000D01*
X129227000Y-123389915D01*
X129449039Y-123511904D01*
X129583087Y-123471246D01*
X129837420Y-123351037D01*
X130063414Y-123183519D01*
X130252385Y-122975131D01*
X130397070Y-122733881D01*
X130491909Y-122469040D01*
X130370624Y-122247000D01*
X129227000Y-122247000D01*
X128973000Y-122247000D01*
X126687000Y-122247000D01*
X126433000Y-122247000D01*
X124147000Y-122247000D01*
X123893000Y-122247000D01*
X122749376Y-122247000D01*
X122628091Y-122469040D01*
X112685000Y-122469040D01*
X112685000Y-121770960D01*
X122628091Y-121770960D01*
X122749376Y-121993000D01*
X123893000Y-121993000D01*
X123893000Y-120850085D01*
X124147000Y-120850085D01*
X124147000Y-121993000D01*
X126433000Y-121993000D01*
X126433000Y-120850085D01*
X126687000Y-120850085D01*
X126687000Y-121993000D01*
X128973000Y-121993000D01*
X128973000Y-120850085D01*
X129227000Y-120850085D01*
X129227000Y-121993000D01*
X130370624Y-121993000D01*
X130491909Y-121770960D01*
X130397070Y-121506119D01*
X130252385Y-121264869D01*
X130063414Y-121056481D01*
X129837420Y-120888963D01*
X129583087Y-120768754D01*
X129449039Y-120728096D01*
X129227000Y-120850085D01*
X128973000Y-120850085D01*
X128750961Y-120728096D01*
X128616913Y-120768754D01*
X128362580Y-120888963D01*
X128136586Y-121056481D01*
X127947615Y-121264869D01*
X127830000Y-121460982D01*
X127712385Y-121264869D01*
X127523414Y-121056481D01*
X127297420Y-120888963D01*
X127043087Y-120768754D01*
X126909039Y-120728096D01*
X126687000Y-120850085D01*
X126433000Y-120850085D01*
X126210961Y-120728096D01*
X126076913Y-120768754D01*
X125822580Y-120888963D01*
X125596586Y-121056481D01*
X125407615Y-121264869D01*
X125290000Y-121460982D01*
X125172385Y-121264869D01*
X124983414Y-121056481D01*
X124757420Y-120888963D01*
X124503087Y-120768754D01*
X124369039Y-120728096D01*
X124147000Y-120850085D01*
X123893000Y-120850085D01*
X123670961Y-120728096D01*
X123536913Y-120768754D01*
X123282580Y-120888963D01*
X123056586Y-121056481D01*
X122867615Y-121264869D01*
X122722930Y-121506119D01*
X122628091Y-121770960D01*
X112685000Y-121770960D01*
X112685000Y-115684346D01*
X112729017Y-115728363D01*
X113078698Y-115962012D01*
X113467244Y-116122953D01*
X113879721Y-116205000D01*
X114300279Y-116205000D01*
X114712756Y-116122953D01*
X115101302Y-115962012D01*
X115450983Y-115728363D01*
X115748363Y-115430983D01*
X115982012Y-115081302D01*
X116142953Y-114692756D01*
X116209408Y-114358665D01*
X122585000Y-114358665D01*
X122585000Y-114641335D01*
X122640147Y-114918574D01*
X122748320Y-115179727D01*
X122905363Y-115414759D01*
X123105241Y-115614637D01*
X123340273Y-115771680D01*
X123601426Y-115879853D01*
X123878665Y-115935000D01*
X124161335Y-115935000D01*
X124438574Y-115879853D01*
X124699727Y-115771680D01*
X124934759Y-115614637D01*
X125134637Y-115414759D01*
X125290000Y-115182241D01*
X125445363Y-115414759D01*
X125645241Y-115614637D01*
X125880273Y-115771680D01*
X126141426Y-115879853D01*
X126418665Y-115935000D01*
X126701335Y-115935000D01*
X126978574Y-115879853D01*
X127239727Y-115771680D01*
X127474759Y-115614637D01*
X127673357Y-115416039D01*
X127674188Y-115424482D01*
X127710498Y-115544180D01*
X127769463Y-115654494D01*
X127848815Y-115751185D01*
X127945506Y-115830537D01*
X128055820Y-115889502D01*
X128175518Y-115925812D01*
X128300000Y-115938072D01*
X129900000Y-115938072D01*
X130024482Y-115925812D01*
X130144180Y-115889502D01*
X130254494Y-115830537D01*
X130351185Y-115751185D01*
X130430537Y-115654494D01*
X130489502Y-115544180D01*
X130525812Y-115424482D01*
X130538072Y-115300000D01*
X130538072Y-113700000D01*
X130525812Y-113575518D01*
X130521105Y-113560000D01*
X135762678Y-113560000D01*
X135800000Y-113563676D01*
X135837322Y-113560000D01*
X135837333Y-113560000D01*
X135948986Y-113549003D01*
X136092247Y-113505546D01*
X136224276Y-113434974D01*
X136340001Y-113340001D01*
X136363803Y-113310998D01*
X136565000Y-113109802D01*
X136565000Y-113321637D01*
X136612460Y-113560236D01*
X136705557Y-113784992D01*
X136840713Y-113987267D01*
X137012733Y-114159287D01*
X137040000Y-114177507D01*
X137040001Y-115462668D01*
X137036324Y-115500000D01*
X137040001Y-115537333D01*
X137050998Y-115648986D01*
X137052669Y-115654494D01*
X137094454Y-115792246D01*
X137165026Y-115924276D01*
X137236201Y-116011002D01*
X137260000Y-116040001D01*
X137288998Y-116063799D01*
X139915198Y-118690000D01*
X137487322Y-118690000D01*
X137449999Y-118686324D01*
X137412676Y-118690000D01*
X137412667Y-118690000D01*
X137301014Y-118700997D01*
X137157753Y-118744454D01*
X137025724Y-118815026D01*
X136909999Y-118909999D01*
X136886201Y-118938997D01*
X134789003Y-121036196D01*
X134759999Y-121059999D01*
X134704871Y-121127174D01*
X134665026Y-121175724D01*
X134617377Y-121264869D01*
X134594454Y-121307754D01*
X134579614Y-121356675D01*
X134496063Y-121440226D01*
X134382795Y-121609744D01*
X134304774Y-121798102D01*
X134265000Y-121998061D01*
X134265000Y-122201939D01*
X134304774Y-122401898D01*
X134382795Y-122590256D01*
X134496063Y-122759774D01*
X134640226Y-122903937D01*
X134809744Y-123017205D01*
X134998102Y-123095226D01*
X135198061Y-123135000D01*
X135401939Y-123135000D01*
X135601898Y-123095226D01*
X135790256Y-123017205D01*
X135959774Y-122903937D01*
X136103937Y-122759774D01*
X136217205Y-122590256D01*
X136275301Y-122450000D01*
X144911928Y-122450000D01*
X144924188Y-122574482D01*
X144960498Y-122694180D01*
X145019463Y-122804494D01*
X145098815Y-122901185D01*
X145195506Y-122980537D01*
X145305820Y-123039502D01*
X145425518Y-123075812D01*
X145550000Y-123088072D01*
X146114250Y-123085000D01*
X146273000Y-122926250D01*
X146273000Y-121727000D01*
X146527000Y-121727000D01*
X146527000Y-122926250D01*
X146685750Y-123085000D01*
X147250000Y-123088072D01*
X147374482Y-123075812D01*
X147494180Y-123039502D01*
X147604494Y-122980537D01*
X147701185Y-122901185D01*
X147780537Y-122804494D01*
X147839502Y-122694180D01*
X147875812Y-122574482D01*
X147888072Y-122450000D01*
X147887528Y-122350000D01*
X154611928Y-122350000D01*
X154624188Y-122474482D01*
X154660498Y-122594180D01*
X154719463Y-122704494D01*
X154798815Y-122801185D01*
X154895506Y-122880537D01*
X155005820Y-122939502D01*
X155125518Y-122975812D01*
X155250000Y-122988072D01*
X155814250Y-122985000D01*
X155973000Y-122826250D01*
X155973000Y-121627000D01*
X156227000Y-121627000D01*
X156227000Y-122826250D01*
X156385750Y-122985000D01*
X156950000Y-122988072D01*
X157074482Y-122975812D01*
X157194180Y-122939502D01*
X157304494Y-122880537D01*
X157401185Y-122801185D01*
X157480537Y-122704494D01*
X157539502Y-122594180D01*
X157575812Y-122474482D01*
X157588072Y-122350000D01*
X157585000Y-121785750D01*
X157426250Y-121627000D01*
X156227000Y-121627000D01*
X155973000Y-121627000D01*
X154773750Y-121627000D01*
X154615000Y-121785750D01*
X154611928Y-122350000D01*
X147887528Y-122350000D01*
X147885000Y-121885750D01*
X147726250Y-121727000D01*
X146527000Y-121727000D01*
X146273000Y-121727000D01*
X145073750Y-121727000D01*
X144915000Y-121885750D01*
X144911928Y-122450000D01*
X136275301Y-122450000D01*
X136295226Y-122401898D01*
X136335000Y-122201939D01*
X136335000Y-121998061D01*
X136295226Y-121798102D01*
X136260510Y-121714291D01*
X137764802Y-120210000D01*
X141565298Y-120210000D01*
X141636595Y-120343386D01*
X141747038Y-120477962D01*
X141881614Y-120588405D01*
X142035150Y-120670472D01*
X142201746Y-120721008D01*
X142375000Y-120738072D01*
X143625000Y-120738072D01*
X143798254Y-120721008D01*
X143964850Y-120670472D01*
X144118386Y-120588405D01*
X144252962Y-120477962D01*
X144363405Y-120343386D01*
X144434702Y-120210000D01*
X145213210Y-120210000D01*
X145195506Y-120219463D01*
X145098815Y-120298815D01*
X145019463Y-120395506D01*
X144960498Y-120505820D01*
X144924188Y-120625518D01*
X144911928Y-120750000D01*
X144915000Y-121314250D01*
X145073750Y-121473000D01*
X146273000Y-121473000D01*
X146273000Y-121453000D01*
X146527000Y-121453000D01*
X146527000Y-121473000D01*
X147726250Y-121473000D01*
X147885000Y-121314250D01*
X147888072Y-120750000D01*
X147878224Y-120650000D01*
X154611928Y-120650000D01*
X154615000Y-121214250D01*
X154773750Y-121373000D01*
X155973000Y-121373000D01*
X155973000Y-120173750D01*
X156227000Y-120173750D01*
X156227000Y-121373000D01*
X157426250Y-121373000D01*
X157585000Y-121214250D01*
X157588072Y-120650000D01*
X157575812Y-120525518D01*
X157539502Y-120405820D01*
X157480537Y-120295506D01*
X157401185Y-120198815D01*
X157304494Y-120119463D01*
X157194180Y-120060498D01*
X157074482Y-120024188D01*
X156950000Y-120011928D01*
X156385750Y-120015000D01*
X156227000Y-120173750D01*
X155973000Y-120173750D01*
X155814250Y-120015000D01*
X155250000Y-120011928D01*
X155125518Y-120024188D01*
X155005820Y-120060498D01*
X154895506Y-120119463D01*
X154798815Y-120198815D01*
X154719463Y-120295506D01*
X154660498Y-120405820D01*
X154624188Y-120525518D01*
X154611928Y-120650000D01*
X147878224Y-120650000D01*
X147875812Y-120625518D01*
X147839502Y-120505820D01*
X147780537Y-120395506D01*
X147701185Y-120298815D01*
X147604494Y-120219463D01*
X147586790Y-120210000D01*
X149012678Y-120210000D01*
X149050000Y-120213676D01*
X149087322Y-120210000D01*
X149087333Y-120210000D01*
X149198986Y-120199003D01*
X149342247Y-120155546D01*
X149474276Y-120084974D01*
X149590001Y-119990001D01*
X149613804Y-119960997D01*
X151061003Y-118513799D01*
X151090001Y-118490001D01*
X151184974Y-118374276D01*
X151255546Y-118242247D01*
X151299003Y-118098986D01*
X151310000Y-117987333D01*
X151310000Y-117987324D01*
X151313676Y-117950001D01*
X151310000Y-117912678D01*
X151310000Y-117834702D01*
X151443386Y-117763405D01*
X151577962Y-117652962D01*
X151688405Y-117518386D01*
X151770472Y-117364850D01*
X151821008Y-117198254D01*
X151838072Y-117025000D01*
X151838072Y-115775000D01*
X151825822Y-115650624D01*
X152361928Y-116186730D01*
X152361928Y-117025000D01*
X152378992Y-117198254D01*
X152429528Y-117364850D01*
X152511595Y-117518386D01*
X152622038Y-117652962D01*
X152756614Y-117763405D01*
X152910150Y-117845472D01*
X153076746Y-117896008D01*
X153250000Y-117913072D01*
X154050000Y-117913072D01*
X154223254Y-117896008D01*
X154389850Y-117845472D01*
X154543386Y-117763405D01*
X154677962Y-117652962D01*
X154788405Y-117518386D01*
X154870472Y-117364850D01*
X154893847Y-117287793D01*
X154946525Y-117366632D01*
X155153368Y-117573475D01*
X155396589Y-117735990D01*
X155666842Y-117847932D01*
X155953740Y-117905000D01*
X156246260Y-117905000D01*
X156533158Y-117847932D01*
X156803411Y-117735990D01*
X157046632Y-117573475D01*
X157253475Y-117366632D01*
X157415990Y-117123411D01*
X157527932Y-116853158D01*
X157585000Y-116566260D01*
X157585000Y-116273740D01*
X157527932Y-115986842D01*
X157415990Y-115716589D01*
X157253475Y-115473368D01*
X157046632Y-115266525D01*
X156803411Y-115104010D01*
X156533158Y-114992068D01*
X156246260Y-114935000D01*
X155953740Y-114935000D01*
X155666842Y-114992068D01*
X155396589Y-115104010D01*
X155153368Y-115266525D01*
X154946525Y-115473368D01*
X154902192Y-115539717D01*
X154870472Y-115435150D01*
X154788405Y-115281614D01*
X154677962Y-115147038D01*
X154543386Y-115036595D01*
X154389850Y-114954528D01*
X154223254Y-114903992D01*
X154050000Y-114886928D01*
X153250000Y-114886928D01*
X153215161Y-114890359D01*
X151213804Y-112889003D01*
X151190001Y-112859999D01*
X151074276Y-112765026D01*
X150942247Y-112694454D01*
X150798986Y-112650997D01*
X150687333Y-112640000D01*
X150687322Y-112640000D01*
X150650000Y-112636324D01*
X150612678Y-112640000D01*
X142003711Y-112640000D01*
X141959774Y-112596063D01*
X141790256Y-112482795D01*
X141601898Y-112404774D01*
X141401939Y-112365000D01*
X141198061Y-112365000D01*
X140998102Y-112404774D01*
X140809744Y-112482795D01*
X140640226Y-112596063D01*
X140500000Y-112736289D01*
X140359774Y-112596063D01*
X140190256Y-112482795D01*
X140001898Y-112404774D01*
X139801939Y-112365000D01*
X139598061Y-112365000D01*
X139398102Y-112404774D01*
X139209744Y-112482795D01*
X139040226Y-112596063D01*
X138931593Y-112704696D01*
X138894443Y-112615008D01*
X138759287Y-112412733D01*
X138685000Y-112338446D01*
X138685000Y-112050000D01*
X150611928Y-112050000D01*
X150624188Y-112174482D01*
X150660498Y-112294180D01*
X150719463Y-112404494D01*
X150798815Y-112501185D01*
X150895506Y-112580537D01*
X151005820Y-112639502D01*
X151125518Y-112675812D01*
X151250000Y-112688072D01*
X151814250Y-112685000D01*
X151973000Y-112526250D01*
X151973000Y-111327000D01*
X152227000Y-111327000D01*
X152227000Y-112526250D01*
X152385750Y-112685000D01*
X152950000Y-112688072D01*
X153074482Y-112675812D01*
X153194180Y-112639502D01*
X153304494Y-112580537D01*
X153401185Y-112501185D01*
X153480537Y-112404494D01*
X153539502Y-112294180D01*
X153575812Y-112174482D01*
X153588072Y-112050000D01*
X153585000Y-111485750D01*
X153426250Y-111327000D01*
X152227000Y-111327000D01*
X151973000Y-111327000D01*
X150773750Y-111327000D01*
X150615000Y-111485750D01*
X150611928Y-112050000D01*
X138685000Y-112050000D01*
X138685000Y-111327278D01*
X138789851Y-111295472D01*
X138943387Y-111213405D01*
X139077962Y-111102962D01*
X139188405Y-110968387D01*
X139270472Y-110814851D01*
X139321008Y-110648255D01*
X139338072Y-110475001D01*
X139338072Y-109649999D01*
X139329208Y-109560000D01*
X142762678Y-109560000D01*
X142800000Y-109563676D01*
X142837322Y-109560000D01*
X142837333Y-109560000D01*
X142948986Y-109549003D01*
X143092247Y-109505546D01*
X143219526Y-109437513D01*
X143282795Y-109590256D01*
X143396063Y-109759774D01*
X143540226Y-109903937D01*
X143709744Y-110017205D01*
X143898102Y-110095226D01*
X144098061Y-110135000D01*
X144301939Y-110135000D01*
X144501898Y-110095226D01*
X144690256Y-110017205D01*
X144859774Y-109903937D01*
X144903711Y-109860000D01*
X150846111Y-109860000D01*
X150798815Y-109898815D01*
X150719463Y-109995506D01*
X150660498Y-110105820D01*
X150624188Y-110225518D01*
X150611928Y-110350000D01*
X150615000Y-110914250D01*
X150773750Y-111073000D01*
X151973000Y-111073000D01*
X151973000Y-109873750D01*
X152227000Y-109873750D01*
X152227000Y-111073000D01*
X153426250Y-111073000D01*
X153585000Y-110914250D01*
X153588072Y-110350000D01*
X153575812Y-110225518D01*
X153539502Y-110105820D01*
X153480537Y-109995506D01*
X153401185Y-109898815D01*
X153304494Y-109819463D01*
X153194180Y-109760498D01*
X153074482Y-109724188D01*
X152950000Y-109711928D01*
X152385750Y-109715000D01*
X152227000Y-109873750D01*
X151973000Y-109873750D01*
X151900425Y-109801175D01*
X152024276Y-109734974D01*
X152140001Y-109640001D01*
X152163804Y-109610997D01*
X152610998Y-109163803D01*
X152640001Y-109140001D01*
X152734974Y-109024276D01*
X152805546Y-108892247D01*
X152849003Y-108748986D01*
X152860000Y-108637333D01*
X152860000Y-108637325D01*
X152863676Y-108600000D01*
X152860000Y-108562675D01*
X152860000Y-107398178D01*
X153046632Y-107273475D01*
X153253475Y-107066632D01*
X153415990Y-106823411D01*
X153527932Y-106553158D01*
X153585000Y-106266260D01*
X153585000Y-105973740D01*
X153527932Y-105686842D01*
X153415990Y-105416589D01*
X153253475Y-105173368D01*
X153046632Y-104966525D01*
X152803411Y-104804010D01*
X152533158Y-104692068D01*
X152246260Y-104635000D01*
X151953740Y-104635000D01*
X151666842Y-104692068D01*
X151396589Y-104804010D01*
X151153368Y-104966525D01*
X150946525Y-105173368D01*
X150784010Y-105416589D01*
X150672068Y-105686842D01*
X150615000Y-105973740D01*
X150615000Y-106266260D01*
X150672068Y-106553158D01*
X150784010Y-106823411D01*
X150946525Y-107066632D01*
X151153368Y-107273475D01*
X151340000Y-107398179D01*
X151340000Y-108285199D01*
X151285199Y-108340000D01*
X146327429Y-108340000D01*
X146335000Y-108301939D01*
X146335000Y-108098061D01*
X146295226Y-107898102D01*
X146217205Y-107709744D01*
X146103937Y-107540226D01*
X146060000Y-107496289D01*
X146060000Y-102600107D01*
X146153368Y-102693475D01*
X146396589Y-102855990D01*
X146666842Y-102967932D01*
X146953740Y-103025000D01*
X147246260Y-103025000D01*
X147533158Y-102967932D01*
X147803411Y-102855990D01*
X148046632Y-102693475D01*
X148253475Y-102486632D01*
X148415990Y-102243411D01*
X148527932Y-101973158D01*
X148585000Y-101686260D01*
X148585000Y-101393740D01*
X148527932Y-101106842D01*
X148415990Y-100836589D01*
X148253475Y-100593368D01*
X148121620Y-100461513D01*
X148194180Y-100439502D01*
X148304494Y-100380537D01*
X148401185Y-100301185D01*
X148480537Y-100204494D01*
X148539502Y-100094180D01*
X148575812Y-99974482D01*
X148588072Y-99850000D01*
X148588072Y-98150000D01*
X148575812Y-98025518D01*
X148539502Y-97905820D01*
X148480537Y-97795506D01*
X148401185Y-97698815D01*
X148304494Y-97619463D01*
X148194180Y-97560498D01*
X148074482Y-97524188D01*
X147950000Y-97511928D01*
X146250000Y-97511928D01*
X146125518Y-97524188D01*
X146005820Y-97560498D01*
X145895506Y-97619463D01*
X145798815Y-97698815D01*
X145719463Y-97795506D01*
X145660498Y-97905820D01*
X145638487Y-97978380D01*
X145506632Y-97846525D01*
X145263411Y-97684010D01*
X144993158Y-97572068D01*
X144706260Y-97515000D01*
X144413740Y-97515000D01*
X144126842Y-97572068D01*
X143856589Y-97684010D01*
X143613368Y-97846525D01*
X143406525Y-98053368D01*
X143290000Y-98227760D01*
X143173475Y-98053368D01*
X142966632Y-97846525D01*
X142723411Y-97684010D01*
X142453158Y-97572068D01*
X142166260Y-97515000D01*
X141873740Y-97515000D01*
X141586842Y-97572068D01*
X141316589Y-97684010D01*
X141073368Y-97846525D01*
X140866525Y-98053368D01*
X140704010Y-98296589D01*
X140592068Y-98566842D01*
X140535000Y-98853740D01*
X140535000Y-99146260D01*
X140592068Y-99433158D01*
X140704010Y-99703411D01*
X140866525Y-99946632D01*
X141073368Y-100153475D01*
X141249406Y-100271100D01*
X141019731Y-100442412D01*
X140824822Y-100658645D01*
X140675843Y-100908748D01*
X140578519Y-101183109D01*
X140699186Y-101413000D01*
X141893000Y-101413000D01*
X141893000Y-101393000D01*
X142147000Y-101393000D01*
X142147000Y-101413000D01*
X142167000Y-101413000D01*
X142167000Y-101667000D01*
X142147000Y-101667000D01*
X142147000Y-102860155D01*
X142376890Y-102981476D01*
X142524099Y-102936825D01*
X142625000Y-102888765D01*
X142625000Y-103189478D01*
X142501939Y-103165000D01*
X142298061Y-103165000D01*
X142098102Y-103204774D01*
X141909744Y-103282795D01*
X141740226Y-103396063D01*
X141596063Y-103540226D01*
X141482795Y-103709744D01*
X141404774Y-103898102D01*
X141365000Y-104098061D01*
X141365000Y-104301939D01*
X141404774Y-104501898D01*
X141482795Y-104690256D01*
X141596063Y-104859774D01*
X141640001Y-104903712D01*
X141640000Y-107589990D01*
X139337990Y-107589990D01*
X139335000Y-107223250D01*
X139176250Y-107064500D01*
X137927000Y-107064500D01*
X137927000Y-107084500D01*
X137673000Y-107084500D01*
X137673000Y-107064500D01*
X137653000Y-107064500D01*
X137653000Y-106810500D01*
X137673000Y-106810500D01*
X137673000Y-105798750D01*
X137927000Y-105798750D01*
X137927000Y-106810500D01*
X139176250Y-106810500D01*
X139335000Y-106651750D01*
X139338072Y-106275000D01*
X139325812Y-106150518D01*
X139289502Y-106030820D01*
X139230537Y-105920506D01*
X139151185Y-105823815D01*
X139054494Y-105744463D01*
X138944180Y-105685498D01*
X138824482Y-105649188D01*
X138700000Y-105636928D01*
X138085750Y-105640000D01*
X137927000Y-105798750D01*
X137673000Y-105798750D01*
X137514250Y-105640000D01*
X136900000Y-105636928D01*
X136775518Y-105649188D01*
X136655820Y-105685498D01*
X136545506Y-105744463D01*
X136448815Y-105823815D01*
X136369463Y-105920506D01*
X136310498Y-106030820D01*
X136285000Y-106114876D01*
X136285000Y-104966578D01*
X138295049Y-102956530D01*
X138328817Y-102928817D01*
X138369330Y-102879453D01*
X138439410Y-102794060D01*
X138487400Y-102704276D01*
X138521589Y-102640313D01*
X138572195Y-102473490D01*
X138585000Y-102343477D01*
X138585000Y-102343467D01*
X138589281Y-102300001D01*
X138585000Y-102256535D01*
X138585000Y-101896891D01*
X140578519Y-101896891D01*
X140675843Y-102171252D01*
X140824822Y-102421355D01*
X141019731Y-102637588D01*
X141253080Y-102811641D01*
X141515901Y-102936825D01*
X141663110Y-102981476D01*
X141893000Y-102860155D01*
X141893000Y-101667000D01*
X140699186Y-101667000D01*
X140578519Y-101896891D01*
X138585000Y-101896891D01*
X138585000Y-98038454D01*
X138617205Y-97990256D01*
X138695226Y-97801898D01*
X138735000Y-97601939D01*
X138735000Y-97398061D01*
X138695226Y-97198102D01*
X138617205Y-97009744D01*
X138503937Y-96840226D01*
X138359774Y-96696063D01*
X138190256Y-96582795D01*
X138001898Y-96504774D01*
X137801939Y-96465000D01*
X137598061Y-96465000D01*
X137398102Y-96504774D01*
X137209744Y-96582795D01*
X137040226Y-96696063D01*
X136896063Y-96840226D01*
X136782795Y-97009744D01*
X136704774Y-97198102D01*
X136665000Y-97398061D01*
X136665000Y-97601939D01*
X136704774Y-97801898D01*
X136782795Y-97990256D01*
X136815000Y-98038454D01*
X136815001Y-101933420D01*
X134804956Y-103943466D01*
X134771183Y-103971183D01*
X134660589Y-104105942D01*
X134578411Y-104259688D01*
X134527805Y-104426511D01*
X134515000Y-104556524D01*
X134515000Y-104556531D01*
X134510719Y-104600000D01*
X134515000Y-104643469D01*
X134515001Y-107033420D01*
X133304956Y-108243466D01*
X133271183Y-108271183D01*
X133160589Y-108405942D01*
X133078411Y-108559688D01*
X133054655Y-108638000D01*
X133032002Y-108712677D01*
X133027805Y-108726511D01*
X133015000Y-108856524D01*
X133015000Y-108856531D01*
X133010719Y-108900000D01*
X133015000Y-108943469D01*
X133015001Y-110038445D01*
X132940713Y-110112733D01*
X132805557Y-110315008D01*
X132712460Y-110539764D01*
X132665000Y-110778363D01*
X132665000Y-111021637D01*
X132712460Y-111260236D01*
X132745499Y-111340000D01*
X126457333Y-111340000D01*
X126420000Y-111336323D01*
X126382667Y-111340000D01*
X126271014Y-111350997D01*
X126127753Y-111394454D01*
X125995724Y-111465026D01*
X125879999Y-111559999D01*
X125856201Y-111588997D01*
X124343886Y-113101312D01*
X124161335Y-113065000D01*
X123878665Y-113065000D01*
X123601426Y-113120147D01*
X123340273Y-113228320D01*
X123105241Y-113385363D01*
X122905363Y-113585241D01*
X122748320Y-113820273D01*
X122640147Y-114081426D01*
X122585000Y-114358665D01*
X116209408Y-114358665D01*
X116225000Y-114280279D01*
X116225000Y-113859721D01*
X116142953Y-113447244D01*
X115982012Y-113058698D01*
X115748363Y-112709017D01*
X115450983Y-112411637D01*
X115101302Y-112177988D01*
X114712756Y-112017047D01*
X114590366Y-111992702D01*
X115986903Y-111992702D01*
X116058486Y-112236671D01*
X116313996Y-112357571D01*
X116588184Y-112426300D01*
X116870512Y-112440217D01*
X117150130Y-112398787D01*
X117416292Y-112303603D01*
X117541514Y-112236671D01*
X117613097Y-111992702D01*
X116800000Y-111179605D01*
X115986903Y-111992702D01*
X114590366Y-111992702D01*
X114300279Y-111935000D01*
X113879721Y-111935000D01*
X113467244Y-112017047D01*
X113078698Y-112177988D01*
X112729017Y-112411637D01*
X112685000Y-112455654D01*
X112685000Y-111070512D01*
X115359783Y-111070512D01*
X115401213Y-111350130D01*
X115496397Y-111616292D01*
X115563329Y-111741514D01*
X115807298Y-111813097D01*
X116620395Y-111000000D01*
X116979605Y-111000000D01*
X117792702Y-111813097D01*
X118036671Y-111741514D01*
X118157571Y-111486004D01*
X118226300Y-111211816D01*
X118240217Y-110929488D01*
X118198787Y-110649870D01*
X118103603Y-110383708D01*
X118036671Y-110258486D01*
X117792702Y-110186903D01*
X116979605Y-111000000D01*
X116620395Y-111000000D01*
X115807298Y-110186903D01*
X115563329Y-110258486D01*
X115442429Y-110513996D01*
X115373700Y-110788184D01*
X115359783Y-111070512D01*
X112685000Y-111070512D01*
X112685000Y-106358665D01*
X115365000Y-106358665D01*
X115365000Y-106641335D01*
X115420147Y-106918574D01*
X115528320Y-107179727D01*
X115685363Y-107414759D01*
X115770604Y-107500000D01*
X115685363Y-107585241D01*
X115528320Y-107820273D01*
X115420147Y-108081426D01*
X115365000Y-108358665D01*
X115365000Y-108641335D01*
X115420147Y-108918574D01*
X115528320Y-109179727D01*
X115685363Y-109414759D01*
X115885241Y-109614637D01*
X116085869Y-109748692D01*
X116058486Y-109763329D01*
X115986903Y-110007298D01*
X116800000Y-110820395D01*
X117613097Y-110007298D01*
X117541514Y-109763329D01*
X117512659Y-109749676D01*
X117714759Y-109614637D01*
X117914637Y-109414759D01*
X118071680Y-109179727D01*
X118121272Y-109060000D01*
X125196440Y-109060000D01*
X125204774Y-109101898D01*
X125282795Y-109290256D01*
X125396063Y-109459774D01*
X125540226Y-109603937D01*
X125709744Y-109717205D01*
X125898102Y-109795226D01*
X126098061Y-109835000D01*
X126301939Y-109835000D01*
X126501898Y-109795226D01*
X126690256Y-109717205D01*
X126859774Y-109603937D01*
X127003937Y-109459774D01*
X127117205Y-109290256D01*
X127195226Y-109101898D01*
X127235000Y-108901939D01*
X127235000Y-108698061D01*
X127195226Y-108498102D01*
X127117205Y-108309744D01*
X127003937Y-108140226D01*
X126913711Y-108050000D01*
X127003937Y-107959774D01*
X127117205Y-107790256D01*
X127195226Y-107601898D01*
X127235000Y-107401939D01*
X127235000Y-107198061D01*
X127195226Y-106998102D01*
X127117205Y-106809744D01*
X127003937Y-106640226D01*
X126859774Y-106496063D01*
X126690256Y-106382795D01*
X126501898Y-106304774D01*
X126301939Y-106265000D01*
X126239801Y-106265000D01*
X125863803Y-105889002D01*
X125840001Y-105859999D01*
X125724276Y-105765026D01*
X125592247Y-105694454D01*
X125448986Y-105650997D01*
X125337333Y-105640000D01*
X125337322Y-105640000D01*
X125300000Y-105636324D01*
X125262678Y-105640000D01*
X117951226Y-105640000D01*
X117914637Y-105585241D01*
X117736419Y-105407023D01*
X117794180Y-105389502D01*
X117904494Y-105330537D01*
X118001185Y-105251185D01*
X118080537Y-105154494D01*
X118139502Y-105044180D01*
X118175812Y-104924482D01*
X118188072Y-104800000D01*
X118188072Y-103200000D01*
X118175812Y-103075518D01*
X118139502Y-102955820D01*
X118080537Y-102845506D01*
X118001185Y-102748815D01*
X117904494Y-102669463D01*
X117794180Y-102610498D01*
X117674482Y-102574188D01*
X117550000Y-102561928D01*
X116050000Y-102561928D01*
X115925518Y-102574188D01*
X115805820Y-102610498D01*
X115695506Y-102669463D01*
X115598815Y-102748815D01*
X115519463Y-102845506D01*
X115460498Y-102955820D01*
X115424188Y-103075518D01*
X115411928Y-103200000D01*
X115411928Y-104800000D01*
X115424188Y-104924482D01*
X115460498Y-105044180D01*
X115519463Y-105154494D01*
X115598815Y-105251185D01*
X115695506Y-105330537D01*
X115805820Y-105389502D01*
X115863581Y-105407023D01*
X115685363Y-105585241D01*
X115528320Y-105820273D01*
X115420147Y-106081426D01*
X115365000Y-106358665D01*
X112685000Y-106358665D01*
X112685000Y-102544346D01*
X112729017Y-102588363D01*
X113078698Y-102822012D01*
X113467244Y-102982953D01*
X113879721Y-103065000D01*
X114300279Y-103065000D01*
X114712756Y-102982953D01*
X115101302Y-102822012D01*
X115450983Y-102588363D01*
X115748363Y-102290983D01*
X115982012Y-101941302D01*
X116142953Y-101552756D01*
X116225000Y-101140279D01*
X116225000Y-100719721D01*
X116142953Y-100307244D01*
X115982012Y-99918698D01*
X115748363Y-99569017D01*
X115450983Y-99271637D01*
X115101302Y-99037988D01*
X114712756Y-98877047D01*
X114300279Y-98795000D01*
X113879721Y-98795000D01*
X113467244Y-98877047D01*
X113078698Y-99037988D01*
X112729017Y-99271637D01*
X112685000Y-99315654D01*
X112685000Y-90685000D01*
X161315000Y-90685000D01*
X161315001Y-124315000D01*
G04 #@! TA.AperFunction,Conductor*
D22*
G36*
X161315001Y-124315000D02*
G01*
X112685000Y-124315000D01*
X112685000Y-122469040D01*
X122628091Y-122469040D01*
X122722930Y-122733881D01*
X122867615Y-122975131D01*
X123056586Y-123183519D01*
X123282580Y-123351037D01*
X123536913Y-123471246D01*
X123670961Y-123511904D01*
X123893000Y-123389915D01*
X123893000Y-122247000D01*
X124147000Y-122247000D01*
X124147000Y-123389915D01*
X124369039Y-123511904D01*
X124503087Y-123471246D01*
X124757420Y-123351037D01*
X124983414Y-123183519D01*
X125172385Y-122975131D01*
X125290000Y-122779018D01*
X125407615Y-122975131D01*
X125596586Y-123183519D01*
X125822580Y-123351037D01*
X126076913Y-123471246D01*
X126210961Y-123511904D01*
X126433000Y-123389915D01*
X126433000Y-122247000D01*
X126687000Y-122247000D01*
X126687000Y-123389915D01*
X126909039Y-123511904D01*
X127043087Y-123471246D01*
X127297420Y-123351037D01*
X127523414Y-123183519D01*
X127712385Y-122975131D01*
X127830000Y-122779018D01*
X127947615Y-122975131D01*
X128136586Y-123183519D01*
X128362580Y-123351037D01*
X128616913Y-123471246D01*
X128750961Y-123511904D01*
X128973000Y-123389915D01*
X128973000Y-122247000D01*
X129227000Y-122247000D01*
X129227000Y-123389915D01*
X129449039Y-123511904D01*
X129583087Y-123471246D01*
X129837420Y-123351037D01*
X130063414Y-123183519D01*
X130252385Y-122975131D01*
X130397070Y-122733881D01*
X130491909Y-122469040D01*
X130370624Y-122247000D01*
X129227000Y-122247000D01*
X128973000Y-122247000D01*
X126687000Y-122247000D01*
X126433000Y-122247000D01*
X124147000Y-122247000D01*
X123893000Y-122247000D01*
X122749376Y-122247000D01*
X122628091Y-122469040D01*
X112685000Y-122469040D01*
X112685000Y-121770960D01*
X122628091Y-121770960D01*
X122749376Y-121993000D01*
X123893000Y-121993000D01*
X123893000Y-120850085D01*
X124147000Y-120850085D01*
X124147000Y-121993000D01*
X126433000Y-121993000D01*
X126433000Y-120850085D01*
X126687000Y-120850085D01*
X126687000Y-121993000D01*
X128973000Y-121993000D01*
X128973000Y-120850085D01*
X129227000Y-120850085D01*
X129227000Y-121993000D01*
X130370624Y-121993000D01*
X130491909Y-121770960D01*
X130397070Y-121506119D01*
X130252385Y-121264869D01*
X130063414Y-121056481D01*
X129837420Y-120888963D01*
X129583087Y-120768754D01*
X129449039Y-120728096D01*
X129227000Y-120850085D01*
X128973000Y-120850085D01*
X128750961Y-120728096D01*
X128616913Y-120768754D01*
X128362580Y-120888963D01*
X128136586Y-121056481D01*
X127947615Y-121264869D01*
X127830000Y-121460982D01*
X127712385Y-121264869D01*
X127523414Y-121056481D01*
X127297420Y-120888963D01*
X127043087Y-120768754D01*
X126909039Y-120728096D01*
X126687000Y-120850085D01*
X126433000Y-120850085D01*
X126210961Y-120728096D01*
X126076913Y-120768754D01*
X125822580Y-120888963D01*
X125596586Y-121056481D01*
X125407615Y-121264869D01*
X125290000Y-121460982D01*
X125172385Y-121264869D01*
X124983414Y-121056481D01*
X124757420Y-120888963D01*
X124503087Y-120768754D01*
X124369039Y-120728096D01*
X124147000Y-120850085D01*
X123893000Y-120850085D01*
X123670961Y-120728096D01*
X123536913Y-120768754D01*
X123282580Y-120888963D01*
X123056586Y-121056481D01*
X122867615Y-121264869D01*
X122722930Y-121506119D01*
X122628091Y-121770960D01*
X112685000Y-121770960D01*
X112685000Y-115684346D01*
X112729017Y-115728363D01*
X113078698Y-115962012D01*
X113467244Y-116122953D01*
X113879721Y-116205000D01*
X114300279Y-116205000D01*
X114712756Y-116122953D01*
X115101302Y-115962012D01*
X115450983Y-115728363D01*
X115748363Y-115430983D01*
X115982012Y-115081302D01*
X116142953Y-114692756D01*
X116209408Y-114358665D01*
X122585000Y-114358665D01*
X122585000Y-114641335D01*
X122640147Y-114918574D01*
X122748320Y-115179727D01*
X122905363Y-115414759D01*
X123105241Y-115614637D01*
X123340273Y-115771680D01*
X123601426Y-115879853D01*
X123878665Y-115935000D01*
X124161335Y-115935000D01*
X124438574Y-115879853D01*
X124699727Y-115771680D01*
X124934759Y-115614637D01*
X125134637Y-115414759D01*
X125290000Y-115182241D01*
X125445363Y-115414759D01*
X125645241Y-115614637D01*
X125880273Y-115771680D01*
X126141426Y-115879853D01*
X126418665Y-115935000D01*
X126701335Y-115935000D01*
X126978574Y-115879853D01*
X127239727Y-115771680D01*
X127474759Y-115614637D01*
X127673357Y-115416039D01*
X127674188Y-115424482D01*
X127710498Y-115544180D01*
X127769463Y-115654494D01*
X127848815Y-115751185D01*
X127945506Y-115830537D01*
X128055820Y-115889502D01*
X128175518Y-115925812D01*
X128300000Y-115938072D01*
X129900000Y-115938072D01*
X130024482Y-115925812D01*
X130144180Y-115889502D01*
X130254494Y-115830537D01*
X130351185Y-115751185D01*
X130430537Y-115654494D01*
X130489502Y-115544180D01*
X130525812Y-115424482D01*
X130538072Y-115300000D01*
X130538072Y-113700000D01*
X130525812Y-113575518D01*
X130521105Y-113560000D01*
X135762678Y-113560000D01*
X135800000Y-113563676D01*
X135837322Y-113560000D01*
X135837333Y-113560000D01*
X135948986Y-113549003D01*
X136092247Y-113505546D01*
X136224276Y-113434974D01*
X136340001Y-113340001D01*
X136363803Y-113310998D01*
X136565000Y-113109802D01*
X136565000Y-113321637D01*
X136612460Y-113560236D01*
X136705557Y-113784992D01*
X136840713Y-113987267D01*
X137012733Y-114159287D01*
X137040000Y-114177507D01*
X137040001Y-115462668D01*
X137036324Y-115500000D01*
X137040001Y-115537333D01*
X137050998Y-115648986D01*
X137052669Y-115654494D01*
X137094454Y-115792246D01*
X137165026Y-115924276D01*
X137236201Y-116011002D01*
X137260000Y-116040001D01*
X137288998Y-116063799D01*
X139915198Y-118690000D01*
X137487322Y-118690000D01*
X137449999Y-118686324D01*
X137412676Y-118690000D01*
X137412667Y-118690000D01*
X137301014Y-118700997D01*
X137157753Y-118744454D01*
X137025724Y-118815026D01*
X136909999Y-118909999D01*
X136886201Y-118938997D01*
X134789003Y-121036196D01*
X134759999Y-121059999D01*
X134704871Y-121127174D01*
X134665026Y-121175724D01*
X134617377Y-121264869D01*
X134594454Y-121307754D01*
X134579614Y-121356675D01*
X134496063Y-121440226D01*
X134382795Y-121609744D01*
X134304774Y-121798102D01*
X134265000Y-121998061D01*
X134265000Y-122201939D01*
X134304774Y-122401898D01*
X134382795Y-122590256D01*
X134496063Y-122759774D01*
X134640226Y-122903937D01*
X134809744Y-123017205D01*
X134998102Y-123095226D01*
X135198061Y-123135000D01*
X135401939Y-123135000D01*
X135601898Y-123095226D01*
X135790256Y-123017205D01*
X135959774Y-122903937D01*
X136103937Y-122759774D01*
X136217205Y-122590256D01*
X136275301Y-122450000D01*
X144911928Y-122450000D01*
X144924188Y-122574482D01*
X144960498Y-122694180D01*
X145019463Y-122804494D01*
X145098815Y-122901185D01*
X145195506Y-122980537D01*
X145305820Y-123039502D01*
X145425518Y-123075812D01*
X145550000Y-123088072D01*
X146114250Y-123085000D01*
X146273000Y-122926250D01*
X146273000Y-121727000D01*
X146527000Y-121727000D01*
X146527000Y-122926250D01*
X146685750Y-123085000D01*
X147250000Y-123088072D01*
X147374482Y-123075812D01*
X147494180Y-123039502D01*
X147604494Y-122980537D01*
X147701185Y-122901185D01*
X147780537Y-122804494D01*
X147839502Y-122694180D01*
X147875812Y-122574482D01*
X147888072Y-122450000D01*
X147887528Y-122350000D01*
X154611928Y-122350000D01*
X154624188Y-122474482D01*
X154660498Y-122594180D01*
X154719463Y-122704494D01*
X154798815Y-122801185D01*
X154895506Y-122880537D01*
X155005820Y-122939502D01*
X155125518Y-122975812D01*
X155250000Y-122988072D01*
X155814250Y-122985000D01*
X155973000Y-122826250D01*
X155973000Y-121627000D01*
X156227000Y-121627000D01*
X156227000Y-122826250D01*
X156385750Y-122985000D01*
X156950000Y-122988072D01*
X157074482Y-122975812D01*
X157194180Y-122939502D01*
X157304494Y-122880537D01*
X157401185Y-122801185D01*
X157480537Y-122704494D01*
X157539502Y-122594180D01*
X157575812Y-122474482D01*
X157588072Y-122350000D01*
X157585000Y-121785750D01*
X157426250Y-121627000D01*
X156227000Y-121627000D01*
X155973000Y-121627000D01*
X154773750Y-121627000D01*
X154615000Y-121785750D01*
X154611928Y-122350000D01*
X147887528Y-122350000D01*
X147885000Y-121885750D01*
X147726250Y-121727000D01*
X146527000Y-121727000D01*
X146273000Y-121727000D01*
X145073750Y-121727000D01*
X144915000Y-121885750D01*
X144911928Y-122450000D01*
X136275301Y-122450000D01*
X136295226Y-122401898D01*
X136335000Y-122201939D01*
X136335000Y-121998061D01*
X136295226Y-121798102D01*
X136260510Y-121714291D01*
X137764802Y-120210000D01*
X141565298Y-120210000D01*
X141636595Y-120343386D01*
X141747038Y-120477962D01*
X141881614Y-120588405D01*
X142035150Y-120670472D01*
X142201746Y-120721008D01*
X142375000Y-120738072D01*
X143625000Y-120738072D01*
X143798254Y-120721008D01*
X143964850Y-120670472D01*
X144118386Y-120588405D01*
X144252962Y-120477962D01*
X144363405Y-120343386D01*
X144434702Y-120210000D01*
X145213210Y-120210000D01*
X145195506Y-120219463D01*
X145098815Y-120298815D01*
X145019463Y-120395506D01*
X144960498Y-120505820D01*
X144924188Y-120625518D01*
X144911928Y-120750000D01*
X144915000Y-121314250D01*
X145073750Y-121473000D01*
X146273000Y-121473000D01*
X146273000Y-121453000D01*
X146527000Y-121453000D01*
X146527000Y-121473000D01*
X147726250Y-121473000D01*
X147885000Y-121314250D01*
X147888072Y-120750000D01*
X147878224Y-120650000D01*
X154611928Y-120650000D01*
X154615000Y-121214250D01*
X154773750Y-121373000D01*
X155973000Y-121373000D01*
X155973000Y-120173750D01*
X156227000Y-120173750D01*
X156227000Y-121373000D01*
X157426250Y-121373000D01*
X157585000Y-121214250D01*
X157588072Y-120650000D01*
X157575812Y-120525518D01*
X157539502Y-120405820D01*
X157480537Y-120295506D01*
X157401185Y-120198815D01*
X157304494Y-120119463D01*
X157194180Y-120060498D01*
X157074482Y-120024188D01*
X156950000Y-120011928D01*
X156385750Y-120015000D01*
X156227000Y-120173750D01*
X155973000Y-120173750D01*
X155814250Y-120015000D01*
X155250000Y-120011928D01*
X155125518Y-120024188D01*
X155005820Y-120060498D01*
X154895506Y-120119463D01*
X154798815Y-120198815D01*
X154719463Y-120295506D01*
X154660498Y-120405820D01*
X154624188Y-120525518D01*
X154611928Y-120650000D01*
X147878224Y-120650000D01*
X147875812Y-120625518D01*
X147839502Y-120505820D01*
X147780537Y-120395506D01*
X147701185Y-120298815D01*
X147604494Y-120219463D01*
X147586790Y-120210000D01*
X149012678Y-120210000D01*
X149050000Y-120213676D01*
X149087322Y-120210000D01*
X149087333Y-120210000D01*
X149198986Y-120199003D01*
X149342247Y-120155546D01*
X149474276Y-120084974D01*
X149590001Y-119990001D01*
X149613804Y-119960997D01*
X151061003Y-118513799D01*
X151090001Y-118490001D01*
X151184974Y-118374276D01*
X151255546Y-118242247D01*
X151299003Y-118098986D01*
X151310000Y-117987333D01*
X151310000Y-117987324D01*
X151313676Y-117950001D01*
X151310000Y-117912678D01*
X151310000Y-117834702D01*
X151443386Y-117763405D01*
X151577962Y-117652962D01*
X151688405Y-117518386D01*
X151770472Y-117364850D01*
X151821008Y-117198254D01*
X151838072Y-117025000D01*
X151838072Y-115775000D01*
X151825822Y-115650624D01*
X152361928Y-116186730D01*
X152361928Y-117025000D01*
X152378992Y-117198254D01*
X152429528Y-117364850D01*
X152511595Y-117518386D01*
X152622038Y-117652962D01*
X152756614Y-117763405D01*
X152910150Y-117845472D01*
X153076746Y-117896008D01*
X153250000Y-117913072D01*
X154050000Y-117913072D01*
X154223254Y-117896008D01*
X154389850Y-117845472D01*
X154543386Y-117763405D01*
X154677962Y-117652962D01*
X154788405Y-117518386D01*
X154870472Y-117364850D01*
X154893847Y-117287793D01*
X154946525Y-117366632D01*
X155153368Y-117573475D01*
X155396589Y-117735990D01*
X155666842Y-117847932D01*
X155953740Y-117905000D01*
X156246260Y-117905000D01*
X156533158Y-117847932D01*
X156803411Y-117735990D01*
X157046632Y-117573475D01*
X157253475Y-117366632D01*
X157415990Y-117123411D01*
X157527932Y-116853158D01*
X157585000Y-116566260D01*
X157585000Y-116273740D01*
X157527932Y-115986842D01*
X157415990Y-115716589D01*
X157253475Y-115473368D01*
X157046632Y-115266525D01*
X156803411Y-115104010D01*
X156533158Y-114992068D01*
X156246260Y-114935000D01*
X155953740Y-114935000D01*
X155666842Y-114992068D01*
X155396589Y-115104010D01*
X155153368Y-115266525D01*
X154946525Y-115473368D01*
X154902192Y-115539717D01*
X154870472Y-115435150D01*
X154788405Y-115281614D01*
X154677962Y-115147038D01*
X154543386Y-115036595D01*
X154389850Y-114954528D01*
X154223254Y-114903992D01*
X154050000Y-114886928D01*
X153250000Y-114886928D01*
X153215161Y-114890359D01*
X151213804Y-112889003D01*
X151190001Y-112859999D01*
X151074276Y-112765026D01*
X150942247Y-112694454D01*
X150798986Y-112650997D01*
X150687333Y-112640000D01*
X150687322Y-112640000D01*
X150650000Y-112636324D01*
X150612678Y-112640000D01*
X142003711Y-112640000D01*
X141959774Y-112596063D01*
X141790256Y-112482795D01*
X141601898Y-112404774D01*
X141401939Y-112365000D01*
X141198061Y-112365000D01*
X140998102Y-112404774D01*
X140809744Y-112482795D01*
X140640226Y-112596063D01*
X140500000Y-112736289D01*
X140359774Y-112596063D01*
X140190256Y-112482795D01*
X140001898Y-112404774D01*
X139801939Y-112365000D01*
X139598061Y-112365000D01*
X139398102Y-112404774D01*
X139209744Y-112482795D01*
X139040226Y-112596063D01*
X138931593Y-112704696D01*
X138894443Y-112615008D01*
X138759287Y-112412733D01*
X138685000Y-112338446D01*
X138685000Y-112050000D01*
X150611928Y-112050000D01*
X150624188Y-112174482D01*
X150660498Y-112294180D01*
X150719463Y-112404494D01*
X150798815Y-112501185D01*
X150895506Y-112580537D01*
X151005820Y-112639502D01*
X151125518Y-112675812D01*
X151250000Y-112688072D01*
X151814250Y-112685000D01*
X151973000Y-112526250D01*
X151973000Y-111327000D01*
X152227000Y-111327000D01*
X152227000Y-112526250D01*
X152385750Y-112685000D01*
X152950000Y-112688072D01*
X153074482Y-112675812D01*
X153194180Y-112639502D01*
X153304494Y-112580537D01*
X153401185Y-112501185D01*
X153480537Y-112404494D01*
X153539502Y-112294180D01*
X153575812Y-112174482D01*
X153588072Y-112050000D01*
X153585000Y-111485750D01*
X153426250Y-111327000D01*
X152227000Y-111327000D01*
X151973000Y-111327000D01*
X150773750Y-111327000D01*
X150615000Y-111485750D01*
X150611928Y-112050000D01*
X138685000Y-112050000D01*
X138685000Y-111327278D01*
X138789851Y-111295472D01*
X138943387Y-111213405D01*
X139077962Y-111102962D01*
X139188405Y-110968387D01*
X139270472Y-110814851D01*
X139321008Y-110648255D01*
X139338072Y-110475001D01*
X139338072Y-109649999D01*
X139329208Y-109560000D01*
X142762678Y-109560000D01*
X142800000Y-109563676D01*
X142837322Y-109560000D01*
X142837333Y-109560000D01*
X142948986Y-109549003D01*
X143092247Y-109505546D01*
X143219526Y-109437513D01*
X143282795Y-109590256D01*
X143396063Y-109759774D01*
X143540226Y-109903937D01*
X143709744Y-110017205D01*
X143898102Y-110095226D01*
X144098061Y-110135000D01*
X144301939Y-110135000D01*
X144501898Y-110095226D01*
X144690256Y-110017205D01*
X144859774Y-109903937D01*
X144903711Y-109860000D01*
X150846111Y-109860000D01*
X150798815Y-109898815D01*
X150719463Y-109995506D01*
X150660498Y-110105820D01*
X150624188Y-110225518D01*
X150611928Y-110350000D01*
X150615000Y-110914250D01*
X150773750Y-111073000D01*
X151973000Y-111073000D01*
X151973000Y-109873750D01*
X152227000Y-109873750D01*
X152227000Y-111073000D01*
X153426250Y-111073000D01*
X153585000Y-110914250D01*
X153588072Y-110350000D01*
X153575812Y-110225518D01*
X153539502Y-110105820D01*
X153480537Y-109995506D01*
X153401185Y-109898815D01*
X153304494Y-109819463D01*
X153194180Y-109760498D01*
X153074482Y-109724188D01*
X152950000Y-109711928D01*
X152385750Y-109715000D01*
X152227000Y-109873750D01*
X151973000Y-109873750D01*
X151900425Y-109801175D01*
X152024276Y-109734974D01*
X152140001Y-109640001D01*
X152163804Y-109610997D01*
X152610998Y-109163803D01*
X152640001Y-109140001D01*
X152734974Y-109024276D01*
X152805546Y-108892247D01*
X152849003Y-108748986D01*
X152860000Y-108637333D01*
X152860000Y-108637325D01*
X152863676Y-108600000D01*
X152860000Y-108562675D01*
X152860000Y-107398178D01*
X153046632Y-107273475D01*
X153253475Y-107066632D01*
X153415990Y-106823411D01*
X153527932Y-106553158D01*
X153585000Y-106266260D01*
X153585000Y-105973740D01*
X153527932Y-105686842D01*
X153415990Y-105416589D01*
X153253475Y-105173368D01*
X153046632Y-104966525D01*
X152803411Y-104804010D01*
X152533158Y-104692068D01*
X152246260Y-104635000D01*
X151953740Y-104635000D01*
X151666842Y-104692068D01*
X151396589Y-104804010D01*
X151153368Y-104966525D01*
X150946525Y-105173368D01*
X150784010Y-105416589D01*
X150672068Y-105686842D01*
X150615000Y-105973740D01*
X150615000Y-106266260D01*
X150672068Y-106553158D01*
X150784010Y-106823411D01*
X150946525Y-107066632D01*
X151153368Y-107273475D01*
X151340000Y-107398179D01*
X151340000Y-108285199D01*
X151285199Y-108340000D01*
X146327429Y-108340000D01*
X146335000Y-108301939D01*
X146335000Y-108098061D01*
X146295226Y-107898102D01*
X146217205Y-107709744D01*
X146103937Y-107540226D01*
X146060000Y-107496289D01*
X146060000Y-102600107D01*
X146153368Y-102693475D01*
X146396589Y-102855990D01*
X146666842Y-102967932D01*
X146953740Y-103025000D01*
X147246260Y-103025000D01*
X147533158Y-102967932D01*
X147803411Y-102855990D01*
X148046632Y-102693475D01*
X148253475Y-102486632D01*
X148415990Y-102243411D01*
X148527932Y-101973158D01*
X148585000Y-101686260D01*
X148585000Y-101393740D01*
X148527932Y-101106842D01*
X148415990Y-100836589D01*
X148253475Y-100593368D01*
X148121620Y-100461513D01*
X148194180Y-100439502D01*
X148304494Y-100380537D01*
X148401185Y-100301185D01*
X148480537Y-100204494D01*
X148539502Y-100094180D01*
X148575812Y-99974482D01*
X148588072Y-99850000D01*
X148588072Y-98150000D01*
X148575812Y-98025518D01*
X148539502Y-97905820D01*
X148480537Y-97795506D01*
X148401185Y-97698815D01*
X148304494Y-97619463D01*
X148194180Y-97560498D01*
X148074482Y-97524188D01*
X147950000Y-97511928D01*
X146250000Y-97511928D01*
X146125518Y-97524188D01*
X146005820Y-97560498D01*
X145895506Y-97619463D01*
X145798815Y-97698815D01*
X145719463Y-97795506D01*
X145660498Y-97905820D01*
X145638487Y-97978380D01*
X145506632Y-97846525D01*
X145263411Y-97684010D01*
X144993158Y-97572068D01*
X144706260Y-97515000D01*
X144413740Y-97515000D01*
X144126842Y-97572068D01*
X143856589Y-97684010D01*
X143613368Y-97846525D01*
X143406525Y-98053368D01*
X143290000Y-98227760D01*
X143173475Y-98053368D01*
X142966632Y-97846525D01*
X142723411Y-97684010D01*
X142453158Y-97572068D01*
X142166260Y-97515000D01*
X141873740Y-97515000D01*
X141586842Y-97572068D01*
X141316589Y-97684010D01*
X141073368Y-97846525D01*
X140866525Y-98053368D01*
X140704010Y-98296589D01*
X140592068Y-98566842D01*
X140535000Y-98853740D01*
X140535000Y-99146260D01*
X140592068Y-99433158D01*
X140704010Y-99703411D01*
X140866525Y-99946632D01*
X141073368Y-100153475D01*
X141249406Y-100271100D01*
X141019731Y-100442412D01*
X140824822Y-100658645D01*
X140675843Y-100908748D01*
X140578519Y-101183109D01*
X140699186Y-101413000D01*
X141893000Y-101413000D01*
X141893000Y-101393000D01*
X142147000Y-101393000D01*
X142147000Y-101413000D01*
X142167000Y-101413000D01*
X142167000Y-101667000D01*
X142147000Y-101667000D01*
X142147000Y-102860155D01*
X142376890Y-102981476D01*
X142524099Y-102936825D01*
X142625000Y-102888765D01*
X142625000Y-103189478D01*
X142501939Y-103165000D01*
X142298061Y-103165000D01*
X142098102Y-103204774D01*
X141909744Y-103282795D01*
X141740226Y-103396063D01*
X141596063Y-103540226D01*
X141482795Y-103709744D01*
X141404774Y-103898102D01*
X141365000Y-104098061D01*
X141365000Y-104301939D01*
X141404774Y-104501898D01*
X141482795Y-104690256D01*
X141596063Y-104859774D01*
X141640001Y-104903712D01*
X141640000Y-107589990D01*
X139337990Y-107589990D01*
X139335000Y-107223250D01*
X139176250Y-107064500D01*
X137927000Y-107064500D01*
X137927000Y-107084500D01*
X137673000Y-107084500D01*
X137673000Y-107064500D01*
X137653000Y-107064500D01*
X137653000Y-106810500D01*
X137673000Y-106810500D01*
X137673000Y-105798750D01*
X137927000Y-105798750D01*
X137927000Y-106810500D01*
X139176250Y-106810500D01*
X139335000Y-106651750D01*
X139338072Y-106275000D01*
X139325812Y-106150518D01*
X139289502Y-106030820D01*
X139230537Y-105920506D01*
X139151185Y-105823815D01*
X139054494Y-105744463D01*
X138944180Y-105685498D01*
X138824482Y-105649188D01*
X138700000Y-105636928D01*
X138085750Y-105640000D01*
X137927000Y-105798750D01*
X137673000Y-105798750D01*
X137514250Y-105640000D01*
X136900000Y-105636928D01*
X136775518Y-105649188D01*
X136655820Y-105685498D01*
X136545506Y-105744463D01*
X136448815Y-105823815D01*
X136369463Y-105920506D01*
X136310498Y-106030820D01*
X136285000Y-106114876D01*
X136285000Y-104966578D01*
X138295049Y-102956530D01*
X138328817Y-102928817D01*
X138369330Y-102879453D01*
X138439410Y-102794060D01*
X138487400Y-102704276D01*
X138521589Y-102640313D01*
X138572195Y-102473490D01*
X138585000Y-102343477D01*
X138585000Y-102343467D01*
X138589281Y-102300001D01*
X138585000Y-102256535D01*
X138585000Y-101896891D01*
X140578519Y-101896891D01*
X140675843Y-102171252D01*
X140824822Y-102421355D01*
X141019731Y-102637588D01*
X141253080Y-102811641D01*
X141515901Y-102936825D01*
X141663110Y-102981476D01*
X141893000Y-102860155D01*
X141893000Y-101667000D01*
X140699186Y-101667000D01*
X140578519Y-101896891D01*
X138585000Y-101896891D01*
X138585000Y-98038454D01*
X138617205Y-97990256D01*
X138695226Y-97801898D01*
X138735000Y-97601939D01*
X138735000Y-97398061D01*
X138695226Y-97198102D01*
X138617205Y-97009744D01*
X138503937Y-96840226D01*
X138359774Y-96696063D01*
X138190256Y-96582795D01*
X138001898Y-96504774D01*
X137801939Y-96465000D01*
X137598061Y-96465000D01*
X137398102Y-96504774D01*
X137209744Y-96582795D01*
X137040226Y-96696063D01*
X136896063Y-96840226D01*
X136782795Y-97009744D01*
X136704774Y-97198102D01*
X136665000Y-97398061D01*
X136665000Y-97601939D01*
X136704774Y-97801898D01*
X136782795Y-97990256D01*
X136815000Y-98038454D01*
X136815001Y-101933420D01*
X134804956Y-103943466D01*
X134771183Y-103971183D01*
X134660589Y-104105942D01*
X134578411Y-104259688D01*
X134527805Y-104426511D01*
X134515000Y-104556524D01*
X134515000Y-104556531D01*
X134510719Y-104600000D01*
X134515000Y-104643469D01*
X134515001Y-107033420D01*
X133304956Y-108243466D01*
X133271183Y-108271183D01*
X133160589Y-108405942D01*
X133078411Y-108559688D01*
X133054655Y-108638000D01*
X133032002Y-108712677D01*
X133027805Y-108726511D01*
X133015000Y-108856524D01*
X133015000Y-108856531D01*
X133010719Y-108900000D01*
X133015000Y-108943469D01*
X133015001Y-110038445D01*
X132940713Y-110112733D01*
X132805557Y-110315008D01*
X132712460Y-110539764D01*
X132665000Y-110778363D01*
X132665000Y-111021637D01*
X132712460Y-111260236D01*
X132745499Y-111340000D01*
X126457333Y-111340000D01*
X126420000Y-111336323D01*
X126382667Y-111340000D01*
X126271014Y-111350997D01*
X126127753Y-111394454D01*
X125995724Y-111465026D01*
X125879999Y-111559999D01*
X125856201Y-111588997D01*
X124343886Y-113101312D01*
X124161335Y-113065000D01*
X123878665Y-113065000D01*
X123601426Y-113120147D01*
X123340273Y-113228320D01*
X123105241Y-113385363D01*
X122905363Y-113585241D01*
X122748320Y-113820273D01*
X122640147Y-114081426D01*
X122585000Y-114358665D01*
X116209408Y-114358665D01*
X116225000Y-114280279D01*
X116225000Y-113859721D01*
X116142953Y-113447244D01*
X115982012Y-113058698D01*
X115748363Y-112709017D01*
X115450983Y-112411637D01*
X115101302Y-112177988D01*
X114712756Y-112017047D01*
X114590366Y-111992702D01*
X115986903Y-111992702D01*
X116058486Y-112236671D01*
X116313996Y-112357571D01*
X116588184Y-112426300D01*
X116870512Y-112440217D01*
X117150130Y-112398787D01*
X117416292Y-112303603D01*
X117541514Y-112236671D01*
X117613097Y-111992702D01*
X116800000Y-111179605D01*
X115986903Y-111992702D01*
X114590366Y-111992702D01*
X114300279Y-111935000D01*
X113879721Y-111935000D01*
X113467244Y-112017047D01*
X113078698Y-112177988D01*
X112729017Y-112411637D01*
X112685000Y-112455654D01*
X112685000Y-111070512D01*
X115359783Y-111070512D01*
X115401213Y-111350130D01*
X115496397Y-111616292D01*
X115563329Y-111741514D01*
X115807298Y-111813097D01*
X116620395Y-111000000D01*
X116979605Y-111000000D01*
X117792702Y-111813097D01*
X118036671Y-111741514D01*
X118157571Y-111486004D01*
X118226300Y-111211816D01*
X118240217Y-110929488D01*
X118198787Y-110649870D01*
X118103603Y-110383708D01*
X118036671Y-110258486D01*
X117792702Y-110186903D01*
X116979605Y-111000000D01*
X116620395Y-111000000D01*
X115807298Y-110186903D01*
X115563329Y-110258486D01*
X115442429Y-110513996D01*
X115373700Y-110788184D01*
X115359783Y-111070512D01*
X112685000Y-111070512D01*
X112685000Y-106358665D01*
X115365000Y-106358665D01*
X115365000Y-106641335D01*
X115420147Y-106918574D01*
X115528320Y-107179727D01*
X115685363Y-107414759D01*
X115770604Y-107500000D01*
X115685363Y-107585241D01*
X115528320Y-107820273D01*
X115420147Y-108081426D01*
X115365000Y-108358665D01*
X115365000Y-108641335D01*
X115420147Y-108918574D01*
X115528320Y-109179727D01*
X115685363Y-109414759D01*
X115885241Y-109614637D01*
X116085869Y-109748692D01*
X116058486Y-109763329D01*
X115986903Y-110007298D01*
X116800000Y-110820395D01*
X117613097Y-110007298D01*
X117541514Y-109763329D01*
X117512659Y-109749676D01*
X117714759Y-109614637D01*
X117914637Y-109414759D01*
X118071680Y-109179727D01*
X118121272Y-109060000D01*
X125196440Y-109060000D01*
X125204774Y-109101898D01*
X125282795Y-109290256D01*
X125396063Y-109459774D01*
X125540226Y-109603937D01*
X125709744Y-109717205D01*
X125898102Y-109795226D01*
X126098061Y-109835000D01*
X126301939Y-109835000D01*
X126501898Y-109795226D01*
X126690256Y-109717205D01*
X126859774Y-109603937D01*
X127003937Y-109459774D01*
X127117205Y-109290256D01*
X127195226Y-109101898D01*
X127235000Y-108901939D01*
X127235000Y-108698061D01*
X127195226Y-108498102D01*
X127117205Y-108309744D01*
X127003937Y-108140226D01*
X126913711Y-108050000D01*
X127003937Y-107959774D01*
X127117205Y-107790256D01*
X127195226Y-107601898D01*
X127235000Y-107401939D01*
X127235000Y-107198061D01*
X127195226Y-106998102D01*
X127117205Y-106809744D01*
X127003937Y-106640226D01*
X126859774Y-106496063D01*
X126690256Y-106382795D01*
X126501898Y-106304774D01*
X126301939Y-106265000D01*
X126239801Y-106265000D01*
X125863803Y-105889002D01*
X125840001Y-105859999D01*
X125724276Y-105765026D01*
X125592247Y-105694454D01*
X125448986Y-105650997D01*
X125337333Y-105640000D01*
X125337322Y-105640000D01*
X125300000Y-105636324D01*
X125262678Y-105640000D01*
X117951226Y-105640000D01*
X117914637Y-105585241D01*
X117736419Y-105407023D01*
X117794180Y-105389502D01*
X117904494Y-105330537D01*
X118001185Y-105251185D01*
X118080537Y-105154494D01*
X118139502Y-105044180D01*
X118175812Y-104924482D01*
X118188072Y-104800000D01*
X118188072Y-103200000D01*
X118175812Y-103075518D01*
X118139502Y-102955820D01*
X118080537Y-102845506D01*
X118001185Y-102748815D01*
X117904494Y-102669463D01*
X117794180Y-102610498D01*
X117674482Y-102574188D01*
X117550000Y-102561928D01*
X116050000Y-102561928D01*
X115925518Y-102574188D01*
X115805820Y-102610498D01*
X115695506Y-102669463D01*
X115598815Y-102748815D01*
X115519463Y-102845506D01*
X115460498Y-102955820D01*
X115424188Y-103075518D01*
X115411928Y-103200000D01*
X115411928Y-104800000D01*
X115424188Y-104924482D01*
X115460498Y-105044180D01*
X115519463Y-105154494D01*
X115598815Y-105251185D01*
X115695506Y-105330537D01*
X115805820Y-105389502D01*
X115863581Y-105407023D01*
X115685363Y-105585241D01*
X115528320Y-105820273D01*
X115420147Y-106081426D01*
X115365000Y-106358665D01*
X112685000Y-106358665D01*
X112685000Y-102544346D01*
X112729017Y-102588363D01*
X113078698Y-102822012D01*
X113467244Y-102982953D01*
X113879721Y-103065000D01*
X114300279Y-103065000D01*
X114712756Y-102982953D01*
X115101302Y-102822012D01*
X115450983Y-102588363D01*
X115748363Y-102290983D01*
X115982012Y-101941302D01*
X116142953Y-101552756D01*
X116225000Y-101140279D01*
X116225000Y-100719721D01*
X116142953Y-100307244D01*
X115982012Y-99918698D01*
X115748363Y-99569017D01*
X115450983Y-99271637D01*
X115101302Y-99037988D01*
X114712756Y-98877047D01*
X114300279Y-98795000D01*
X113879721Y-98795000D01*
X113467244Y-98877047D01*
X113078698Y-99037988D01*
X112729017Y-99271637D01*
X112685000Y-99315654D01*
X112685000Y-90685000D01*
X161315000Y-90685000D01*
X161315001Y-124315000D01*
G37*
G04 #@! TD.AperFunction*
M02*
